{
.appVersion = "3151";
.formatVersion = 3;
axes = (
{
name = Weight;
tag = wght;
},
{
name = Width;
tag = wdth;
},
{
name = Slant;
tag = slnt;
}
);
classes = (
{
code = "zero one two three four five six seven eight nine ";
name = Num;
},
{
code = "zero.canadian one.canadian two.canadian three.canadian four.canadian five.canadian six.canadian seven.canadian eight.canadian nine.canadian 
";
name = Num_can;
},
{

glyphs = (
{
glyphname = idotless;
lastChange = "2023-01-13 15:28:16 +0000";
layers = (
{
layerId = "A0BEBE03-9AB7-4E04-894D-4F686A7231C4";
shapes = (
{
closed = 1;
nodes = (
(69,0,l),
(182,534,l),
(119,534,l),
(5,0,l)
);
}
);
width = 178;
}
);
note = dotlessi;
unicode = 305;
},
{
glyphname = "acuteFinal-canadian";
lastChange = "2023-01-13 15:30:11 +0000";
layers = (
{
layerId = "A0BEBE03-9AB7-4E04-894D-4F686A7231C4";
shapes = (
{
closed = 1;
nodes = (
(108,357,l),
(304,714,l),
(249,714,l),
(54,357,l)
);
}
);
width = 234;
}
);
metricRight = "=|";
note = uni141F;
unicode = 5151;
},
{
glyphname = "graveFinal-canadian";
kernLeft = mwestleft;
kernRight = mwestright;
lastChange = "2023-01-13 15:30:11 +0000";
layers = (
{
layerId = "A0BEBE03-9AB7-4E04-894D-4F686A7231C4";
shapes = (
{
closed = 1;
nodes = (
(228,357,l),
(179,714,l),
(130,714,l),
(178,357,l)
);
}
);
width = 234;
}
);
metricLeft = "=|acuteFinal-canadian";
metricRight = "=|acuteFinal-canadian";
note = uni1420;
unicode = 5152;
},
{
glyphname = "ringBottomhalfFinal-canadian";
kernLeft = mwestleft;
kernRight = mwestright;
lastChange = "2023-01-13 15:28:16 +0000";
layers = (
{
layerId = "A0BEBE03-9AB7-4E04-894D-4F686A7231C4";
shapes = (
{
closed = 1;
nodes = (
(271,351,o),
(308,392,o),
(324,465,cs),
(377,714,l),
(332,714,l),
(280,470,ls),
(268,413,o),
(245,393,o),
(202,393,cs),
(151,393,o),
(136,426,o),
(147,474,cs),
(197,714,l),
(152,714,l),
(102,477,ls),
(86,400,o),
(123,351,o),
(199,351,cs)
);
}
);
width = 329;
}
);
metricLeft = "ai-canadian";
metricRight = "==|ai-canadian";
note = uni1421;
unicode = 5153;
},
{
glyphname = "ringTophalfFinal-canadian";
lastChange = "2023-01-13 15:28:16 +0000";
layers = (
{
layerId = "A0BEBE03-9AB7-4E04-894D-4F686A7231C4";
shapes = (
{
closed = 1;
nodes = (
(121,357,l),
(173,601,ls),
(185,658,o),
(208,678,o),
(252,678,cs),
(302,678,o),
(317,645,o),
(307,597,cs),
(256,357,l),
(301,357,l),
(351,594,ls),
(368,671,o),
(330,720,o),
(254,720,cs),
(182,720,o),
(145,679,o),
(129,606,cs),
(76,357,l)
);
}
);
width = 329;
}
);
metricLeft = "ai-canadian";
metricRight = "==|ai-canadian";
note = uni1422;
unicode = 5154;
},
{
glyphname = "ringRighthalfFinal-canadian";
kernLeft = mwestleft;
kernRight = mwestright;
lastChange = "2023-01-13 15:28:16 +0000";
layers = (
{
layerId = "A0BEBE03-9AB7-4E04-894D-4F686A7231C4";
shapes = (
{
closed = 1;
nodes = (
(109,357,ls),
(259,357,o),
(301,490,o),
(301,582,cs),
(301,668,o),
(252,714,o),
(171,714,cs),
(148,714,l),
(139,670,l),
(168,670,ls),
(224,670,o),
(254,639,o),
(254,579,cs),
(254,518,o),
(234,401,o),
(114,401,cs),
(82,401,l),
(72,357,l)
);
}
);
width = 286;
}
);
metricLeft = "=|t-canadian";
metricWidth = "t-canadian";
note = uni1423;
unicode = 5155;
},
{
glyphname = "ringFinal-canadian";
kernLeft = mwestleft;
kernRight = mwestright;
lastChange = "2023-01-13 15:28:16 +0000";
layers = (
{
layerId = "A0BEBE03-9AB7-4E04-894D-4F686A7231C4";
shapes = (
{
closed = 1;
nodes = (
(367,411,o),
(430,477,o),
(430,566,cs),
(430,653,o),
(367,720,o),
(275,720,cs),
(183,720,o),
(119,654,o),
(119,566,cs),
(119,477,o),
(183,411,o),
(275,411,cs)
);
},
{
closed = 1;
nodes = (
(207,451,o),
(162,497,o),
(162,566,cs),
(162,634,o),
(207,680,o),
(275,680,cs),
(342,680,o),
(388,633,o),
(388,566,cs),
(388,497,o),
(342,451,o),
(275,451,cs)
);
}
);
width = 413;
}
);
note = uni1424;
unicode = 5156;
},
{
glyphname = "doubleacuteFinal-canadian";
lastChange = "2023-01-13 15:28:16 +0000";
layers = (
{
layerId = "A0BEBE03-9AB7-4E04-894D-4F686A7231C4";
shapes = (
{
closed = 1;
nodes = (
(107,357,l),
(303,714,l),
(251,714,l),
(54,357,l)
);
},
{
closed = 1;
nodes = (
(217,357,l),
(414,714,l),
(361,714,l),
(164,357,l)
);
}
);
width = 344;
}
);
metricLeft = "acuteFinal-canadian";
metricRight = "=|";
note = uni1425;
unicode = 5157;
},
{
glyphname = "doubleshortverticalstrokesFinal-canadian";
kernLeft = mwestleft;
kernRight = mwestright;
lastChange = "2023-01-13 15:30:12 +0000";
layers = (
{
layerId = "A0BEBE03-9AB7-4E04-894D-4F686A7231C4";
shapes = (
{
closed = 1;
nodes = (
(121,357,l),
(197,714,l),
(152,714,l),
(76,357,l)
);
},
{
closed = 1;
nodes = (
(220,357,l),
(296,714,l),
(251,714,l),
(175,357,l)
);
}
);
width = 248;
}
);
metricLeft = "pWestCree-canadian";
metricRight = "pWestCree-canadian";
note = uni1426;
unicode = 5158;
},
{
glyphname = "middledotFinal-canadian";
lastChange = "2023-01-13 15:28:16 +0000";
layers = (
{
layerId = "A0BEBE03-9AB7-4E04-894D-4F686A7231C4";
shapes = (
{
closed = 1;
nodes = (
(137,325,o),
(156,344,o),
(156,367,cs),
(156,390,o),
(137,409,o),
(114,409,cs),
(91,409,o),
(72,390,o),
(72,367,cs),
(72,344,o),
(91,325,o),
(114,325,cs)
);
}
);
width = 176;
}
);
note = uni1427;
unicode = 5159;
},
{
glyphname = "shorthorizontalstrokeFinal-canadian";
kernLeft = mwestleft;
kernRight = mwestright;
lastChange = "2023-01-13 15:28:16 +0000";
layers = (
{
layerId = "A0BEBE03-9AB7-4E04-894D-4F686A7231C4";
shapes = (
{
closed = 1;
nodes = (
(361,522,l),
(371,568,l),
(122,568,l),
(112,522,l)
);
}
);
width = 355;
}
);
metricRight = "=|";
note = uni1428;
unicode = 5160;
},
{
glyphname = "plusFinal-canadian";
kernLeft = mwestleft;
kernRight = mwestright;
lastChange = "2023-01-13 15:30:11 +0000";
layers = (
{
layerId = "A0BEBE03-9AB7-4E04-894D-4F686A7231C4";
shapes = (
{
closed = 1;
nodes = (
(238,421,l),
(264,547,l),
(368,547,l),
(378,591,l),
(274,591,l),
(300,714,l),
(257,714,l),
(231,591,l),
(127,591,l),
(118,547,l),
(222,547,l),
(195,421,l)
);
}
);
width = 357;
}
);
metricLeft = "shorthorizontalstrokeFinal-canadian";
metricRight = "shorthorizontalstrokeFinal-canadian";
note = uni1429;
unicode = 5161;
},
{
glyphname = "downtackFinal-canadian";
kernLeft = mwestleft;
kernRight = mwestright;
lastChange = "2023-01-13 15:30:11 +0000";
layers = (
{
layerId = "A0BEBE03-9AB7-4E04-894D-4F686A7231C4";
shapes = (
{
closed = 1;
nodes = (
(226,357,l),
(293,670,l),
(394,670,l),
(404,714,l),
(153,714,l),
(144,670,l),
(247,670,l),
(181,357,l)
);
}
);
width = 357;
}
);
metricLeft = "shorthorizontalstrokeFinal-canadian";
metricRight = "shorthorizontalstrokeFinal-canadian";
note = uni142A;
unicode = 5162;
},
{
glyphname = "thFinalWoodScree-canadian";
lastChange = "2023-01-13 15:28:16 +0000";
layers = (
{
layerId = "A0BEBE03-9AB7-4E04-894D-4F686A7231C4";
shapes = (
{
closed = 1;
nodes = (
(224,357,l),
(243,445,l),
(345,445,l),
(354,486,l),
(252,486,l),
(273,585,l),
(375,585,l),
(384,626,l),
(282,626,l),
(300,714,l),
(255,714,l),
(237,626,l),
(134,626,l),
(125,585,l),
(228,585,l),
(207,486,l),
(104,486,l),
(95,445,l),
(198,445,l),
(179,357,l)
);
}
);
width = 355;
}
);
metricLeft = "hyphen-canadian";
metricRight = "hyphen-canadian";
note = uni167E;
unicode = 5758;
},
{
glyphname = "ringSmallFinal-canadian";
kernLeft = mwestleft;
kernRight = mwestright;
lastChange = "2023-01-13 15:28:16 +0000";
layers = (
{
layerId = "A0BEBE03-9AB7-4E04-894D-4F686A7231C4";
shapes = (
{
closed = 1;
nodes = (
(271,554,o),
(309,591,o),
(309,641,cs),
(309,690,o),
(271,727,o),
(223,727,cs),
(174,727,o),
(136,690,o),
(136,641,cs),
(136,591,o),
(174,554,o),
(223,554,cs)
);
},
{
closed = 1;
nodes = (
(191,586,o),
(170,609,o),
(170,641,cs),
(170,672,o),
(191,695,o),
(223,695,cs),
(254,695,o),
(276,672,o),
(276,641,cs),
(276,609,o),
(254,586,o),
(223,586,cs)
);
}
);
width = 277;
}
);
note = g725;
unicode = 6366;
},
{
glyphname = "raiseddotFinal-canadian";
kernLeft = mwestleft;
kernRight = mwestright;
lastChange = "2023-01-13 15:28:16 +0000";
layers = (
{
layerId = "A0BEBE03-9AB7-4E04-894D-4F686A7231C4";
shapes = (
{
closed = 1;
nodes = (
(209,643,o),
(228,661,o),
(228,685,cs),
(228,708,o),
(209,727,o),
(186,727,cs),
(162,727,o),
(144,708,o),
(144,685,cs),
(144,661,o),
(162,643,o),
(186,643,cs)
);
}
);
width = 184;
}
);
note = g725;
unicode = 6367;
},
{
glyphname = "plusFinal-canadian.base";
lastChange = "2023-01-13 15:30:11 +0000";
layers = (
{
layerId = "A0BEBE03-9AB7-4E04-894D-4F686A7231C4";
shapes = (
{
closed = 1;
nodes = (
(148,0,l),
(174,126,l),
(278,126,l),
(288,170,l),
(184,170,l),
(210,293,l),
(168,293,l),
(142,170,l),
(37,170,l),
(28,126,l),
(132,126,l),
(106,0,l)
);
}
);
width = 357;
}
);
metricLeft = "shorthorizontalstrokeFinal-canadian";
metricRight = "shorthorizontalstrokeFinal-canadian";
note = uni1429;
},
{
glyphname = "e-canadian";
kernLeft = ecanleft;
kernRight = ecanright;
lastChange = "2023-01-13 15:28:16 +0000";
layers = (
{
anchors = (
{
name = middle_center_can;
pos = (322,470);
},
{
name = top_center_can;
pos = (376,714);
},
{
name = top_left_can;
pos = (201,714);
},
{
name = top_right_can;
pos = (553,714);
}
);
layerId = "A0BEBE03-9AB7-4E04-894D-4F686A7231C4";
shapes = (
{
closed = 1;
nodes = (
(239,0,l),
(624,694,l),
(629,714,l),
(128,714,l),
(124,694,l),
(214,0,l)
);
},
{
closed = 1;
nodes = (
(257,68,l),
(185,677,l),
(169,661,l),
(561,661,l),
(550,677,l),
(221,68,l)
);
}
);
width = 557;
}
);
metricRight = "=|";
note = uni1401;
unicode = 5121;
},
{
glyphname = "i-canadian";
kernLeft = icanleft;
kernRight = icanright;
lastChange = "2023-01-13 15:30:11 +0000";
layers = (
{
anchors = (
{
name = middle_center_can;
pos = (316,417);
},
{
name = top_center_can;
pos = (378,714);
},
{
name = top_left_can;
pos = (200,714);
},
{
name = top_right_can;
pos = (552,714);
}
);
layerId = "A0BEBE03-9AB7-4E04-894D-4F686A7231C4";
shapes = (
{
closed = 1;
nodes = (
(365,714,l),
(-20,20,l),
(-24,0,l),
(476,0,l),
(481,20,l),
(390,714,l)
);
},
{
closed = 1;
nodes = (
(347,646,l),
(420,37,l),
(435,53,l),
(44,53,l),
(54,37,l),
(383,646,l)
);
}
);
width = 557;
}
);
metricLeft = "e-canadian";
metricWidth = "e-canadian";
note = uni1403;
unicode = 5123;
},
{
glyphname = "o-canadian";
kernLeft = ocanleft;
kernRight = ocanright;
lastChange = "2023-01-13 15:28:16 +0000";
layers = (
{
anchors = (
{
name = middle_center_can;
pos = (249,364);
},
{
name = top_center_can;
pos = (383,714);
},
{
name = top_double;
pos = (462,714);
},
{
name = top_left_can;
pos = (190,714);
},
{
name = top_right_can;
pos = (573,714);
}
);
layerId = "A0BEBE03-9AB7-4E04-894D-4F686A7231C4";
shapes = (
{
closed = 1;
nodes = (
(31,0,l),
(528,344,l),
(534,370,l),
(183,714,l),
(165,714,l),
(13,0,l)
);
},
{
closed = 1;
nodes = (
(202,640,l),
(178,650,l),
(480,352,l),
(480,372,l),
(60,79,l),
(81,73,l)
);
}
);
width = 539;
}
);
metricLeft = "nunavuth-canadian";
note = uni1405;
unicode = 5125;
},
{
glyphname = "eeCarrier-canadian";
lastChange = "2023-01-13 15:28:16 +0000";
layers = (
{
layerId = "A0BEBE03-9AB7-4E04-894D-4F686A7231C4";
shapes = (
{
closed = 1;
nodes = (
(31,0,l),
(528,344,l),
(534,370,l),
(183,714,l),
(165,714,l),
(13,0,l)
);
},
{
closed = 1;
nodes = (
(198,640,l),
(187,645,l),
(483,352,l),
(488,375,l),
(69,82,l),
(77,73,l)
);
},
{
closed = 1;
nodes = (
(239,265,l),
(279,456,l),
(250,456,l),
(209,265,l)
);
}
);
width = 539;
}
);
metricLeft = "nunavuth-canadian";
metricRight = "o-canadian";
note = uni1408;
unicode = 5128;
},
{
glyphname = "a-canadian";
kernLeft = acanleft;
kernRight = acanright;
lastChange = "2023-01-13 15:28:16 +0000";
layers = (
{
anchors = (
{
name = middle_center_can;
pos = (337,357);
},
{
name = top_center_can;
pos = (342,714);
},
{
name = top_left_can;
pos = (162,714);
},
{
name = top_right_can;
pos = (546,714);
}
);
layerId = "A0BEBE03-9AB7-4E04-894D-4F686A7231C4";
shapes = (
{
closed = 1;
nodes = (
(556,714,l),
(58,370,l),
(53,344,l),
(404,0,l),
(422,0,l),
(574,714,l)
);
},
{
closed = 1;
nodes = (
(385,74,l),
(409,64,l),
(107,362,l),
(107,342,l),
(527,635,l),
(506,641,l)
);
}
);
width = 539;
}
);
metricRight = "nunavuth-canadian";
note = uni140A;
unicode = 5130;
},
{
glyphname = "ai-canadian";
lastChange = "2023-01-13 15:28:16 +0000";
layers = (
{
layerId = "A0BEBE03-9AB7-4E04-894D-4F686A7231C4";
shapes = (
{
closed = 1;
nodes = (
(238,351,o),
(279,384,o),
(295,438,c),
(281,438,l),
(281,382,o),
(312,351,o),
(368,351,cs),
(434,351,o),
(473,391,o),
(491,479,cs),
(541,714,l),
(498,714,l),
(448,479,ls),
(435,420,o),
(412,393,o),
(369,393,cs),
(322,393,o),
(305,421,o),
(317,478,cs),
(368,714,l),
(325,714,l),
(276,483,ls),
(263,422,o),
(236,393,o),
(194,393,cs),
(152,393,o),
(133,423,o),
(144,474,cs),
(195,714,l),
(152,714,l),
(101,470,ls),
(86,402,o),
(119,351,o),
(187,351,cs)
);
}
);
width = 493;
}
);
metricRight = "=|";
note = uni141C;
unicode = 5148;
},
{
glyphname = "ycreew-canadian";
lastChange = "2023-01-13 15:28:16 +0000";
layers = (
{
layerId = "A0BEBE03-9AB7-4E04-894D-4F686A7231C4";
shapes = (
{
closed = 1;
nodes = (
(354,528,o),
(381,564,o),
(381,624,cs),
(381,685,o),
(354,720,o),
(313,720,cs),
(273,720,o),
(246,685,o),
(246,624,cs),
(246,564,o),
(273,528,o),
(314,528,cs)
);
},
{
closed = 1;
nodes = (
(207,351,o),
(234,387,o),
(234,447,cs),
(234,508,o),
(207,543,o),
(167,543,cs),
(126,543,o),
(99,508,o),
(99,447,cs),
(99,387,o),
(126,351,o),
(167,351,cs)
);
},
{
closed = 1;
nodes = (
(142,379,o),
(129,401,o),
(129,447,cs),
(129,493,o),
(142,515,o),
(167,515,cs),
(191,515,o),
(205,493,o),
(205,447,cs),
(205,401,o),
(191,379,o),
(167,379,cs)
);
},
{
closed = 1;
nodes = (
(289,556,o),
(276,578,o),
(276,624,cs),
(276,670,o),
(289,692,o),
(314,692,cs),
(338,692,o),
(352,670,o),
(352,624,cs),
(352,578,o),
(338,556,o),
(314,556,cs)
);
}
);
width = 356;
}
);
metricRight = "=|";
note = uni141D;
unicode = 5149;
},
{
glyphname = "glottalstop-canadian";
lastChange = "2023-01-13 15:30:11 +0000";
layers = (
{
layerId = "A0BEBE03-9AB7-4E04-894D-4F686A7231C4";
shapes = (
{
closed = 1;
nodes = (
(323,357,l),
(326,369,l),
(281,714,l),
(267,714,l),
(75,369,l),
(73,357,l)
);
},
{
closed = 1;
nodes = (
(277,663,l),
(253,667,l),
(287,376,l),
(299,394,l),
(114,394,l),
(121,376,l)
);
}
);
width = 349;
}
);
metricRight = "=|";
note = uni141E;
unicode = 5150;
},
{
glyphname = "pe-canadian";
kernLeft = ecanleft;
kernRight = ecanright;
lastChange = "2023-01-13 15:28:16 +0000";
layers = (
{
anchors = (
{
name = middle_center_can;
pos = (323,470);
},
{
name = top_center_can;
pos = (379,714);
},
{
name = top_left_can;
pos = (201,714);
},
{
name = top_right_can;
pos = (553,714);
}
);
layerId = "A0BEBE03-9AB7-4E04-894D-4F686A7231C4";
shapes = (
{
closed = 1;
nodes = (
(239,0,l),
(624,694,l),
(629,714,l),
(567,714,l),
(218,75,l),
(261,75,l),
(182,714,l),
(128,714,l),
(124,694,l),
(214,0,l)
);
}
);
width = 557;
}
);
metricLeft = "e-canadian";
metricRight = "e-canadian";
note = uni142F;
unicode = 5167;
},
{
glyphname = "pi-canadian";
kernLeft = icanleft;
kernRight = icanright;
lastChange = "2023-01-13 15:30:11 +0000";
layers = (
{
anchors = (
{
name = middle_center_can;
pos = (318,417);
},
{
name = top_center_can;
pos = (378,714);
},
{
name = top_left_can;
pos = (200,714);
},
{
name = top_right_can;
pos = (552,714);
}
);
layerId = "A0BEBE03-9AB7-4E04-894D-4F686A7231C4";
shapes = (
{
closed = 1;
nodes = (
(365,714,l),
(-20,20,l),
(-24,0,l),
(37,0,l),
(387,639,l),
(343,639,l),
(422,0,l),
(476,0,l),
(480,20,l),
(390,714,l)
);
}
);
width = 556;
}
);
metricLeft = "e-canadian";
metricRight = "e-canadian";
note = uni1431;
unicode = 5169;
},
{
glyphname = "po-canadian";
kernLeft = ocanleft;
kernRight = ocanright;
lastChange = "2023-01-13 15:28:16 +0000";
layers = (
{
anchors = (
{
name = middle_center_can;
pos = (196,365);
},
{
name = top_center_can;
pos = (360,714);
},
{
name = top_double;
pos = (446,714);
},
{
name = top_left_can;
pos = (171,714);
},
{
name = top_right_can;
pos = (546,714);
}
);
layerId = "A0BEBE03-9AB7-4E04-894D-4F686A7231C4";
name = "Thin Slanted";
shapes = (
{
closed = 1;
nodes = (
(9,0,l),
(501,344,l),
(507,370,l),
(161,714,l),
(143,714,l),
(132,662,l),
(447,348,l),
(453,380,l),
(5,66,l),
(-9,0,l)
);
}
);
width = 512;
}
);
metricRight = "o-canadian";
note = uni1433;
unicode = 5171;
},
{
glyphname = "pa-canadian";
kernLeft = acanleft;
kernRight = acanright;
lastChange = "2023-01-13 15:30:11 +0000";
layers = (
{
anchors = (
{
name = middle_center_can;
pos = (273,357);
},
{
name = top_center_can;
pos = (354,714);
},
{
name = top_left_can;
pos = (163,714);
},
{
name = top_right_can;
pos = (541,714);
}
);
layerId = "A0BEBE03-9AB7-4E04-894D-4F686A7231C4";
shapes = (
{
closed = 1;
nodes = (
(550,714,l),
(59,370,l),
(53,344,l),
(398,0,l),
(416,0,l),
(427,52,l),
(113,366,l),
(107,334,l),
(554,648,l),
(568,714,l)
);
}
);
width = 511;
}
);
metricRight = "=|po-canadian";
note = uni1438;
unicode = 5176;
},
{
glyphname = "p-canadian";
kernLeft = mwestleft;
kernRight = mwestright;
lastChange = "2023-01-13 15:28:16 +0000";
layers = (
{
layerId = "A0BEBE03-9AB7-4E04-894D-4F686A7231C4";
shapes = (
{
closed = 1;
nodes = (
(292,357,l),
(301,396,l),
(150,548,l),
(144,516,l),
(358,666,l),
(368,714,l),
(358,714,l),
(116,545,l),
(112,527,l),
(282,357,l)
);
}
);
width = 320;
}
);
note = uni1449;
unicode = 5193;
},
{
glyphname = "pWestCree-canadian";
kernLeft = mwestleft;
kernRight = mwestright;
lastChange = "2023-01-13 15:30:11 +0000";
layers = (
{
layerId = "A0BEBE03-9AB7-4E04-894D-4F686A7231C4";
shapes = (
{
closed = 1;
nodes = (
(121,357,l),
(197,714,l),
(152,714,l),
(76,357,l)
);
}
);
width = 149;
}
);
metricRight = "=|";
note = uni144A;
unicode = 5194;
},
{
color = 6;
glyphname = "hCarrier-canadian";
lastChange = "2023-01-13 15:28:16 +0000";
layers = (
{
layerId = "A0BEBE03-9AB7-4E04-894D-4F686A7231C4";
shapes = (
{
closed = 1;
nodes = (
(86,189,l),
(119,346,ls),
(127,388,o),
(150,408,o),
(179,408,cs),
(214,408,o),
(227,384,o),
(218,343,cs),
(185,189,l),
(231,189,l),
(264,346,ls),
(277,407,o),
(249,449,o),
(194,449,cs),
(156,449,o),
(125,424,o),
(116,385,c),
(126,380,l),
(162,546,l),
(116,546,l),
(40,189,l)
);
}
);
width = 278;
}
);
metricLeft = "pWestCree-canadian";
note = uni144B;
unicode = 5195;
},
{
glyphname = "te-canadian";
lastChange = "2023-01-13 15:30:11 +0000";
layers = (
{
anchors = (
{
name = middle_center_can;
pos = (306,357);
},
{
name = top_center_can;
pos = (382,714);
},
{
name = top_left_can;
pos = (194,714);
},
{
name = top_right_can;
pos = (570,714);
}
);
layerId = "A0BEBE03-9AB7-4E04-894D-4F686A7231C4";
shapes = (
{
closed = 1;
nodes = (
(385,-13,o),
(464,62,o),
(497,220,cs),
(602,714,l),
(539,714,l),
(436,227,ls),
(409,102,o),
(354,47,o),
(259,47,cs),
(139,47,o),
(97,114,o),
(126,250,cs),
(225,714,l),
(161,714,l),
(63,253,ls),
(28,85,o),
(99,-13,o),
(256,-13,cs)
);
}
);
width = 563;
}
);
metricRight = "=|";
note = uni144C;
unicode = 5196;
},
{
glyphname = "ti-canadian";
lastChange = "2023-01-13 15:30:11 +0000";
layers = (
{
anchors = (
{
name = middle_center_can;
pos = (305,357);
},
{
name = middle_right_can;
pos = (619,357);
},
{
name = top_center_can;
pos = (381,714);
},
{
name = top_left_can;
pos = (194,714);
},
{
name = top_right_can;
pos = (570,714);
}
);
layerId = "A0BEBE03-9AB7-4E04-894D-4F686A7231C4";
shapes = (
{
closed = 1;
nodes = (
(73,0,l),
(176,487,ls),
(203,612,o),
(259,667,o),
(353,667,cs),
(473,667,o),
(515,600,o),
(486,464,cs),
(387,0,l),
(450,0,l),
(548,461,ls),
(584,629,o),
(513,727,o),
(356,727,cs),
(227,727,o),
(148,652,o),
(114,494,cs),
(9,0,l)
);
}
);
width = 563;
}
);
metricLeft = "te-canadian";
metricRight = "te-canadian";
note = uni144E;
unicode = 5198;
},
{
glyphname = "to-canadian";
kernLeft = toleft;
lastChange = "2023-01-13 15:28:16 +0000";
layers = (
{
anchors = (
{
name = middle_center_can;
pos = (223,357);
},
{
name = middle_right_can;
pos = (534,357);
},
{
name = top_center_can;
pos = (310,714);
},
{
name = top_double;
pos = (356,714);
},
{
name = top_left_can;
pos = (171,714);
},
{
name = top_right_can;
pos = (489,714);
}
);
layerId = "A0BEBE03-9AB7-4E04-894D-4F686A7231C4";
shapes = (
{
closed = 1;
nodes = (
(91,0,ls),
(381,0,o),
(454,305,o),
(454,474,cs),
(454,633,o),
(371,714,o),
(215,714,cs),
(143,714,l),
(131,655,l),
(203,655,ls),
(329,655,o),
(390,597,o),
(390,473,cs),
(390,336,o),
(332,59,o),
(94,59,cs),
(4,59,l),
(-9,0,l)
);
}
);
width = 469;
}
);
note = uni1450;
unicode = 5200;
},
{
glyphname = "ta-canadian";
kernRight = taright;
lastChange = "2023-01-13 15:28:16 +0000";
layers = (
{
anchors = (
{
name = middle_center_can;
pos = (292,357);
},
{
name = top_center_can;
pos = (358,714);
},
{
name = top_left_can;
pos = (177,714);
},
{
name = top_right_can;
pos = (498,714);
}
);
layerId = "A0BEBE03-9AB7-4E04-894D-4F686A7231C4";
shapes = (
{
closed = 1;
nodes = (
(374,0,l),
(386,59,l),
(311,59,ls),
(185,59,o),
(127,117,o),
(127,241,cs),
(127,382,o),
(185,655,o),
(420,655,cs),
(513,655,l),
(526,714,l),
(423,714,ls),
(137,714,o),
(63,413,o),
(63,239,cs),
(63,81,o),
(143,0,o),
(299,0,cs)
);
}
);
width = 469;
}
);
metricLeft = "=|to-canadian";
metricRight = "=|to-canadian";
note = uni1455;
unicode = 5205;
},
{
glyphname = "t-canadian";
kernLeft = mwestleft;
kernRight = mwestright;
lastChange = "2023-01-13 15:28:16 +0000";
layers = (
{
layerId = "A0BEBE03-9AB7-4E04-894D-4F686A7231C4";
shapes = (
{
closed = 1;
nodes = (
(261,357,l),
(271,401,l),
(241,401,ls),
(183,401,o),
(154,432,o),
(154,491,cs),
(154,566,o),
(184,670,o),
(296,670,cs),
(327,670,l),
(337,714,l),
(303,714,ls),
(156,714,o),
(109,590,o),
(109,489,cs),
(109,403,o),
(155,357,o),
(238,357,cs)
);
}
);
width = 286;
}
);
note = uni1466;
unicode = 5222;
},
{
glyphname = "ke-canadian";
lastChange = "2023-01-13 15:28:16 +0000";
layers = (
{
anchors = (
{
name = middle_center_can;
pos = (291,457);
},
{
name = top_center_can;
pos = (329,714);
},
{
name = top_left_can;
pos = (186,714);
},
{
name = top_right_can;
pos = (474,714);
}
);
layerId = "A0BEBE03-9AB7-4E04-894D-4F686A7231C4";
shapes = (
{
closed = 1;
nodes = (
(353,0,l),
(449,454,ls),
(477,585,o),
(461,727,o),
(316,727,cs),
(144,727,o),
(95,501,o),
(95,381,cs),
(95,273,o),
(141,212,o),
(229,212,cs),
(294,212,o),
(341,249,o),
(373,331,c),
(360,331,l),
(289,0,l)
);
},
{
closed = 1;
nodes = (
(186,268,o),
(156,307,o),
(156,383,cs),
(156,464,o),
(191,671,o),
(311,671,cs),
(370,671,o),
(400,632,o),
(400,557,cs),
(400,476,o),
(365,268,o),
(244,268,cs)
);
}
);
width = 466;
}
);
metricRight = "te-canadian";
note = uni146B;
unicode = 5227;
},
{
glyphname = "ki-canadian";
lastChange = "2023-01-13 15:28:16 +0000";
layers = (
{
anchors = (
{
name = middle_center_can;
pos = (297,457);
},
{
name = top_center_can;
pos = (336,714);
},
{
name = top_left_can;
pos = (193,714);
},
{
name = top_right_can;
pos = (480,714);
}
);
layerId = "A0BEBE03-9AB7-4E04-894D-4F686A7231C4";
shapes = (
{
closed = 1;
nodes = (
(73,0,l),
(151,365,l),
(136,334,l),
(136,262,o),
(179,212,o),
(252,212,cs),
(417,212,o),
(466,441,o),
(466,555,cs),
(466,666,o),
(417,727,o),
(323,727,cs),
(217,727,o),
(147,647,o),
(113,488,cs),
(9,0,l)
);
},
{
closed = 1;
nodes = (
(192,268,o),
(163,307,o),
(163,382,cs),
(163,464,o),
(200,671,o),
(318,671,cs),
(377,671,o),
(406,633,o),
(406,557,cs),
(406,472,o),
(369,268,o),
(251,268,cs)
);
}
);
width = 466;
}
);
metricLeft = "te-canadian";
metricRight = "=|ke-canadian";
note = uni146D;
unicode = 5229;
},
{
glyphname = "ko-canadian";
lastChange = "2023-01-13 15:28:16 +0000";
layers = (
{
anchors = (
{
name = middle_center_can;
pos = (280,411);
},
{
name = top_center_can;
pos = (330,714);
},
{
name = top_double;
pos = (473,714);
},
{
name = top_left_can;
pos = (187,714);
},
{
name = top_right_can;
pos = (473,714);
}
);
layerId = "A0BEBE03-9AB7-4E04-894D-4F686A7231C4";
shapes = (
{
closed = 1;
nodes = (
(298,-13,o),
(367,67,o),
(401,226,cs),
(505,714,l),
(441,714,l),
(363,349,l),
(378,380,l),
(378,452,o),
(335,502,o),
(262,502,cs),
(97,502,o),
(47,274,o),
(47,159,cs),
(47,49,o),
(97,-13,o),
(191,-13,cs)
);
},
{
closed = 1;
nodes = (
(137,43,o),
(108,82,o),
(108,157,cs),
(108,239,o),
(145,446,o),
(263,446,cs),
(322,446,o),
(351,407,o),
(351,332,cs),
(351,244,o),
(316,43,o),
(196,43,cs)
);
}
);
width = 466;
}
);
metricLeft = "ke-canadian";
metricRight = "te-canadian";
note = uni146F;
unicode = 5231;
},
{
glyphname = "ka-canadian";
lastChange = "2023-01-13 15:28:16 +0000";
layers = (
{
anchors = (
{
name = middle_center_can;
pos = (286,412);
},
{
name = top_center_can;
pos = (335,714);
},
{
name = top_left_can;
pos = (193,714);
},
{
name = top_right_can;
pos = (479,714);
}
);
layerId = "A0BEBE03-9AB7-4E04-894D-4F686A7231C4";
shapes = (
{
closed = 1;
nodes = (
(370,-13,o),
(419,213,o),
(419,333,cs),
(419,441,o),
(372,502,o),
(284,502,cs),
(224,502,o),
(177,465,o),
(141,383,c),
(154,383,l),
(225,714,l),
(161,714,l),
(65,260,ls),
(28,85,o),
(79,-13,o),
(197,-13,cs)
);
},
{
closed = 1;
nodes = (
(144,43,o),
(115,82,o),
(115,157,cs),
(115,238,o),
(149,446,o),
(269,446,cs),
(328,446,o),
(357,407,o),
(357,331,cs),
(357,249,o),
(323,43,o),
(203,43,cs)
);
}
);
width = 466;
}
);
metricLeft = "te-canadian";
metricRight = "==|ke-canadian";
note = uni1472;
unicode = 5234;
},
{
glyphname = "k-canadian";
kernLeft = mwestleft;
kernRight = mwestright;
lastChange = "2023-01-13 15:28:16 +0000";
layers = (
{
layerId = "A0BEBE03-9AB7-4E04-894D-4F686A7231C4";
shapes = (
{
closed = 1;
nodes = (
(273,351,o),
(302,472,o),
(302,531,cs),
(302,587,o),
(276,622,o),
(231,622,cs),
(191,622,o),
(160,590,o),
(148,546,c),
(162,546,l),
(197,714,l),
(152,714,l),
(105,494,ls),
(92,434,o),
(98,351,o),
(180,351,cs)
);
},
{
closed = 1;
nodes = (
(156,388,o),
(143,408,o),
(143,444,cs),
(143,484,o),
(161,585,o),
(220,585,cs),
(246,585,o),
(259,565,o),
(259,530,cs),
(259,488,o),
(241,388,o),
(182,388,cs)
);
}
);
width = 288;
}
);
note = uni1483;
unicode = 5251;
},
{
glyphname = "kw-canadian";
kernLeft = mwestleft;
kernRight = mwestright;
lastChange = "2023-01-13 15:28:16 +0000";
layers = (
{
layerId = "A0BEBE03-9AB7-4E04-894D-4F686A7231C4";
shapes = (
{
closed = 1;
nodes = (
(229,350,o),
(268,393,o),
(286,481,cs),
(335,714,l),
(290,714,l),
(253,538,l),
(268,546,l),
(269,592,o),
(243,621,o),
(203,621,cs),
(119,621,o),
(90,502,o),
(90,446,cs),
(90,386,o),
(119,350,o),
(171,350,cs)
);
},
{
closed = 1;
nodes = (
(145,388,o),
(131,408,o),
(131,443,cs),
(131,483,o),
(150,584,o),
(208,584,cs),
(234,584,o),
(248,563,o),
(248,528,cs),
(248,493,o),
(232,388,o),
(171,388,cs)
);
}
);
width = 288;
}
);
metricLeft = "=|k-canadian";
metricRight = "=|k-canadian";
note = uni1484;
unicode = 5252;
},
{
glyphname = "ce-canadian";
kernLeft = celeft;
lastChange = "2023-01-13 15:28:16 +0000";
layers = (
{
anchors = (
{
name = middle_center_can;
pos = (283,435);
},
{
name = top_center_can;
pos = (328,714);
},
{
name = top_left_can;
pos = (186,714);
},
{
name = top_right_can;
pos = (469,714);
}
);
layerId = "A0BEBE03-9AB7-4E04-894D-4F686A7231C4";
shapes = (
{
closed = 1;
nodes = (
(348,0,l),
(453,491,ls),
(484,641,o),
(425,727,o),
(311,727,cs),
(203,727,o),
(142,658,o),
(109,504,cs),
(88,405,l),
(151,405,l),
(174,513,ls),
(198,623,o),
(238,670,o),
(304,670,cs),
(380,670,o),
(416,615,o),
(392,502,cs),
(285,0,l)
);
}
);
width = 462;
}
);
metricRight = "te-canadian";
note = uni1489;
unicode = 5257;
},
{
glyphname = "ci-canadian";
kernRight = ciright;
lastChange = "2023-01-13 15:28:16 +0000";
layers = (
{
anchors = (
{
name = middle_center_can;
pos = (291,435);
},
{
name = top_center_can;
pos = (336,714);
},
{
name = top_left_can;
pos = (194,714);
},
{
name = top_right_can;
pos = (478,714);
}
);
layerId = "A0BEBE03-9AB7-4E04-894D-4F686A7231C4";
shapes = (
{
closed = 1;
nodes = (
(73,0,l),
(182,513,ls),
(205,623,o),
(245,670,o),
(312,670,cs),
(388,670,o),
(424,615,o),
(400,502,cs),
(379,405,l),
(442,405,l),
(460,491,ls),
(493,641,o),
(433,727,o),
(319,727,cs),
(210,727,o),
(149,658,o),
(117,504,cs),
(9,0,l)
);
}
);
width = 462;
}
);
metricLeft = "te-canadian";
metricRight = "=|ce-canadian";
note = uni148B;
unicode = 5259;
},
{
glyphname = "co-canadian";
kernLeft = coleft;
lastChange = "2023-01-13 15:30:11 +0000";
layers = (
{
anchors = (
{
name = middle_center_can;
pos = (284,435);
},
{
name = top_center_can;
pos = (327,714);
},
{
name = top_double;
pos = (469,714);
},
{
name = top_left_can;
pos = (186,714);
},
{
name = top_right_can;
pos = (469,714);
}
);
layerId = "A0BEBE03-9AB7-4E04-894D-4F686A7231C4";
shapes = (
{
closed = 1;
nodes = (
(299,-13,o),
(360,56,o),
(393,210,cs),
(500,714,l),
(437,714,l),
(328,201,ls),
(304,91,o),
(265,44,o),
(198,44,cs),
(121,44,o),
(86,99,o),
(110,212,cs),
(131,309,l),
(68,309,l),
(49,223,ls),
(17,73,o),
(77,-13,o),
(191,-13,cs)
);
}
);
width = 461;
}
);
metricLeft = "ce-canadian";
metricRight = "te-canadian";
note = uni148D;
unicode = 5261;
},
{
glyphname = "ca-canadian";
kernRight = caright;
lastChange = "2023-01-13 15:30:11 +0000";
layers = (
{
anchors = (
{
name = middle_center_can;
pos = (292,435);
},
{
name = top_center_can;
pos = (336,714);
},
{
name = top_left_can;
pos = (194,714);
},
{
name = top_right_can;
pos = (476,714);
}
);
layerId = "A0BEBE03-9AB7-4E04-894D-4F686A7231C4";
shapes = (
{
closed = 1;
nodes = (
(307,-13,o),
(367,56,o),
(400,210,cs),
(421,309,l),
(358,309,l),
(335,201,ls),
(311,91,o),
(272,44,o),
(206,44,cs),
(129,44,o),
(94,99,o),
(118,212,cs),
(225,714,l),
(161,714,l),
(57,223,ls),
(25,73,o),
(85,-13,o),
(199,-13,cs)
);
}
);
width = 461;
}
);
metricLeft = "te-canadian";
metricRight = "=|ce-canadian";
note = uni1490;
unicode = 5264;
},
{
glyphname = "c-canadian";
kernLeft = mwestleft;
kernRight = mwestright;
lastChange = "2023-01-13 15:28:16 +0000";
layers = (
{
layerId = "A0BEBE03-9AB7-4E04-894D-4F686A7231C4";
shapes = (
{
closed = 1;
nodes = (
(241,351,o),
(279,394,o),
(293,465,cs),
(301,502,l),
(259,502,l),
(250,459,ls),
(240,416,o),
(218,390,o),
(185,390,cs),
(147,390,o),
(136,424,o),
(145,468,cs),
(197,714,l),
(152,714,l),
(102,476,ls),
(87,408,o),
(113,351,o),
(183,351,cs)
);
}
);
width = 279;
}
);
note = uni14A1;
unicode = 5281;
},
{
glyphname = "thSayisi-canadian";
lastChange = "2023-01-13 15:30:11 +0000";
layers = (
{
layerId = "A0BEBE03-9AB7-4E04-894D-4F686A7231C4";
shapes = (
{
closed = 1;
nodes = (
(224,351,o),
(259,394,o),
(275,467,cs),
(328,714,l),
(282,714,l),
(229,465,ls),
(218,411,o),
(196,390,o),
(162,390,cs),
(125,390,o),
(113,424,o),
(123,469,cs),
(130,502,l),
(88,502,l),
(82,474,ls),
(69,405,o),
(95,351,o),
(165,351,cs)
);
}
);
width = 280;
}
);
metricLeft = "=|c-canadian";
metricRight = "=|c-canadian";
note = uni14A2;
unicode = 5282;
},
{
glyphname = "me-canadian";
kernLeft = meleft;
lastChange = "2023-01-13 15:28:16 +0000";
layers = (
{
anchors = (
{
name = middle_center_can;
pos = (183,357);
},
{
name = top_center_can;
pos = (292,714);
},
{
name = top_left_can;
pos = (166,714);
},
{
name = top_right_can;
pos = (415,714);
}
);
layerId = "A0BEBE03-9AB7-4E04-894D-4F686A7231C4";
shapes = (
{
closed = 1;
nodes = (
(295,0,l),
(447,714,l),
(135,714,l),
(122,655,l),
(371,655,l),
(232,0,l)
);
}
);
width = 412;
}
);
metricRight = "nunavuth-canadian";
note = uni14A3;
unicode = 5283;
},
{
glyphname = "mi-canadian";
kernRight = miright;
lastChange = "2023-01-13 15:30:11 +0000";
layers = (
{
anchors = (
{
name = middle_center_can;
pos = (278,357);
},
{
name = top_center_can;
pos = (321,714);
},
{
name = top_left_can;
pos = (197,714);
},
{
name = top_right_can;
pos = (446,714);
}
);
layerId = "A0BEBE03-9AB7-4E04-894D-4F686A7231C4";
shapes = (
{
closed = 1;
nodes = (
(76,0,l),
(216,655,l),
(464.99,655.008,l),
(478,714,l),
(165,714,l),
(13,0,l)
);
}
);
width = 413;
}
);
metricLeft = "nunavuth-canadian";
metricRight = "=|me-canadian";
note = uni14A5;
unicode = 5285;
},
{
glyphname = "mo-canadian";
kernLeft = moleft;
lastChange = "2023-01-13 15:30:11 +0000";
layers = (
{
anchors = (
{
name = middle_center_can;
pos = (184,357);
},
{
name = top_center_can;
pos = (293,714);
},
{
name = top_double;
pos = (417,714);
},
{
name = top_left_can;
pos = (167,714);
},
{
name = top_right_can;
pos = (416,714);
}
);
layerId = "A0BEBE03-9AB7-4E04-894D-4F686A7231C4";
shapes = (
{
closed = 1;
nodes = (
(296,0,l),
(448,714,l),
(385,714,l),
(245,59,l),
(-4,59,l),
(-16,0,l)
);
}
);
width = 413;
}
);
metricLeft = "me-canadian";
metricRight = "nunavuth-canadian";
note = uni14A7;
unicode = 5287;
},
{
glyphname = "ma-canadian";
kernRight = maright;
lastChange = "2023-01-13 15:30:11 +0000";
layers = (
{
anchors = (
{
name = middle_center_can;
pos = (278,357);
},
{
name = top_center_can;
pos = (321,714);
},
{
name = top_left_can;
pos = (197,714);
},
{
name = top_right_can;
pos = (445,714);
}
);
layerId = "A0BEBE03-9AB7-4E04-894D-4F686A7231C4";
shapes = (
{
closed = 1;
nodes = (
(326,0,l),
(338,59,l),
(89,59,l),
(228,714,l),
(165,714,l),
(13,0,l)
);
}
);
width = 413;
}
);
metricLeft = "nunavuth-canadian";
metricRight = "=|me-canadian";
note = uni14AA;
unicode = 5290;
},
{
glyphname = "m-canadian";
kernLeft = mwestleft;
kernRight = mwestright;
lastChange = "2023-01-13 15:28:16 +0000";
layers = (
{
layerId = "A0BEBE03-9AB7-4E04-894D-4F686A7231C4";
shapes = (
{
closed = 1;
nodes = (
(248,357,l),
(258,401,l),
(131,401,l),
(197,714,l),
(152,714,l),
(76,357,l)
);
}
);
width = 254;
}
);
metricLeft = "pWestCree-canadian";
note = uni14BB;
unicode = 5307;
},
{
glyphname = "mh-canadian";
kernLeft = mwestleft;
kernRight = mwestright;
lastChange = "2023-01-13 15:28:16 +0000";
layers = (
{
layerId = "A0BEBE03-9AB7-4E04-894D-4F686A7231C4";
shapes = (
{
closed = 1;
nodes = (
(226,357,l),
(302,714,l),
(258,714,l),
(191,401,l),
(63,401,l),
(53,357,l)
);
}
);
width = 254;
}
);
metricLeft = "=|m-canadian";
metricRight = "=|m-canadian";
note = uni14BD;
unicode = 5309;
},
{
glyphname = "mAthapascan-canadian";
lastChange = "2023-01-13 15:28:16 +0000";
layers = (
{
layerId = "A0BEBE03-9AB7-4E04-894D-4F686A7231C4";
shapes = (
{
closed = 1;
nodes = (
(261,357,l),
(270,398,l),
(135,398,l),
(133,374,l),
(244,504,ls),
(280,546,o),
(306,587,o),
(306,636,cs),
(306,689,o),
(277,720,o),
(226,720,cs),
(175,720,o),
(136,686,o),
(122,598,c),
(164,598,l),
(173,661,o),
(196,684,o),
(224,684,cs),
(251,684,o),
(264,669,o),
(264,638,cs),
(264,598,o),
(245,564,o),
(210,524,cs),
(87,380,l),
(82,357,l)
);
}
);
width = 278;
}
);
note = uni14BE;
unicode = 5310;
},
{
glyphname = "ne-canadian";
kernLeft = neleft;
lastChange = "2023-01-13 15:28:16 +0000";
layers = (
{
anchors = (
{
name = middle_center_can;
pos = (405,254);
},
{
name = top_center_can;
pos = (451,508);
},
{
name = top_left_can;
pos = (139,508);
},
{
name = top_right_can;
pos = (607,508);
}
);
layerId = "A0BEBE03-9AB7-4E04-894D-4F686A7231C4";
shapes = (
{
closed = 1;
nodes = (
(538,-13,o),
(587,204,o),
(587,312,cs),
(587,425,o),
(531,489,o),
(426,489,cs),
(103,489,l),
(91,431,l),
(353,431,l),
(352,454,l),
(243,415,o),
(214,252,o),
(214,164,cs),
(214,52,o),
(270,-13,o),
(369,-13,cs)
);
},
{
closed = 1;
nodes = (
(308,43,o),
(276,84,o),
(276,163,cs),
(276,241,o),
(306,433,o),
(431,433,cs),
(493,433,o),
(525,392,o),
(525,314,cs),
(525,236,o),
(496,43,o),
(370,43,cs)
);
}
);
width = 637;
}
);
metricRight = "=|ke-canadian";
note = uni14C0;
unicode = 5312;
},
{
glyphname = "ni-canadian";
kernRight = niright;
lastChange = "2023-01-13 15:30:11 +0000";
layers = (
{
anchors = (
{
name = middle_center_can;
pos = (235,254);
},
{
name = top_center_can;
pos = (298,508);
},
{
name = top_left_can;
pos = (141,508);
},
{
name = top_right_can;
pos = (610,508);
}
);
layerId = "A0BEBE03-9AB7-4E04-894D-4F686A7231C4";
shapes = (
{
closed = 1;
nodes = (
(372,-13,o),
(420,204,o),
(420,312,cs),
(420,373,o),
(402,417,o),
(367,440,c),
(362,431,l),
(626,431,l),
(639,489,l),
(272,489,ls),
(94,489,o),
(48,273,o),
(48,164,cs),
(48,52,o),
(103,-13,o),
(202,-13,cs)
);
},
{
closed = 1;
nodes = (
(141,43,o),
(110,84,o),
(110,163,cs),
(110,241,o),
(139,433,o),
(264,433,cs),
(327,433,o),
(358,392,o),
(358,314,cs),
(358,236,o),
(329,43,o),
(204,43,cs)
);
}
);
width = 638;
}
);
metricLeft = "ke-canadian";
metricRight = "=|ne-canadian";
note = uni14C2;
unicode = 5314;
},
{
glyphname = "no-canadian";
kernLeft = noleft;
lastChange = "2023-01-13 15:28:16 +0000";
layers = (
{
anchors = (
{
name = middle_center_can;
pos = (405,254);
},
{
name = top_center_can;
pos = (457,508);
},
{
name = top_double;
pos = (460,508);
},
{
name = top_left_can;
pos = (138,508);
},
{
name = top_right_can;
pos = (608,508);
}
);
layerId = "A0BEBE03-9AB7-4E04-894D-4F686A7231C4";
shapes = (
{
closed = 1;
nodes = (
(365,0,ls),
(544,0,o),
(590,217,o),
(590,325,cs),
(590,437,o),
(535,502,o),
(436,502,cs),
(266,502,o),
(218,286,o),
(218,177,cs),
(218,116,o),
(236,72,o),
(271,49,c),
(276,59,l),
(12,59,l),
(-1,0,l)
);
},
{
closed = 1;
nodes = (
(311,56,o),
(279,97,o),
(279,175,cs),
(279,254,o),
(309,446,o),
(434,446,cs),
(496,446,o),
(528,405,o),
(528,326,cs),
(528,248,o),
(499,56,o),
(373,56,cs)
);
}
);
width = 637;
}
);
metricLeft = "ne-canadian";
metricRight = "=|ke-canadian";
note = uni14C4;
unicode = 5316;
},
{
glyphname = "na-canadian";
kernRight = naright;
lastChange = "2023-01-13 15:28:16 +0000";
layers = (
{
anchors = (
{
name = middle_center_can;
pos = (236,254);
},
{
name = top_center_can;
pos = (291,508);
},
{
name = top_double;
pos = (404,508);
},
{
name = top_left_can;
pos = (141,508);
},
{
name = top_right_can;
pos = (610,508);
}
);
layerId = "A0BEBE03-9AB7-4E04-894D-4F686A7231C4";
shapes = (
{
closed = 1;
nodes = (
(534,0,l),
(546,59,l),
(284,59,l),
(284,35,l),
(393,74,o),
(422,237,o),
(422,325,cs),
(422,437,o),
(367,502,o),
(268,502,cs),
(99,502,o),
(50,286,o),
(50,177,cs),
(50,64,o),
(106,0,o),
(211,0,cs)
);
},
{
closed = 1;
nodes = (
(143,56,o),
(112,97,o),
(112,175,cs),
(112,254,o),
(141,446,o),
(267,446,cs),
(329,446,o),
(361,405,o),
(361,326,cs),
(361,248,o),
(331,56,o),
(206,56,cs)
);
}
);
width = 637;
}
);
metricLeft = "ke-canadian";
metricRight = "=|ne-canadian";
note = uni14C7;
unicode = 5319;
},
{
glyphname = "n-canadian";
kernLeft = mwestleft;
kernRight = mwestright;
lastChange = "2023-01-13 15:30:11 +0000";
layers = (
{
layerId = "A0BEBE03-9AB7-4E04-894D-4F686A7231C4";
shapes = (
{
closed = 1;
nodes = (
(375,449,l),
(385,493,l),
(238,493,l),
(235,468,l),
(289,488,o),
(311,574,o),
(311,620,cs),
(311,682,o),
(281,720,o),
(229,720,cs),
(142,720,o),
(111,611,o),
(111,546,cs),
(111,484,o),
(142,449,o),
(196,449,cs)
);
},
{
closed = 1;
nodes = (
(166,485,o),
(151,506,o),
(151,545,cs),
(151,587,o),
(169,683,o),
(227,683,cs),
(255,683,o),
(270,663,o),
(270,624,cs),
(270,582,o),
(253,485,o),
(193,485,cs)
);
}
);
width = 361;
}
);
metricLeft = "=|k-canadian";
note = uni14D0;
unicode = 5328;
},
{
glyphname = "nh-canadian";
kernLeft = mwestleft;
kernRight = mwestright;
lastChange = "2023-01-13 15:28:16 +0000";
layers = (
{
layerId = "A0BEBE03-9AB7-4E04-894D-4F686A7231C4";
shapes = (
{
closed = 1;
nodes = (
(274,449,ls),
(364,449,o),
(395,557,o),
(395,623,cs),
(395,685,o),
(364,720,o),
(313,720,cs),
(227,720,o),
(195,611,o),
(195,546,cs),
(195,524,o),
(200,494,o),
(224,477,c),
(228,493,l),
(82,493,l),
(73,449,l)
);
},
{
closed = 1;
nodes = (
(251,485,o),
(236,506,o),
(236,545,cs),
(236,587,o),
(253,683,o),
(311,683,cs),
(340,683,o),
(355,663,o),
(355,624,cs),
(355,582,o),
(337,485,o),
(279,485,cs)
);
}
);
width = 362;
}
);
metricLeft = "=|n-canadian";
metricRight = "=|n-canadian";
note = uni14D2;
unicode = 5330;
},
{
glyphname = "le-canadian";
kernLeft = neleft;
lastChange = "2023-01-13 15:30:11 +0000";
layers = (
{
anchors = (
{
name = middle_center_can;
pos = (405,254);
},
{
name = top_center_can;
pos = (452,508);
},
{
name = top_left_can;
pos = (139,508);
},
{
name = top_right_can;
pos = (607,508);
}
);
layerId = "A0BEBE03-9AB7-4E04-894D-4F686A7231C4";
shapes = (
{
closed = 1;
nodes = (
(315,0,ls),
(512,0,o),
(585,161,o),
(585,297,cs),
(585,416,o),
(515,489,o),
(393,489,cs),
(103,489,l),
(91,431,l),
(381,431,ls),
(473,431,o),
(522,382,o),
(522,294,cs),
(522,201,o),
(482,57,o),
(320,57,cs),
(312,57,l),
(300,0,l)
);
}
);
width = 636;
}
);
metricLeft = "ne-canadian";
metricRight = "=|ke-canadian";
note = uni14D3;
unicode = 5331;
},
{
glyphname = "li-canadian";
kernRight = niright;
lastChange = "2023-01-13 15:28:16 +0000";
layers = (
{
anchors = (
{
name = middle_center_can;
pos = (237,254);
},
{
name = top_center_can;
pos = (299,508);
},
{
name = top_left_can;
pos = (143,508);
},
{
name = top_right_can;
pos = (610,508);
}
);
layerId = "A0BEBE03-9AB7-4E04-894D-4F686A7231C4";
shapes = (
{
closed = 1;
nodes = (
(233,0,l),
(245,57,l),
(237,57,ls),
(159,57,o),
(114,110,o),
(114,195,cs),
(114,293,o),
(167,431,o),
(321,431,cs),
(625,431,l),
(638,489,l),
(325,489,ls),
(135,489,o),
(51,337,o),
(51,194,cs),
(51,78,o),
(118,0,o),
(223,0,cs)
);
}
);
width = 637;
}
);
metricLeft = "ke-canadian";
metricRight = "=|ne-canadian";
note = uni14D5;
unicode = 5333;
},
{
glyphname = "lo-canadian";
kernLeft = noleft;
lastChange = "2023-01-13 15:28:16 +0000";
layers = (
{
anchors = (
{
name = middle_center_can;
pos = (404,254);
},
{
name = top_center_can;
pos = (456,508);
},
{
name = top_double;
pos = (421,508);
},
{
name = top_left_can;
pos = (138,508);
},
{
name = top_right_can;
pos = (607,508);
}
);
layerId = "A0BEBE03-9AB7-4E04-894D-4F686A7231C4";
shapes = (
{
closed = 1;
nodes = (
(311,0,ls),
(502,0,o),
(586,152,o),
(586,295,cs),
(586,411,o),
(519,489,o),
(414,489,cs),
(404,489,l),
(392,432,l),
(400,432,ls),
(477,432,o),
(523,380,o),
(523,294,cs),
(523,196,o),
(470,58,o),
(316,58,cs),
(12,58,l),
(-1,0,l)
);
}
);
width = 637;
}
);
metricLeft = "ne-canadian";
metricRight = "=|ke-canadian";
note = uni14D7;
unicode = 5335;
},
{
glyphname = "la-canadian";
kernRight = naright;
lastChange = "2023-01-13 15:28:16 +0000";
layers = (
{
anchors = (
{
name = middle_center_can;
pos = (237,254);
},
{
name = top_center_can;
pos = (292,508);
},
{
name = top_left_can;
pos = (143,508);
},
{
name = top_right_can;
pos = (610,508);
}
);
layerId = "A0BEBE03-9AB7-4E04-894D-4F686A7231C4";
shapes = (
{
closed = 1;
nodes = (
(534,0,l),
(546,58,l),
(256,58,ls),
(164,58,o),
(114,107,o),
(114,195,cs),
(114,288,o),
(155,432,o),
(316,432,cs),
(325,432,l),
(337,489,l),
(322,489,ls),
(124,489,o),
(52,328,o),
(52,193,cs),
(52,73,o),
(122,0,o),
(244,0,cs)
);
}
);
width = 637;
}
);
metricLeft = "ke-canadian";
metricRight = "=|ne-canadian";
note = uni14DA;
unicode = 5338;
},
{
glyphname = "l-canadian";
kernLeft = mwestleft;
kernRight = mwestright;
lastChange = "2023-01-13 15:30:11 +0000";
layers = (
{
layerId = "A0BEBE03-9AB7-4E04-894D-4F686A7231C4";
shapes = (
{
closed = 1;
nodes = (
(356,357,l),
(365,401,l),
(240,401,ls),
(183,401,o),
(154,432,o),
(154,491,cs),
(154,566,o),
(185,670,o),
(295,670,cs),
(298,670,l),
(308,714,l),
(303,714,ls),
(156,714,o),
(109,590,o),
(109,489,cs),
(109,404,o),
(155,357,o),
(240,357,cs)
);
}
);
width = 361;
}
);
metricLeft = "t-canadian";
metricRight = "m-canadian";
note = uni14EA;
unicode = 5354;
},
{
glyphname = "lWestCree-canadian";
kernLeft = mwestleft;
kernRight = mwestright;
lastChange = "2023-01-13 15:28:16 +0000";
layers = (
{
layerId = "A0BEBE03-9AB7-4E04-894D-4F686A7231C4";
shapes = (
{
closed = 1;
nodes = (
(262,357,l),
(268,386,l),
(131,466,l),
(126,442,l),
(297,522,l),
(302,545,l),
(163,620,l),
(159,598,l),
(331,679,l),
(338,714,l),
(329,714,l),
(133,623,l),
(129,603,l),
(268,527,l),
(272,546,l),
(100,468,l),
(96,448,l),
(253,357,l)
);
}
);
width = 291;
}
);
metricRight = "=|";
note = uni14EB;
unicode = 5355;
},
{
glyphname = "mediall-canadian";
lastChange = "2023-01-13 15:28:16 +0000";
layers = (
{
layerId = "A0BEBE03-9AB7-4E04-894D-4F686A7231C4";
shapes = (
{
closed = 1;
nodes = (
(392,-13,l),
(402,30,l),
(106,199,l),
(99,171,l),
(467,337,l),
(473,370,l),
(175,528,l),
(169,504,l),
(538,674,l),
(549,727,l),
(531,727,l),
(123,539,l),
(116,508,l),
(415,347,l),
(420,369,l),
(52,206,l),
(46,175,l),
(375,-13,l)
);
}
);
width = 508;
}
);
metricRight = "=|";
note = uni14EC;
unicode = 5356;
},
{
glyphname = "se-canadian";
kernRight = seright;
lastChange = "2023-01-13 15:28:16 +0000";
layers = (
{
anchors = (
{
name = top_left_can;
pos = (194,714);
},
{
name = top_right_can;
pos = (426,714);
}
);
layerId = "A0BEBE03-9AB7-4E04-894D-4F686A7231C4";
shapes = (
{
closed = 1;
nodes = (
(306,0,l),
(376,326,l),
(351,326,ls),
(213,326,o),
(156,388,o),
(193,558,cs),
(226,714,l),
(163,714,l),
(130,560,ls),
(87,361,o),
(169,268,o),
(338,268,cs),
(351,268,l),
(305,292,l),
(243,0,l)
);
}
);
width = 423;
}
);
note = uni14ED;
unicode = 5357;
},
{
glyphname = "si-canadian";
kernLeft = sileft;
lastChange = "2023-01-13 15:30:11 +0000";
layers = (
{
anchors = (
{
name = top_left_can;
pos = (196,714);
},
{
name = top_right_can;
pos = (428,714);
}
);
layerId = "A0BEBE03-9AB7-4E04-894D-4F686A7231C4";
shapes = (
{
closed = 1;
nodes = (
(76,0,l),
(138,292,l),
(86,268,l),
(122,268,ls),
(285,268,o),
(382,351,o),
(424,547,cs),
(459,714,l),
(396,714,l),
(361,550,ls),
(327,396,o),
(253,326,o),
(127,326,cs),
(82,326,l),
(12,0,l)
);
}
);
width = 423;
}
);
metricLeft = "=|se-canadian";
metricRight = "=|se-canadian";
note = uni14EF;
unicode = 5359;
},
{
glyphname = "so-canadian";
kernRight = soright;
lastChange = "2023-01-13 15:30:11 +0000";
layers = (
{
anchors = (
{
name = top_double;
pos = (427,714);
},
{
name = top_left_can;
pos = (195,714);
},
{
name = top_right_can;
pos = (426,714);
}
);
layerId = "A0BEBE03-9AB7-4E04-894D-4F686A7231C4";
shapes = (
{
closed = 1;
nodes = (
(75,0,l),
(110,164,ls),
(143,318,o),
(217,388,o),
(343,388,cs),
(389,388,l),
(458,714,l),
(395,714,l),
(332,422,l),
(384,446,l),
(349,446,ls),
(185,446,o),
(88,363,o),
(47,167,cs),
(11,0,l)
);
}
);
width = 422;
}
);
metricLeft = "se-canadian";
metricRight = "se-canadian";
note = uni14F1;
unicode = 5361;
},
{
glyphname = "sa-canadian";
kernLeft = saleft;
kernRight = saright;
lastChange = "2023-01-13 15:30:11 +0000";
layers = (
{
anchors = (
{
name = top_left_can;
pos = (196,714);
},
{
name = top_right_can;
pos = (428,714);
}
);
layerId = "A0BEBE03-9AB7-4E04-894D-4F686A7231C4";
shapes = (
{
closed = 1;
nodes = (
(307,0,l),
(340,154,ls),
(383,353,o),
(301,446,o),
(132,446,cs),
(119,446,l),
(165,422,l),
(228,714,l),
(164,714,l),
(95,388,l),
(119,388,ls),
(257,388,o),
(314,326,o),
(277,156,cs),
(244,0,l)
);
}
);
width = 422;
}
);
metricLeft = "=|se-canadian";
metricRight = "=|se-canadian";
note = uni14F4;
unicode = 5364;
},
{
glyphname = "s-canadian";
kernLeft = mwestleft;
kernRight = mwestright;
lastChange = "2023-01-13 15:28:16 +0000";
layers = (
{
layerId = "A0BEBE03-9AB7-4E04-894D-4F686A7231C4";
shapes = (
{
closed = 1;
nodes = (
(248,357,l),
(266,444,ls),
(285,532,o),
(249,589,o),
(159,589,cs),
(145,589,l),
(166,566,l),
(197,714,l),
(152,714,l),
(118,551,l),
(147,551,ls),
(216,551,o),
(236,514,o),
(221,442,cs),
(203,357,l)
);
}
);
width = 276;
}
);
metricRight = "=|";
note = uni1505;
unicode = 5381;
},
{
color = 6;
glyphname = "sAthapascan-canadian";
lastChange = "2023-01-13 15:28:16 +0000";
layers = (
{
layerId = "A0BEBE03-9AB7-4E04-894D-4F686A7231C4";
shapes = (
{
closed = 1;
nodes = (
(219,183,o),
(258,227,o),
(258,290,cs),
(258,331,o),
(241,358,o),
(200,378,cs),
(180,389,ls),
(154,401,o),
(141,421,o),
(141,445,cs),
(141,486,o),
(164,515,o),
(207,515,cs),
(243,515,o),
(261,497,o),
(250,444,c),
(292,444,l),
(305,507,o),
(272,552,o),
(209,552,cs),
(137,552,o),
(99,505,o),
(99,442,cs),
(99,406,o),
(118,374,o),
(155,356,cs),
(175,346,ls),
(206,330,o),
(216,313,o),
(216,287,cs),
(216,245,o),
(193,220,o),
(153,220,cs),
(114,220,o),
(91,237,o),
(104,294,c),
(62,294,l),
(47,223,o),
(85,183,o),
(152,183,cs)
);
}
);
width = 302;
}
);
metricRight = "=|";
note = uni1506;
unicode = 5382;
},
{
glyphname = "sw-canadian";
kernLeft = mwestleft;
kernRight = mwestright;
lastChange = "2023-01-13 15:28:16 +0000";
layers = (
{
layerId = "A0BEBE03-9AB7-4E04-894D-4F686A7231C4";
shapes = (
{
closed = 1;
nodes = (
(122,357,l),
(140,442,ls),
(156,518,o),
(191,551,o),
(256,551,cs),
(289,551,l),
(324,714,l),
(278,714,l),
(248,570,l),
(280,589,l),
(254,589,ls),
(165,589,o),
(116,544,o),
(96,447,cs),
(76,357,l)
);
}
);
width = 276;
}
);
metricLeft = "=|s-canadian";
metricRight = "=|s-canadian";
note = uni1507;
unicode = 5383;
},
{
glyphname = "sBlackfoot-canadian";
lastChange = "2023-01-13 15:28:16 +0000";
layers = (
{
layerId = "A0BEBE03-9AB7-4E04-894D-4F686A7231C4";
shapes = (
{
closed = 1;
nodes = (
(254,357,l),
(264,401,l),
(203,401,ls),
(154,401,o),
(135,426,o),
(148,483,cs),
(197,714,l),
(152,714,l),
(104,488,ls),
(86,404,o),
(121,357,o),
(201,357,cs)
);
}
);
width = 260;
}
);
metricLeft = "ai-canadian";
metricRight = "m-canadian";
note = uni1508;
unicode = 5384;
},
{
glyphname = "moosecreesk-canadian";
kernLeft = mwestleft;
kernRight = mwestright;
lastChange = "2023-01-13 15:30:11 +0000";
layers = (
{
layerId = "A0BEBE03-9AB7-4E04-894D-4F686A7231C4";
shapes = (
{
closed = 1;
nodes = (
(256,225,o),
(281,371,o),
(281,456,cs),
(281,546,o),
(241,590,o),
(158,590,cs),
(150,590,l),
(166,568,l),
(197,714,l),
(152,714,l),
(118,552,l),
(145,552,ls),
(235,552,o),
(244,505,o),
(239,428,c),
(244,415,l),
(249,448,o),
(242,495,o),
(186,495,cs),
(101,495,o),
(75,376,o),
(75,322,cs),
(75,263,o),
(104,225,o),
(156,225,cs)
);
},
{
closed = 1;
nodes = (
(130,261,o),
(116,282,o),
(116,319,cs),
(116,360,o),
(134,460,o),
(192,460,cs),
(220,460,o),
(235,441,o),
(235,404,cs),
(235,363,o),
(216,261,o),
(158,261,cs)
);
}
);
width = 299;
}
);
metricRight = "=|";
note = uni1509;
unicode = 5385;
},
{
glyphname = "skwNaskapi-canadian";
kernLeft = mwestleft;
kernRight = mwestright;
lastChange = "2023-01-13 15:30:11 +0000";
layers = (
{
layerId = "A0BEBE03-9AB7-4E04-894D-4F686A7231C4";
shapes = (
{
closed = 1;
nodes = (
(244,225,o),
(275,342,o),
(275,403,cs),
(275,460,o),
(249,495,o),
(204,495,cs),
(167,495,o),
(135,467,o),
(125,421,c),
(136,423,l),
(167,509,o),
(205,552,o),
(287,552,cs),
(312,552,l),
(346,714,l),
(301,714,l),
(270,567,l),
(297,590,l),
(282,590,ls),
(130,590,o),
(76,419,o),
(76,324,cs),
(76,265,o),
(103,225,o),
(155,225,cs)
);
},
{
closed = 1;
nodes = (
(130,261,o),
(116,282,o),
(116,319,cs),
(116,360,o),
(134,460,o),
(192,460,cs),
(220,460,o),
(234,441,o),
(234,404,cs),
(234,363,o),
(216,261,o),
(158,261,cs)
);
}
);
width = 299;
}
);
metricLeft = "=|moosecreesk-canadian";
metricRight = "=|moosecreesk-canadian";
note = uni150A;
unicode = 5386;
},
{
glyphname = "swNaskapi-canadian";
lastChange = "2023-01-13 15:28:16 +0000";
layers = (
{
layerId = "A0BEBE03-9AB7-4E04-894D-4F686A7231C4";
shapes = (
{
closed = 1;
nodes = (
(230,184,l),
(246,259,ls),
(267,357,o),
(226,411,o),
(142,411,cs),
(125,411,l),
(143,387,l),
(173,531,l),
(129,531,l),
(96,373,l),
(128,373,ls),
(192,373,o),
(218,341,o),
(201,260,cs),
(185,184,l)
);
},
{
closed = 1;
nodes = (
(215,65,o),
(234,84,o),
(234,107,cs),
(234,131,o),
(215,150,o),
(192,150,cs),
(169,150,o),
(149,131,o),
(149,107,cs),
(149,84,o),
(169,65,o),
(192,65,cs)
);
},
{
closed = 1;
nodes = (
(192,564,o),
(210,583,o),
(210,607,cs),
(210,631,o),
(192,649,o),
(168,649,cs),
(145,649,o),
(126,631,o),
(126,607,cs),
(126,583,o),
(145,564,o),
(168,564,cs)
);
}
);
width = 312;
}
);
metricRight = "=|";
note = uni150B;
unicode = 5387;
},
{
glyphname = "spwaNaskapi-canadian";
lastChange = "2023-01-13 15:30:11 +0000";
layers = (
{
layerId = "A0BEBE03-9AB7-4E04-894D-4F686A7231C4";
shapes = (
{
closed = 1;
nodes = (
(416,0,l),
(427,52,l),
(113,366,l),
(107,334,l),
(554,648,l),
(568,714,l),
(550,714,l),
(59,370,l),
(53,344,l),
(398,0,l)
);
},
{
closed = 1;
nodes = (
(200,511,o),
(218,530,o),
(218,553,cs),
(218,577,o),
(200,596,o),
(176,596,cs),
(154,596,o),
(134,577,o),
(134,553,cs),
(134,530,o),
(154,511,o),
(176,511,cs)
);
},
{
closed = 1;
nodes = (
(353,619,l),
(366,681,ls),
(380,745,o),
(354,783,o),
(294,783,cs),
(272,783,l),
(299,764,l),
(321,865,l),
(279,865,l),
(254,747,l),
(277,747,ls),
(320,747,o),
(332,728,o),
(322,676,cs),
(310,619,l)
);
},
{
closed = 1;
nodes = (
(511,724,o),
(529,744,o),
(529,767,cs),
(529,791,o),
(511,810,o),
(487,810,cs),
(465,810,o),
(445,791,o),
(445,767,cs),
(445,744,o),
(465,724,o),
(487,724,cs)
);
}
);
width = 511;
}
);
metricRight = "pa-canadian";
metricWidth = "pa-canadian";
note = uni150C;
unicode = 5388;
},
{
glyphname = "she-canadian";
kernRight = caright;
lastChange = "2023-01-13 15:30:11 +0000";
layers = (
{
anchors = (
{
name = top_left_can;
pos = (327,714);
},
{
name = top_right_can;
pos = (637,714);
}
);
layerId = "A0BEBE03-9AB7-4E04-894D-4F686A7231C4";
shapes = (
{
closed = 1;
nodes = (
(568,-13,o),
(627,58,o),
(659,210,cs),
(680,309,l),
(617,309,l),
(594,205,ls),
(570,91,o),
(534,44,o),
(469,44,cs),
(397,44,o),
(373,104,o),
(393,218,cs),
(439,479,ls),
(467,638,o),
(417,727,o),
(306,727,cs),
(204,727,o),
(145,656,o),
(112,504,cs),
(92,405,l),
(155,405,l),
(177,509,ls),
(202,623,o),
(238,670,o),
(302,670,cs),
(375,670,o),
(399,610,o),
(379,496,cs),
(332,234,ls),
(305,76,o),
(354,-13,o),
(466,-13,cs)
);
}
);
width = 723;
}
);
metricRight = "=|";
note = uni1510;
unicode = 5392;
},
{
glyphname = "shi-canadian";
kernLeft = coleft;
lastChange = "2023-01-13 15:30:11 +0000";
layers = (
{
anchors = (
{
name = top_left_can;
pos = (287,714);
},
{
name = top_right_can;
pos = (597,714);
}
);
layerId = "A0BEBE03-9AB7-4E04-894D-4F686A7231C4";
shapes = (
{
closed = 1;
nodes = (
(282,-13,o),
(337,45,o),
(382,220,cs),
(451,495,ls),
(486,632,o),
(519,670,o),
(585,670,cs),
(656,670,o),
(680,609,o),
(653,487,cs),
(636,405,l),
(699,405,l),
(714,473,ls),
(748,628,o),
(701,727,o),
(588,727,cs),
(487,727,o),
(434,669,o),
(390,494,cs),
(318,218,ls),
(283,83,o),
(251,44,o),
(184,44,cs),
(114,44,o),
(90,104,o),
(116,226,cs),
(134,309,l),
(71,309,l),
(56,241,ls),
(21,83,o),
(68,-13,o),
(181,-13,cs)
);
}
);
width = 722;
}
);
metricLeft = "she-canadian";
metricRight = "she-canadian";
note = uni1511;
unicode = 5393;
},
{
glyphname = "sho-canadian";
lastChange = "2023-01-13 15:28:16 +0000";
layers = (
{
anchors = (
{
name = top_center_can;
pos = (423,508);
},
{
name = top_left_can;
pos = (278,508);
},
{
name = top_right_can;
pos = (567,508);
}
);
layerId = "A0BEBE03-9AB7-4E04-894D-4F686A7231C4";
shapes = (
{
closed = 1;
nodes = (
(238,44,l),
(155,45,o),
(101,85,o),
(101,154,cs),
(101,226,o),
(143,297,o),
(224,297,cs),
(336,297,o),
(377,134,o),
(517,134,cs),
(632,134,o),
(697,231,o),
(697,335,cs),
(697,437,o),
(622,500,o),
(510,502,c),
(497,445,l),
(582,444,o),
(636,405,o),
(636,335,cs),
(636,263,o),
(594,192,o),
(514,192,cs),
(401,192,o),
(360,355,o),
(220,355,cs),
(103,355,o),
(40,256,o),
(40,154,cs),
(40,52,o),
(115,-11,o),
(225,-13,c)
);
}
);
width = 737;
}
);
metricLeft = "ke-canadian";
metricRight = "=|ke-canadian";
note = uni1513;
unicode = 5395;
},
{
glyphname = "sha-canadian";
lastChange = "2023-01-13 15:30:11 +0000";
layers = (
{
anchors = (
{
name = top_center_can;
pos = (426,508);
},
{
name = top_left_can;
pos = (280,508);
},
{
name = top_right_can;
pos = (571,508);
}
);
layerId = "A0BEBE03-9AB7-4E04-894D-4F686A7231C4";
shapes = (
{
closed = 1;
nodes = (
(569,-14,o),
(671,70,o),
(671,212,cs),
(671,297,o),
(618,355,o),
(537,355,cs),
(411,355,o),
(309,192,o),
(210,192,cs),
(160,192,o),
(130,227,o),
(130,281,cs),
(130,389,o),
(208,445,o),
(312,445,c),
(325,502,l),
(169,503,o),
(67,419,o),
(67,277,cs),
(67,192,o),
(119,134,o),
(200,134,cs),
(326,134,o),
(428,297,o),
(527,297,cs),
(577,297,o),
(608,262,o),
(608,208,cs),
(608,100,o),
(532,44,o),
(426,44,c),
(414,-13,l)
);
}
);
width = 738;
}
);
metricLeft = "ke-canadian";
metricRight = "=|ke-canadian";
note = uni1515;
unicode = 5397;
},
{
glyphname = "sh-canadian";
kernLeft = mwestleft;
kernRight = mwestright;
lastChange = "2023-01-13 15:30:11 +0000";
layers = (
{
layerId = "A0BEBE03-9AB7-4E04-894D-4F686A7231C4";
shapes = (
{
closed = 1;
nodes = (
(474,299,o),
(556,365,o),
(556,473,cs),
(556,537,o),
(515,582,o),
(446,582,cs),
(358,582,o),
(303,485,o),
(232,485,cs),
(188,485,o),
(164,511,o),
(164,552,cs),
(164,631,o),
(227,680,o),
(317,679,c),
(326,722,l),
(202,723,o),
(119,658,o),
(119,550,cs),
(119,485,o),
(160,440,o),
(229,440,cs),
(317,440,o),
(373,537,o),
(443,537,cs),
(487,537,o),
(511,511,o),
(511,471,cs),
(511,396,o),
(452,342,o),
(361,343,c),
(352,301,l)
);
}
);
width = 562;
}
);
metricLeft = "t-canadian";
metricRight = "=|";
note = uni1525;
unicode = 5413;
},
{
glyphname = "ye-canadian";
kernLeft = yeleft;
lastChange = "2023-01-13 15:28:16 +0000";
layers = (
{
anchors = (
{
name = middle_right_can;
pos = (493,357);
},
{
name = top_left_can;
pos = (175,714);
},
{
name = top_right_can;
pos = (455,714);
}
);
layerId = "A0BEBE03-9AB7-4E04-894D-4F686A7231C4";
shapes = (
{
closed = 1;
nodes = (
(335,0,l),
(403,321,l),
(133,321,l),
(136,300,l),
(491,688,l),
(446,726,l),
(51,290,l),
(46,264,l),
(328,264,l),
(271,0,l)
);
}
);
width = 448;
}
);
note = uni1526;
unicode = 5414;
},
{
glyphname = "yi-canadian";
kernRight = yiright;
lastChange = "2023-01-13 15:30:11 +0000";
layers = (
{
anchors = (
{
name = top_left_can;
pos = (194,714);
},
{
name = top_right_can;
pos = (476,714);
}
);
layerId = "A0BEBE03-9AB7-4E04-894D-4F686A7231C4";
shapes = (
{
closed = 1;
nodes = (
(73,0,l),
(129,264,l),
(411,264,l),
(416,290,l),
(195,726,l),
(143,698,l),
(345,302,l),
(348,321,l),
(78,321,l),
(9,0,l)
);
}
);
width = 448;
}
);
metricRight = "=|ye-canadian";
metricWidth = "ye-canadian";
note = uni1528;
unicode = 5416;
},
{
glyphname = "yo-canadian";
kernLeft = yoleft;
lastChange = "2023-01-13 15:28:16 +0000";
layers = (
{
anchors = (
{
name = middle_right_can;
pos = (493,357);
},
{
name = top_double;
pos = (456,714);
},
{
name = top_left_can;
pos = (173,714);
},
{
name = top_right_can;
pos = (456,714);
}
);
layerId = "A0BEBE03-9AB7-4E04-894D-4F686A7231C4";
shapes = (
{
closed = 1;
nodes = (
(353,16,l),
(150,412,l),
(148,393,l),
(418,393,l),
(487,714,l),
(423,714,l),
(367,450,l),
(85,450,l),
(80,424,l),
(300,-12,l)
);
}
);
width = 448;
}
);
metricLeft = "ye-canadian";
metricWidth = "ye-canadian";
note = uni152A;
unicode = 5418;
},
{
glyphname = "ya-canadian";
kernRight = yaright;
lastChange = "2023-01-13 15:30:11 +0000";
layers = (
{
anchors = (
{
name = top_left_can;
pos = (194,714);
},
{
name = top_right_can;
pos = (476,714);
}
);
layerId = "A0BEBE03-9AB7-4E04-894D-4F686A7231C4";
shapes = (
{
closed = 1;
nodes = (
(445,424,l),
(451,450,l),
(169,450,l),
(225,714,l),
(162,714,l),
(93,393,l),
(364,393,l),
(360,414,l),
(6,26,l),
(50,-12,l)
);
}
);
width = 448;
}
);
metricRight = "=|ye-canadian";
metricWidth = "ye-canadian";
note = uni152D;
unicode = 5421;
},
{
glyphname = "y-canadian";
kernLeft = mwestleft;
kernRight = mwestright;
lastChange = "2023-01-13 15:28:16 +0000";
layers = (
{
layerId = "A0BEBE03-9AB7-4E04-894D-4F686A7231C4";
shapes = (
{
closed = 1;
nodes = (
(307,565,l),
(311,582,l),
(173,582,l),
(201,714,l),
(156,714,l),
(120,542,l),
(257,542,l),
(255,569,l),
(80,375,l),
(112,348,l)
);
}
);
width = 268;
}
);
note = uni153E;
unicode = 5438;
},
{
glyphname = "biblecreey-canadian";
lastChange = "2023-01-13 15:30:11 +0000";
layers = (
{
layerId = "A0BEBE03-9AB7-4E04-894D-4F686A7231C4";
shapes = (
{
closed = 1;
nodes = (
(109,357,l),
(227,661,l),
(201,662,l),
(213,357,l),
(239,357,l),
(379,661,l),
(354,661,l),
(342,357,l),
(382,357,l),
(385,370,l),
(397,714,l),
(363,714,l),
(220,406,l),
(249,406,l),
(237,714,l),
(204,714,l),
(69,370,l),
(66,357,l)
);
}
);
width = 400;
}
);
metricRight = "=|";
note = uni153F;
unicode = 5439;
},
{
glyphname = "yWestCree-canadian";
lastChange = "2023-01-13 15:30:11 +0000";
layers = (
{
layerId = "A0BEBE03-9AB7-4E04-894D-4F686A7231C4";
shapes = (
{
closed = 1;
nodes = (
(195,220,l),
(221,346,l),
(325,346,l),
(335,390,l),
(231,390,l),
(257,513,l),
(215,513,l),
(189,390,l),
(85,390,l),
(75,346,l),
(179,346,l),
(153,220,l)
);
}
);
width = 357;
}
);
metricLeft = "shorthorizontalstrokeFinal-canadian";
metricRight = "shorthorizontalstrokeFinal-canadian";
note = uni1540;
unicode = 5440;
},
{
glyphname = "re-canadian";
kernRight = niright;
lastChange = "2023-01-13 15:28:16 +0000";
layers = (
{
anchors = (
{
name = top_center_can;
pos = (293,508);
},
{
name = top_left_can;
pos = (151,508);
},
{
name = top_right_can;
pos = (645,508);
}
);
layerId = "A0BEBE03-9AB7-4E04-894D-4F686A7231C4";
shapes = (
{
closed = 1;
nodes = (
(306,-13,o),
(370,51,o),
(401,199,cs),
(451,431,l),
(660,431,l),
(672,489,l),
(401,489,l),
(338,195,ls),
(315,88,o),
(274,44,o),
(205,44,cs),
(128,44,o),
(97,101,o),
(118,203,cs),
(179,489,l),
(116,489,l),
(57,214,ls),
(27,75,o),
(82,-13,o),
(202,-13,cs)
);
}
);
width = 671;
}
);
metricRight = "=|ne-canadian";
note = uni1542;
unicode = 5442;
},
{
glyphname = "reRCree-canadian";
kernLeft = neleft;
lastChange = "2023-01-13 15:28:16 +0000";
layers = (
{
anchors = (
{
name = top_center_can;
pos = (489,508);
},
{
name = top_left_can;
pos = (139,508);
},
{
name = top_right_can;
pos = (631,508);
}
);
layerId = "A0BEBE03-9AB7-4E04-894D-4F686A7231C4";
shapes = (
{
closed = 1;
nodes = (
(502,-13,o),
(566,51,o),
(597,199,cs),
(660,489,l),
(596,489,l),
(533,195,ls),
(510,88,o),
(469,44,o),
(400,44,cs),
(323,44,o),
(292,101,o),
(313,203,cs),
(374,489,l),
(103,489,l),
(91,431,l),
(300,431,l),
(253,214,ls),
(224,76,o),
(278,-13,o),
(398,-13,cs)
);
}
);
width = 671;
}
);
metricLeft = "ne-canadian";
metricRight = "=|re-canadian";
note = uni1543;
unicode = 5443;
},
{
glyphname = "leWestCree-canadian";
kernLeft = noleft;
lastChange = "2023-01-13 15:28:16 +0000";
layers = (
{
anchors = (
{
name = top_center_can;
pos = (489,508);
},
{
name = top_left_can;
pos = (138,508);
},
{
name = top_right_can;
pos = (632,508);
}
);
layerId = "A0BEBE03-9AB7-4E04-894D-4F686A7231C4";
shapes = (
{
closed = 1;
nodes = (
(271,0,l),
(333,294,ls),
(356,401,o),
(398,445,o),
(467,445,cs),
(544,445,o),
(575,388,o),
(553,286,cs),
(492,0,l),
(556,0,l),
(614,275,ls),
(644,414,o),
(589,502,o),
(469,502,cs),
(366,502,o),
(302,438,o),
(270,290,cs),
(221,59,l),
(12,59,l),
(-1,0,l)
);
}
);
width = 671;
}
);
metricLeft = "ne-canadian";
metricRight = "=|re-canadian";
note = uni1544;
unicode = 5444;
},
{
glyphname = "ri-canadian";
kernRight = naright;
lastChange = "2023-01-13 15:30:11 +0000";
layers = (
{
anchors = (
{
name = top_center_can;
pos = (292,508);
},
{
name = top_left_can;
pos = (150,508);
},
{
name = top_right_can;
pos = (643,508);
}
);
layerId = "A0BEBE03-9AB7-4E04-894D-4F686A7231C4";
shapes = (
{
closed = 1;
nodes = (
(75,0,l),
(137,294,ls),
(160,401,o),
(202,445,o),
(272,445,cs),
(348,445,o),
(379,388,o),
(357,286,cs),
(296,0,l),
(567,0,l),
(580,59,l),
(371,59,l),
(417,275,ls),
(447,414,o),
(392,502,o),
(276,502,cs),
(168,502,o),
(104,438,o),
(73,290,cs),
(11,0,l)
);
}
);
width = 670;
}
);
metricLeft = "re-canadian";
metricRight = "=|ne-canadian";
note = uni1546;
unicode = 5446;
},
{
glyphname = "ro-canadian";
lastChange = "2023-01-13 15:28:16 +0000";
layers = (
{
anchors = (
{
name = top_center_can;
pos = (286,714);
}
);
layerId = "A0BEBE03-9AB7-4E04-894D-4F686A7231C4";
shapes = (
{
closed = 1;
nodes = (
(77,0,l),
(139,292,l),
(109,265,l),
(179,265,ls),
(371,265,o),
(430,422,o),
(430,540,cs),
(430,648,o),
(368,714,o),
(258,714,cs),
(167,714,l),
(155,656,l),
(247,656,ls),
(326,656,o),
(367,615,o),
(367,537,cs),
(367,441,o),
(321,322,o),
(176,322,cs),
(81,322,l),
(13,0,l)
);
}
);
width = 424;
}
);
metricLeft = "nunavuth-canadian";
note = uni1548;
unicode = 5448;
},
{
glyphname = "loWestCree-canadian";
lastChange = "2023-01-13 15:30:11 +0000";
layers = (
{
anchors = (
{
name = top_center_can;
pos = (304,714);
},
{
name = top_left_can;
pos = (198,714);
}
);
layerId = "A0BEBE03-9AB7-4E04-894D-4F686A7231C4";
shapes = (
{
closed = 1;
nodes = (
(124,0,ls),
(317,0,o),
(376,157,o),
(376,275,cs),
(376,383,o),
(313,449,o),
(204,449,cs),
(145,449,l),
(167,421,l),
(229,714,l),
(166,714,l),
(97,393,l),
(192,393,ls),
(271,393,o),
(313,351,o),
(313,274,cs),
(313,178,o),
(267,58,o),
(121,58,cs),
(26,58,l),
(14,0,l)
);
}
);
width = 427;
}
);
metricLeft = "nunavuth-canadian";
metricRight = "ro-canadian";
note = uni154A;
unicode = 5450;
},
{
glyphname = "ra-canadian";
lastChange = "2023-01-13 15:30:11 +0000";
layers = (
{
anchors = (
{
name = top_center_can;
pos = (338,714);
},
{
name = top_right_can;
pos = (428,714);
}
);
layerId = "A0BEBE03-9AB7-4E04-894D-4F686A7231C4";
shapes = (
{
closed = 1;
nodes = (
(308,0,l),
(376,321,l),
(281,321,ls),
(202,321,o),
(161,363,o),
(161,440,cs),
(161,536,o),
(207,656,o),
(353,656,cs),
(448,656,l),
(460,714,l),
(350,714,ls),
(157,714,o),
(98,557,o),
(98,439,cs),
(98,331,o),
(161,265,o),
(270,265,cs),
(329,265,l),
(307,293,l),
(244,0,l)
);
}
);
width = 426;
}
);
metricLeft = "=|ro-canadian";
metricRight = "nunavuth-canadian";
note = uni154B;
unicode = 5451;
},
{
glyphname = "laWestCree-canadian";
lastChange = "2023-01-13 15:30:11 +0000";
layers = (
{
anchors = (
{
name = top_center_can;
pos = (429,714);
}
);
layerId = "A0BEBE03-9AB7-4E04-894D-4F686A7231C4";
shapes = (
{
closed = 1;
nodes = (
(306,0,l),
(319,58,l),
(226,58,ls),
(147,58,o),
(105,99,o),
(105,177,cs),
(105,273,o),
(151,392,o),
(297,392,cs),
(392,392,l),
(461,714,l),
(397,714,l),
(335,422,l),
(365,449,l),
(294,449,ls),
(101,449,o),
(42,292,o),
(42,174,cs),
(42,66,o),
(105,0,o),
(214,0,cs)
);
}
);
width = 426;
}
);
metricLeft = "=|ro-canadian";
metricRight = "nunavuth-canadian";
note = uni154D;
unicode = 5453;
},
{
glyphname = "r-canadian";
kernLeft = mwestleft;
kernRight = mwestright;
lastChange = "2023-01-13 15:30:11 +0000";
layers = (
{
layerId = "A0BEBE03-9AB7-4E04-894D-4F686A7231C4";
shapes = (
{
closed = 1;
nodes = (
(223,357,l),
(258,525,l),
(220,525,ls),
(180,525,o),
(160,546,o),
(160,582,cs),
(160,622,o),
(177,675,o),
(252,675,cs),
(290,675,l),
(298,714,l),
(260,714,ls),
(161,714,o),
(117,656,o),
(117,581,cs),
(117,525,o),
(152,487,o),
(213,487,cs),
(234,487,l),
(208,502,l),
(177,357,l)
);
}
);
width = 251;
}
);
metricLeft = "=|k-canadian";
note = uni1550;
unicode = 5456;
},
{
glyphname = "rWestCree-canadian";
kernLeft = mwestleft;
kernRight = mwestright;
lastChange = "2023-01-13 15:30:11 +0000";
layers = (
{
layerId = "A0BEBE03-9AB7-4E04-894D-4F686A7231C4";
shapes = (
{
closed = 1;
nodes = (
(152,714,l),
(146,685,l),
(283,605,l),
(288,629,l),
(117,549,l),
(112,526,l),
(251,451,l),
(256,473,l),
(84,392,l),
(76,357,l),
(86,357,l),
(282,448,l),
(286,468,l),
(146,544,l),
(143,525,l),
(315,603,l),
(319,623,l),
(162,714,l)
);
}
);
width = 291;
}
);
metricLeft = "=|lWestCree-canadian";
metricRight = "=|lWestCree-canadian";
note = uni1551;
unicode = 5457;
},
{
glyphname = "rMedial-canadian";
lastChange = "2023-01-13 15:30:11 +0000";
layers = (
{
layerId = "A0BEBE03-9AB7-4E04-894D-4F686A7231C4";
shapes = (
{
closed = 1;
nodes = (
(24,-13,l),
(432,175,l),
(439,206,l),
(140,367,l),
(135,345,l),
(503,508,l),
(509,539,l),
(180,727,l),
(163,727,l),
(153,684,l),
(449,515,l),
(456,543,l),
(88,377,l),
(82,344,l),
(380,186,l),
(386,210,l),
(17,40,l),
(6,-13,l)
);
}
);
width = 507;
}
);
metricLeft = "mediall-canadian";
metricRight = "mediall-canadian";
note = uni1552;
unicode = 5458;
},
{
glyphname = "fe-canadian";
kernLeft = ecanleft;
kernRight = ecanright;
lastChange = "2023-01-13 15:28:16 +0000";
layers = (
{
layerId = "A0BEBE03-9AB7-4E04-894D-4F686A7231C4";
shapes = (
{
closed = 1;
nodes = (
(253,0,l),
(665,694,l),
(669,714,l),
(616,714,l),
(244,72,l),
(260,72,l),
(207,377,l),
(181,371,l),
(195,348,o),
(218,336,o),
(252,336,cs),
(370,336,o),
(413,510,o),
(413,591,cs),
(413,673,o),
(377,727,o),
(308,727,cs),
(190,727,o),
(145,567,o),
(145,461,cs),
(145,432,o),
(148,404,o),
(154,374,cs),
(228,0,l)
);
},
{
closed = 1;
nodes = (
(214,379,o),
(194,410,o),
(194,465,cs),
(194,531,o),
(224,679,o),
(305,679,cs),
(344,679,o),
(364,648,o),
(364,592,cs),
(364,526,o),
(335,379,o),
(253,379,cs)
);
}
);
width = 597;
}
);
metricRight = "e-canadian";
note = uni1553;
unicode = 5459;
},
{
glyphname = "fi-canadian";
kernLeft = icanleft;
kernRight = icanright;
lastChange = "2023-01-13 15:28:16 +0000";
layers = (
{
anchors = (
{
name = top_center_can;
pos = (391,714);
},
{
name = top_left_can;
pos = (213,714);
},
{
name = top_right_can;
pos = (594,714);
}
);
layerId = "A0BEBE03-9AB7-4E04-894D-4F686A7231C4";
shapes = (
{
closed = 1;
nodes = (
(299,-13,o),
(339,152,o),
(339,240,cs),
(339,326,o),
(302,379,o),
(239,379,cs),
(216,379,o),
(189,368,o),
(166,344,c),
(200,346,l),
(386,642,l),
(370,642,l),
(473,0,l),
(517,0,l),
(521,20,l),
(403,714,l),
(378,714,l),
(142,347,ls),
(100,282,o),
(71,203,o),
(71,120,cs),
(71,38,o),
(109,-13,o),
(176,-13,cs)
);
},
{
closed = 1;
nodes = (
(141,35,o),
(121,66,o),
(121,122,cs),
(121,188,o),
(151,335,o),
(232,335,cs),
(273,335,o),
(289,302,o),
(289,243,cs),
(289,175,o),
(259,35,o),
(180,35,cs)
);
}
);
width = 597;
}
);
metricLeft = "fe-canadian";
metricRight = "e-canadian";
note = uni1555;
unicode = 5461;
},
{
glyphname = "fo-canadian";
kernLeft = ocanleft;
kernRight = ocanright;
lastChange = "2023-01-13 15:28:16 +0000";
layers = (
{
anchors = (
{
name = top_center_can;
pos = (274,714);
}
);
layerId = "A0BEBE03-9AB7-4E04-894D-4F686A7231C4";
shapes = (
{
closed = 1;
nodes = (
(40,0,l),
(527,344,l),
(533,370,l),
(358,670,ls),
(339,702,o),
(314,727,o),
(267,727,cs),
(158,727,o),
(110,579,o),
(104,486,cs),
(97,392,o),
(136,332,o),
(205,332,cs),
(308,332,o),
(359,473,o),
(365,565,cs),
(367,598,o),
(363,627,o),
(359,647,c),
(336,609,l),
(487,352,l),
(493,381,l),
(35,58,l),
(22,0,l)
);
},
{
closed = 1;
nodes = (
(170,380,o),
(151,415,o),
(154,480,cs),
(157,552,o),
(186,680,o),
(263,680,cs),
(304,680,o),
(323,645,o),
(320,579,cs),
(317,508,o),
(289,380,o),
(211,380,cs)
);
}
);
width = 538;
}
);
metricRight = "o-canadian";
note = uni1557;
unicode = 5463;
},
{
glyphname = "fa-canadian";
kernLeft = acanleft;
kernRight = acanright;
lastChange = "2023-01-13 15:30:11 +0000";
layers = (
{
anchors = (
{
name = top_center_can;
pos = (464,714);
}
);
layerId = "A0BEBE03-9AB7-4E04-894D-4F686A7231C4";
shapes = (
{
closed = 1;
nodes = (
(412,0,l),
(422,48,l),
(106,367,l),
(102,346,l),
(358,609,l),
(343,654,l),
(303,589,o),
(289,516,o),
(289,466,cs),
(289,382,o),
(328,331,o),
(396,331,cs),
(510,331,o),
(557,499,o),
(557,589,cs),
(557,678,o),
(516,727,o),
(454,727,cs),
(417,727,o),
(385,711,o),
(353,677,cs),
(58,370,l),
(53,344,l),
(394,0,l)
);
},
{
closed = 1;
nodes = (
(357,379,o),
(337,409,o),
(337,465,cs),
(337,531,o),
(366,679,o),
(448,679,cs),
(487,679,o),
(507,648,o),
(507,593,cs),
(507,527,o),
(478,379,o),
(396,379,cs)
);
}
);
width = 540;
}
);
metricRight = "=|fo-canadian";
note = uni1559;
unicode = 5465;
},
{
glyphname = "f-canadian";
kernLeft = mwestleft;
kernRight = mwestright;
lastChange = "2023-01-13 15:28:16 +0000";
layers = (
{
layerId = "A0BEBE03-9AB7-4E04-894D-4F686A7231C4";
shapes = (
{
closed = 1;
nodes = (
(281,357,l),
(287,389,l),
(137,542,l),
(137,533,l),
(254,653,l),
(252,686,l),
(235,660,o),
(222,617,o),
(222,587,cs),
(222,548,o),
(242,522,o),
(274,522,cs),
(331,522,o),
(353,605,o),
(353,653,cs),
(353,695,o),
(336,720,o),
(303,720,cs),
(285,720,o),
(270,713,o),
(252,695,cs),
(105,544,l),
(101,527,l),
(271,357,l)
);
},
{
closed = 1;
nodes = (
(258,550,o),
(250,564,o),
(250,588,cs),
(250,614,o),
(261,692,o),
(299,692,cs),
(315,692,o),
(324,679,o),
(324,655,cs),
(324,629,o),
(312,550,o),
(275,550,cs)
);
}
);
width = 319;
}
);
note = uni155D;
unicode = 5469;
},
{
glyphname = "the-canadian";
lastChange = "2023-01-13 15:28:16 +0000";
layers = (
{
anchors = (
{
name = middle_right_can;
pos = (626,357);
},
{
name = top_center_can;
pos = (385,714);
},
{
name = top_left_can;
pos = (192,714);
},
{
name = top_right_can;
pos = (577,714);
}
);
layerId = "A0BEBE03-9AB7-4E04-894D-4F686A7231C4";
shapes = (
{
closed = 1;
nodes = (
(392,-13,o),
(470,60,o),
(504,220,cs),
(610,714,l),
(546,714,l),
(443,227,ls),
(416,103,o),
(359,47,o),
(262,47,cs),
(118,47,o),
(102,142,o),
(126,257,cs),
(169,454,l),
(137,441,l),
(135,387,o),
(162,331,o),
(222,331,cs),
(335,331,o),
(379,484,o),
(387,573,cs),
(394,667,o),
(357,727,o),
(282,727,cs),
(203,727,o),
(149,659,o),
(123,536,cs),
(65,259,ls),
(33,106,o),
(81,-13,o),
(259,-13,cs)
);
},
{
closed = 1;
nodes = (
(188,380,o),
(168,410,o),
(168,466,cs),
(168,532,o),
(197,679,o),
(279,679,cs),
(317,679,o),
(337,648,o),
(337,593,cs),
(337,527,o),
(308,380,o),
(227,380,cs)
);
}
);
width = 571;
}
);
metricLeft = "te-canadian";
metricRight = "te-canadian";
note = uni155E;
unicode = 5470;
},
{
glyphname = "theNCree-canadian";
lastChange = "2023-01-13 15:28:16 +0000";
layers = (
{
layerId = "A0BEBE03-9AB7-4E04-894D-4F686A7231C4";
shapes = (
{
closed = 1;
nodes = (
(393,-13,o),
(470,62,o),
(506,227,cs),
(567,514,ls),
(597,653,o),
(549,727,o),
(473,727,cs),
(355,727,o),
(310,567,o),
(310,466,cs),
(310,386,o),
(349,331,o),
(414,331,cs),
(459,331,o),
(502,366,o),
(523,421,c),
(488,438,l),
(445,234,ls),
(417,102,o),
(362,46,o),
(261,46,cs),
(140,46,o),
(97,114,o),
(126,250,cs),
(225,714,l),
(161,714,l),
(63,253,ls),
(28,85,o),
(99,-13,o),
(258,-13,cs)
);
},
{
closed = 1;
nodes = (
(380,380,o),
(360,410,o),
(360,466,cs),
(360,532,o),
(389,679,o),
(469,679,cs),
(506,679,o),
(526,648,o),
(526,593,cs),
(526,527,o),
(497,380,o),
(417,380,cs)
);
}
);
width = 571;
}
);
metricLeft = "te-canadian";
metricRight = "te-canadian";
note = uni155F;
unicode = 5471;
},
{
glyphname = "thi-canadian";
lastChange = "2023-01-13 15:28:16 +0000";
layers = (
{
anchors = (
{
name = top_center_can;
pos = (383,714);
}
);
layerId = "A0BEBE03-9AB7-4E04-894D-4F686A7231C4";
shapes = (
{
closed = 1;
nodes = (
(263,-13,o),
(308,147,o),
(308,248,cs),
(308,328,o),
(270,383,o),
(205,383,cs),
(160,383,o),
(117,348,o),
(96,293,c),
(130,276,l),
(174,480,ls),
(202,612,o),
(257,668,o),
(358,668,cs),
(479,668,o),
(522,600,o),
(493,464,cs),
(394,0,l),
(458,0,l),
(555,461,ls),
(591,629,o),
(520,727,o),
(361,727,cs),
(226,727,o),
(149,652,o),
(113,487,cs),
(52,200,ls),
(22,61,o),
(70,-13,o),
(146,-13,cs)
);
},
{
closed = 1;
nodes = (
(112,35,o),
(93,66,o),
(93,121,cs),
(93,187,o),
(121,334,o),
(201,334,cs),
(239,334,o),
(259,304,o),
(259,248,cs),
(259,182,o),
(230,35,o),
(149,35,cs)
);
}
);
width = 571;
}
);
metricLeft = "te-canadian";
metricRight = "te-canadian";
note = uni1560;
unicode = 5472;
},
{
glyphname = "thiNCree-canadian";
lastChange = "2023-01-13 15:28:16 +0000";
layers = (
{
anchors = (
{
name = top_center_can;
pos = (383,714);
}
);
layerId = "A0BEBE03-9AB7-4E04-894D-4F686A7231C4";
shapes = (
{
closed = 1;
nodes = (
(415,-13,o),
(470,55,o),
(496,178,cs),
(554,455,ls),
(586,608,o),
(538,727,o),
(360,727,cs),
(227,727,o),
(148,654,o),
(114,494,cs),
(9,0,l),
(73,0,l),
(176,487,ls),
(203,611,o),
(260,667,o),
(357,667,cs),
(501,667,o),
(517,572,o),
(493,457,cs),
(450,260,l),
(481,273,l),
(483,327,o),
(457,383,o),
(397,383,cs),
(283,383,o),
(240,230,o),
(232,141,cs),
(225,47,o),
(262,-13,o),
(337,-13,cs)
);
},
{
closed = 1;
nodes = (
(301,35,o),
(282,66,o),
(282,121,cs),
(282,187,o),
(311,334,o),
(392,334,cs),
(431,334,o),
(451,304,o),
(451,248,cs),
(451,182,o),
(422,35,o),
(340,35,cs)
);
}
);
width = 571;
}
);
metricLeft = "te-canadian";
metricRight = "te-canadian";
note = uni1561;
unicode = 5473;
},
{
glyphname = "tho-canadian";
lastChange = "2023-01-13 15:28:16 +0000";
layers = (
{
anchors = (
{
name = top_center_can;
pos = (343,714);
}
);
layerId = "A0BEBE03-9AB7-4E04-894D-4F686A7231C4";
shapes = (
{
closed = 1;
nodes = (
(158,0,ls),
(438,0,o),
(510,312,o),
(510,477,cs),
(510,631,o),
(445,727,o),
(327,727,cs),
(168,727,o),
(110,559,o),
(110,444,cs),
(110,359,o),
(147,306,o),
(212,306,cs),
(329,306,o),
(369,471,o),
(369,560,cs),
(369,634,o),
(341,682,o),
(287,689,c),
(274,671,l),
(276,678,o),
(292,683,o),
(317,683,cs),
(405,683,o),
(450,613,o),
(450,490,cs),
(450,361,o),
(400,59,o),
(161,59,cs),
(48,59,l),
(35,0,l)
);
},
{
closed = 1;
nodes = (
(181,353,o),
(161,384,o),
(161,440,cs),
(161,499,o),
(189,659,o),
(269,659,cs),
(307,659,o),
(327,627,o),
(327,572,cs),
(327,515,o),
(300,353,o),
(219,353,cs)
);
}
);
width = 525;
}
);
metricRight = "to-canadian";
note = uni1564;
unicode = 5476;
},
{
glyphname = "tha-canadian";
lastChange = "2023-01-13 15:30:12 +0000";
layers = (
{
anchors = (
{
name = top_center_can;
pos = (385,714);
}
);
layerId = "A0BEBE03-9AB7-4E04-894D-4F686A7231C4";
shapes = (
{
closed = 1;
nodes = (
(387,0,l),
(399,59,l),
(296,59,ls),
(184,59,o),
(125,122,o),
(125,246,cs),
(125,383,o),
(197,684,o),
(371,684,cs),
(399,684,o),
(425,675,o),
(442,658,c),
(418,687,l),
(304,697,o),
(263,527,o),
(263,441,cs),
(263,358,o),
(299,306,o),
(363,306,cs),
(472,306,o),
(524,457,o),
(524,557,cs),
(524,664,o),
(466,726,o),
(369,726,cs),
(152,726,o),
(63,413,o),
(63,246,cs),
(63,90,o),
(144,0,o),
(284,0,cs)
);
},
{
closed = 1;
nodes = (
(328,353,o),
(308,384,o),
(308,440,cs),
(308,499,o),
(336,659,o),
(417,659,cs),
(454,659,o),
(474,627,o),
(474,572,cs),
(474,515,o),
(447,353,o),
(366,353,cs)
);
}
);
width = 524;
}
);
metricLeft = "=|theCarrier-canadian";
metricRight = "=|tho-canadian";
note = uni1566;
unicode = 5478;
},
{
glyphname = "th-canadian";
kernLeft = mwestleft;
kernRight = mwestright;
lastChange = "2023-01-13 15:28:16 +0000";
layers = (
{
layerId = "A0BEBE03-9AB7-4E04-894D-4F686A7231C4";
shapes = (
{
closed = 1;
nodes = (
(271,357,l),
(279,397,l),
(229,397,ls),
(175,397,o),
(147,426,o),
(147,485,cs),
(147,548,o),
(182,689,o),
(265,689,cs),
(277,689,o),
(288,686,o),
(299,679,c),
(283,696,l),
(225,698,o),
(206,611,o),
(206,573,cs),
(206,534,o),
(225,509,o),
(257,509,cs),
(319,509,o),
(339,599,o),
(339,640,cs),
(339,691,o),
(313,720,o),
(263,720,cs),
(150,720,o),
(107,562,o),
(107,485,cs),
(107,405,o),
(149,357,o),
(221,357,cs)
);
},
{
closed = 1;
nodes = (
(241,536,o),
(232,548,o),
(232,572,cs),
(232,601,o),
(244,678,o),
(284,678,cs),
(301,678,o),
(310,666,o),
(310,642,cs),
(310,613,o),
(297,536,o),
(257,536,cs)
);
}
);
width = 306;
}
);
metricLeft = "t-canadian";
note = uni156A;
unicode = 5482;
},
{
glyphname = "tthe-canadian";
lastChange = "2023-01-13 15:30:11 +0000";
layers = (
{
anchors = (
{
name = middle_right_can;
pos = (619,357);
},
{
name = top_center_can;
pos = (381,714);
},
{
name = top_left_can;
pos = (194,714);
},
{
name = top_right_can;
pos = (570,714);
}
);
layerId = "A0BEBE03-9AB7-4E04-894D-4F686A7231C4";
shapes = (
{
closed = 1;
nodes = (
(385,-13,o),
(464,62,o),
(497,219,cs),
(602,714,l),
(543,714,l),
(440,227,ls),
(413,102,o),
(357,47,o),
(259,47,cs),
(137,47,o),
(93,114,o),
(122,250,cs),
(221,714,l),
(161,714,l),
(63,253,ls),
(28,85,o),
(99,-13,o),
(256,-13,cs)
);
},
{
closed = 1;
nodes = (
(340,405,l),
(406,714,l),
(357,714,l),
(291,405,l)
);
}
);
width = 563;
}
);
metricLeft = "te-canadian";
metricRight = "te-canadian";
note = uni156B;
unicode = 5483;
},
{
glyphname = "tthi-canadian";
lastChange = "2023-01-13 15:30:11 +0000";
layers = (
{
layerId = "A0BEBE03-9AB7-4E04-894D-4F686A7231C4";
shapes = (
{
closed = 1;
nodes = (
(69,0,l),
(172,487,ls),
(199,612,o),
(255,667,o),
(352,667,cs),
(475,667,o),
(519,600,o),
(490,464,cs),
(391,0,l),
(450,0,l),
(548,461,ls),
(584,629,o),
(513,727,o),
(356,727,cs),
(227,727,o),
(148,652,o),
(115,495,cs),
(9,0,l)
);
},
{
closed = 1;
nodes = (
(255,0,l),
(320,309,l),
(272,309,l),
(206,0,l)
);
}
);
width = 563;
}
);
metricLeft = "te-canadian";
metricRight = "te-canadian";
note = uni156C;
unicode = 5484;
},
{
glyphname = "ttho-canadian";
lastChange = "2023-01-13 15:28:16 +0000";
layers = (
{
anchors = (
{
name = top_center_can;
pos = (329,714);
},
{
name = top_left_can;
pos = (192,714);
},
{
name = top_right_can;
pos = (509,714);
}
);
layerId = "A0BEBE03-9AB7-4E04-894D-4F686A7231C4";
shapes = (
{
closed = 1;
nodes = (
(112,0,ls),
(402,0,o),
(475,305,o),
(475,474,cs),
(475,633,o),
(392,714,o),
(236,714,cs),
(164,714,l),
(152,655,l),
(224,655,ls),
(350,655,o),
(411,597,o),
(411,473,cs),
(411,336,o),
(353,59,o),
(115,59,cs),
(25,59,l),
(13,0,l)
);
},
{
closed = 1;
nodes = (
(260,330,l),
(271,384,l),
(94,384,l),
(83,330,l)
);
}
);
width = 490;
}
);
metricRight = "to-canadian";
note = uni156D;
unicode = 5485;
},
{
glyphname = "ttha-canadian";
lastChange = "2023-01-13 15:28:16 +0000";
layers = (
{
anchors = (
{
name = top_center_can;
pos = (347,714);
},
{
name = top_left_can;
pos = (180,714);
},
{
name = top_right_can;
pos = (491,714);
}
);
layerId = "A0BEBE03-9AB7-4E04-894D-4F686A7231C4";
shapes = (
{
closed = 1;
nodes = (
(374,0,l),
(386,59,l),
(311,59,ls),
(185,59,o),
(127,117,o),
(127,241,cs),
(127,382,o),
(185,655,o),
(420,655,cs),
(513,655,l),
(526,714,l),
(423,714,ls),
(137,714,o),
(63,413,o),
(63,239,cs),
(63,81,o),
(143.004,0,o),
(299,0,cs)
);
},
{
closed = 1;
nodes = (
(440,330,l),
(452,384,l),
(276,384,l),
(264,330,l)
);
}
);
width = 490;
}
);
metricLeft = "=|to-canadian";
metricRight = "=|ttho-canadian";
note = uni156E;
unicode = 5486;
},
{
glyphname = "tth-canadian";
lastChange = "2023-01-13 15:30:11 +0000";
layers = (
{
layerId = "A0BEBE03-9AB7-4E04-894D-4F686A7231C4";
shapes = (
{
closed = 1;
nodes = (
(242,523,l),
(227,523,l),
(286,402,l),
(322,419,l),
(260,545,l),
(253,530,l),
(381,584,l),
(368,619,l),
(246,567,l),
(260,561,l),
(293,714,l),
(253,714,l),
(219,560,l),
(237,566,l),
(131,619,l),
(115,584,l),
(217,533,l),
(215,548,l),
(105,427,l),
(134,402,l)
);
},
{
closed = 1;
nodes = (
(559,523,l),
(544,523,l),
(603,402,l),
(638,419,l),
(577,545,l),
(570,530,l),
(698,584,l),
(684,618,l),
(562,567,l),
(577,561,l),
(610,714,l),
(570,714,l),
(536,560,l),
(554,566,l),
(448,620,l),
(431,585,l),
(534,533,l),
(531,548,l),
(422,427,l),
(450,402,l)
);
}
);
width = 669;
}
);
metricRight = "=|";
note = uni156F;
unicode = 5487;
},
{
glyphname = "tye-canadian";
lastChange = "2023-01-13 15:30:11 +0000";
layers = (
{
layerId = "A0BEBE03-9AB7-4E04-894D-4F686A7231C4";
shapes = (
{
closed = 1;
nodes = (
(385,-13,o),
(464,62,o),
(497,219,cs),
(602,714,l),
(543,714,l),
(439,227,ls),
(413,102,o),
(357,47,o),
(259,47,cs),
(137,47,o),
(93,114,o),
(122,250,cs),
(221,714,l),
(161,714,l),
(63,253,ls),
(28,85,o),
(99,-13,o),
(256,-13,cs)
);
},
{
closed = 1;
nodes = (
(386,426,o),
(417,459,o),
(434,536,cs),
(472,714,l),
(438,714,l),
(402,542,ls),
(390,484,o),
(369,461,o),
(329,461,cs),
(290,461,o),
(277,483,o),
(288,536,cs),
(325,714,l),
(292,714,l),
(254,533,ls),
(239,465,o),
(267,426,o),
(329,426,cs)
);
}
);
width = 563;
}
);
metricLeft = "te-canadian";
metricRight = "te-canadian";
note = uni1570;
unicode = 5488;
},
{
glyphname = "tyi-canadian";
lastChange = "2023-01-13 15:30:11 +0000";
layers = (
{
layerId = "A0BEBE03-9AB7-4E04-894D-4F686A7231C4";
shapes = (
{
closed = 1;
nodes = (
(69,0,l),
(172,487,ls),
(199,612,o),
(255,667,o),
(352,667,cs),
(475,667,o),
(519,600,o),
(490,464,cs),
(391,0,l),
(450,0,l),
(548,461,ls),
(584,629,o),
(513,727,o),
(356,727,cs),
(227,727,o),
(148,652,o),
(114,495,cs),
(9,0,l)
);
},
{
closed = 1;
nodes = (
(173,0,l),
(210,172,ls),
(222,230,o),
(243,253,o),
(283,253,cs),
(322,253,o),
(335,231,o),
(324,178,cs),
(286,0,l),
(320,0,l),
(358,181,ls),
(372,249,o),
(345,288,o),
(283,288,cs),
(226,288,o),
(195,255,o),
(178,178,cs),
(140,0,l)
);
}
);
width = 563;
}
);
metricLeft = "te-canadian";
metricRight = "te-canadian";
note = uni1571;
unicode = 5489;
},
{
glyphname = "tyo-canadian";
lastChange = "2023-01-13 15:30:12 +0000";
layers = (
{
layerId = "A0BEBE03-9AB7-4E04-894D-4F686A7231C4";
shapes = (
{
closed = 1;
nodes = (
(110,0,ls),
(402,0,o),
(476,305,o),
(476,474,cs),
(476,633,o),
(391,714,o),
(234,714,cs),
(166,714,l),
(154,656,l),
(222,656,ls),
(349,656,o),
(413,597,o),
(413,473,cs),
(413,315,o),
(333,58,o),
(112,58,cs),
(26,58,l),
(14,0,l)
);
},
{
closed = 1;
nodes = (
(105,217,ls),
(228,217,o),
(262,304,o),
(266,379,cs),
(271,455,o),
(231,497,o),
(162,497,cs),
(119,497,l),
(111,459,l),
(154,459,ls),
(204,459,o),
(229,432,o),
(228,382,cs),
(226,328,o),
(205,255,o),
(110,255,cs),
(68,255,l),
(60,217,l)
);
}
);
width = 491;
}
);
metricLeft = "nunavuth-canadian";
metricRight = "theCarrier-canadian";
note = uni1572;
unicode = 5490;
},
{
glyphname = "tya-canadian";
lastChange = "2023-01-13 15:30:12 +0000";
layers = (
{
layerId = "A0BEBE03-9AB7-4E04-894D-4F686A7231C4";
shapes = (
{
closed = 1;
nodes = (
(374,0,l),
(386,58,l),
(317,58,ls),
(190,58,o),
(127,117,o),
(127,241,cs),
(127,399,o),
(207,656,o),
(427,656,cs),
(513,656,l),
(525,714,l),
(430,714,ls),
(138,714,o),
(63,409,o),
(63,240,cs),
(63,81,o),
(149,0,o),
(306,0,cs)
);
},
{
closed = 1;
nodes = (
(420,217,l),
(429,255,l),
(386,255,ls),
(336,255,o),
(310,282,o),
(312,332,cs),
(313,386,o),
(334,459,o),
(429,459,cs),
(472,459,l),
(480,497,l),
(435,497,ls),
(311,497,o),
(278,410,o),
(274,335,cs),
(269,259,o),
(309,217,o),
(378,217,cs)
);
}
);
width = 492;
}
);
metricLeft = "=|theCarrier-canadian";
metricRight = "nunavuth-canadian";
note = uni1573;
unicode = 5491;
},
{
glyphname = "heNunavik-canadian";
lastChange = "2023-01-13 15:28:16 +0000";
layers = (
{
layerId = "A0BEBE03-9AB7-4E04-894D-4F686A7231C4";
shapes = (
{
closed = 1;
nodes = (
(345,0,l),
(570,197,l),
(535,241,l),
(347,76,l),
(366,62,l),
(449,454,ls),
(477,585,o),
(461,727,o),
(316,727,cs),
(144,727,o),
(95,500,o),
(95,381,cs),
(95,273,o),
(141,212,o),
(229,212,cs),
(294,212,o),
(340,249,o),
(372,330,c),
(360,334,l),
(289,0,l)
);
},
{
closed = 1;
nodes = (
(186,268,o),
(156,307,o),
(156,383,cs),
(156,465,o),
(191,671,o),
(311,671,cs),
(370,671,o),
(400,632,o),
(400,557,cs),
(400,476,o),
(365,268,o),
(244,268,cs)
);
}
);
width = 604;
}
);
metricLeft = "ke-canadian";
note = uni1574;
unicode = 5492;
},
{
glyphname = "hiNunavik-canadian";
lastChange = "2023-01-13 15:30:11 +0000";
layers = (
{
anchors = (
{
name = top_center_can;
pos = (473,714);
}
);
layerId = "A0BEBE03-9AB7-4E04-894D-4F686A7231C4";
shapes = (
{
closed = 1;
nodes = (
(212,0,l),
(291,373,l),
(275,334,l),
(275,262,o),
(317,212,o),
(391,212,cs),
(556,212,o),
(605,441,o),
(605,555,cs),
(605,666,o),
(556,727,o),
(461,727,cs),
(356,727,o),
(286,647,o),
(252,488,cs),
(161,59,l),
(181,63,l),
(60,233,l),
(14,197,l),
(156,0,l)
);
},
{
closed = 1;
nodes = (
(331,268,o),
(301,307,o),
(301,382,cs),
(301,464,o),
(339,671,o),
(457,671,cs),
(516,671,o),
(544,633,o),
(544,557,cs),
(544,472,o),
(508,268,o),
(390,268,cs)
);
}
);
width = 605;
}
);
metricLeft = "=|heNunavik-canadian";
metricRight = "=|ke-canadian";
note = uni1575;
unicode = 5493;
},
{
glyphname = "hoNunavik-canadian";
lastChange = "2023-01-13 15:30:11 +0000";
layers = (
{
anchors = (
{
name = top_center_can;
pos = (327,714);
},
{
name = top_right_can;
pos = (471,714);
}
);
layerId = "A0BEBE03-9AB7-4E04-894D-4F686A7231C4";
shapes = (
{
closed = 1;
nodes = (
(296,-13,o),
(367,67,o),
(400,226,cs),
(491,655,l),
(471,651,l),
(592,481,l),
(639,517,l),
(496,714,l),
(441,714,l),
(361,341,l),
(378,380,l),
(378,452,o),
(335,502,o),
(262,502,cs),
(96,502,o),
(47,273,o),
(47,159,cs),
(47,48,o),
(96,-13,o),
(191,-13,cs)
);
},
{
closed = 1;
nodes = (
(137,43,o),
(108,81,o),
(108,157,cs),
(108,242,o),
(144,446,o),
(262,446,cs),
(321,446,o),
(351,407,o),
(351,332,cs),
(351,250,o),
(314,43,o),
(195,43,cs)
);
}
);
width = 605;
}
);
metricLeft = "ke-canadian";
metricRight = "heNunavik-canadian";
note = uni1577;
unicode = 5495;
},
{
glyphname = "haNunavik-canadian";
lastChange = "2023-01-13 15:30:11 +0000";
layers = (
{
anchors = (
{
name = top_center_can;
pos = (475,714);
},
{
name = top_left_can;
pos = (331,714);
}
);
layerId = "A0BEBE03-9AB7-4E04-894D-4F686A7231C4";
shapes = (
{
closed = 1;
nodes = (
(509,-13,o),
(558,214,o),
(558,333,cs),
(558,441,o),
(512,502,o),
(423,502,cs),
(359,502,o),
(312,465,o),
(280,384,c),
(292,380,l),
(364,714,l),
(307,714,l),
(82,517,l),
(118,473,l),
(306,638,l),
(287,652,l),
(204,260,ls),
(176,129,o),
(191,-13,o),
(336,-13,cs)
);
},
{
closed = 1;
nodes = (
(283,43,o),
(253,82,o),
(253,157,cs),
(253,238,o),
(288,446,o),
(408,446,cs),
(467,446,o),
(497,407,o),
(497,331,cs),
(497,249,o),
(461,43,o),
(341,43,cs)
);
}
);
width = 605;
}
);
metricLeft = "=|heNunavik-canadian";
metricRight = "=|ke-canadian";
note = uni1579;
unicode = 5497;
},
{
glyphname = "hNunavik-canadian";
kernLeft = mwestleft;
kernRight = mwestright;
lastChange = "2023-01-13 15:30:11 +0000";
layers = (
{
layerId = "A0BEBE03-9AB7-4E04-894D-4F686A7231C4";
shapes = (
{
closed = 1;
nodes = (
(338,351,o),
(370,475,o),
(370,532,cs),
(370,588,o),
(345,622,o),
(301,622,cs),
(268,622,o),
(244,605,o),
(225,572,c),
(232,560,l),
(264,714,l),
(224,714,l),
(111,616,l),
(135,589,l),
(232,674,l),
(217,697,l),
(174,495,ls),
(160,430,o),
(172,351,o),
(246,351,cs)
);
},
{
closed = 1;
nodes = (
(223,388,o),
(209,407,o),
(209,445,cs),
(209,503,o),
(234,585,o),
(287,585,cs),
(315,585,o),
(329,566,o),
(329,529,cs),
(329,471,o),
(304,388,o),
(250,388,cs)
);
}
);
width = 356;
}
);
metricRight = "k-canadian";
note = uni157B;
unicode = 5499;
},
{
color = 4;
glyphname = "nunavuth-canadian";
lastChange = "2023-01-13 15:28:16 +0000";
layers = (
{
layerId = "A0BEBE03-9AB7-4E04-894D-4F686A7231C4";
shapes = (
{
closed = 1;
nodes = (
(76,0,l),
(149,342,l),
(430,342,l),
(357,0,l),
(420,0,l),
(572,714,l),
(509,714,l),
(442,400,l),
(162,400,l),
(228,714,l),
(165,714,l),
(13,0,l)
);
}
);
width = 537;
}
);
metricRight = "=|";
note = uni157C;
unicode = 5500;
},
{
glyphname = "tlhe-canadian";
lastChange = "2023-01-13 15:30:11 +0000";
layers = (
{
anchors = (
{
name = top_center_can;
pos = (334,714);
}
);
layerId = "A0BEBE03-9AB7-4E04-894D-4F686A7231C4";
shapes = (
{
closed = 1;
nodes = (
(94,0,l),
(256,276,l),
(209,251,l),
(217,249,o),
(226,249,o),
(234,249,cs),
(293,249,o),
(338,278,o),
(375,341,c),
(369,357,l),
(293,0,l),
(356,0,l),
(457,474,ls),
(482,591,o),
(467,727,o),
(323,727,cs),
(160,727,o),
(105,537,o),
(105,417,cs),
(105,340,o),
(134,287,o),
(187,268,c),
(27,0,l)
);
},
{
closed = 1;
nodes = (
(194,305,o),
(165,343,o),
(165,419,cs),
(165,494,o),
(198,671,o),
(317,671,cs),
(377,671,o),
(404,631,o),
(404,561,cs),
(404,484,o),
(371,305,o),
(254,305,cs)
);
}
);
width = 469;
}
);
metricRight = "te-canadian";
note = uni1586;
unicode = 5510;
},
{
glyphname = "tlhi-canadian";
lastChange = "2023-01-13 15:30:11 +0000";
layers = (
{
layerId = "A0BEBE03-9AB7-4E04-894D-4F686A7231C4";
shapes = (
{
closed = 1;
nodes = (
(72,0,l),
(151,370,l),
(131,361,l),
(144,296,o),
(185,255,o),
(248,250,c),
(228,265,l),
(272,0,l),
(338,0,l),
(294,260,l),
(425,278,o),
(470,452,o),
(470,553,cs),
(470,661,o),
(415,727,o),
(320,727,cs),
(226,727,o),
(149,656,o),
(116,502,cs),
(9,0,l)
);
},
{
closed = 1;
nodes = (
(199,305,o),
(169,346,o),
(169,420,cs),
(169,497,o),
(205,671,o),
(319,671,cs),
(378,671,o),
(408,630,o),
(408,555,cs),
(408,476,o),
(375,305,o),
(259,305,cs)
);
}
);
width = 472;
}
);
metricLeft = "te-canadian";
metricRight = "=|tlhe-canadian";
note = uni1587;
unicode = 5511;
},
{
glyphname = "tlho-canadian";
lastChange = "2023-01-13 15:30:11 +0000";
layers = (
{
anchors = (
{
name = top_center_can;
pos = (348,714);
}
);
layerId = "A0BEBE03-9AB7-4E04-894D-4F686A7231C4";
shapes = (
{
closed = 1;
nodes = (
(293,-13,o),
(370,58,o),
(403,212,cs),
(510,714,l),
(447,714,l),
(368,344,l),
(388,353,l),
(375,418,o),
(334,459,o),
(271,464,c),
(291,449,l),
(247,714,l),
(181,714,l),
(225,454,l),
(94,436,o),
(50,262,o),
(50,161,cs),
(50,53,o),
(104,-13,o),
(199,-13,cs)
);
},
{
closed = 1;
nodes = (
(141,43,o),
(112,84,o),
(112,159,cs),
(112,238,o),
(144,409,o),
(260,409,cs),
(319,409,o),
(350,368,o),
(350,294,cs),
(350,217,o),
(314,43,o),
(200,43,cs)
);
}
);
width = 471;
}
);
metricLeft = "tlhe-canadian";
metricRight = "te-canadian";
note = uni1588;
unicode = 5512;
},
{
glyphname = "tlha-canadian";
lastChange = "2023-01-13 15:28:16 +0000";
layers = (
{
layerId = "A0BEBE03-9AB7-4E04-894D-4F686A7231C4";
shapes = (
{
closed = 1;
nodes = (
(358,-13,o),
(413,177,o),
(413,297,cs),
(413,374,o),
(384,427,o),
(331,446,c),
(490,714,l),
(424,714,l),
(262,438,l),
(309,463,l),
(300,465,o),
(292,465,o),
(284,465,cs),
(225,465,o),
(179,436,o),
(143,373,c),
(149,357,l),
(224,714,l),
(161,714,l),
(61,240,ls),
(36,123,o),
(51,-13,o),
(195,-13,cs)
);
},
{
closed = 1;
nodes = (
(141,43,o),
(114,83,o),
(114,153,cs),
(114,230,o),
(147,409,o),
(264,409,cs),
(324,409,o),
(353,371,o),
(353,295,cs),
(353,220,o),
(319,43,o),
(201,43,cs)
);
}
);
width = 470;
}
);
metricLeft = "te-canadian";
note = uni1589;
unicode = 5513;
},
{
glyphname = "reWestCree-canadian";
lastChange = "2023-01-13 15:30:11 +0000";
layers = (
{
layerId = "A0BEBE03-9AB7-4E04-894D-4F686A7231C4";
shapes = (
{
closed = 1;
nodes = (
(341,0,l),
(566,198,l),
(529,241,l),
(343,74,l),
(361,61,l),
(452,491,ls),
(484,641,o),
(425,727,o),
(311,727,cs),
(203,727,o),
(142,658,o),
(109,504,cs),
(88,405,l),
(151,405,l),
(174,513,ls),
(198,623,o),
(237,670,o),
(304,670,cs),
(381,670,o),
(416,615,o),
(392,502,cs),
(285,0,l)
);
}
);
width = 600;
}
);
metricLeft = "ce-canadian";
metricRight = "heNunavik-canadian";
note = uni158A;
unicode = 5514;
},
{
glyphname = "riWestCree-canadian";
lastChange = "2023-01-13 15:30:11 +0000";
layers = (
{
layerId = "A0BEBE03-9AB7-4E04-894D-4F686A7231C4";
shapes = (
{
closed = 1;
nodes = (
(211,0,l),
(320,513,ls),
(344,623,o),
(383,670,o),
(450,670,cs),
(527,670,o),
(562,615,o),
(538,502,cs),
(517,405,l),
(580,405,l),
(599,491,ls),
(631,641,o),
(571,727,o),
(457,727,cs),
(349,727,o),
(288,658,o),
(255,504,cs),
(161,62,l),
(181,65,l),
(63,234,l),
(14,198,l),
(155,0,l)
);
}
);
width = 601;
}
);
metricLeft = "=|heNunavik-canadian";
metricRight = "=|ce-canadian";
note = uni158B;
unicode = 5515;
},
{
glyphname = "roWestCree-canadian";
lastChange = "2023-01-13 15:28:16 +0000";
layers = (
{
layerId = "A0BEBE03-9AB7-4E04-894D-4F686A7231C4";
shapes = (
{
closed = 1;
nodes = (
(299,-13,o),
(360,56,o),
(393,210,cs),
(487,652,l),
(467,649,l),
(586,480,l),
(634,516,l),
(493,714,l),
(437,714,l),
(328,201,ls),
(304,91,o),
(265,44,o),
(198,44,cs),
(121,44,o),
(86,99,o),
(110,212,cs),
(131,309,l),
(68,309,l),
(49,223,ls),
(17,73,o),
(77,-13,o),
(191,-13,cs)
);
}
);
width = 600;
}
);
metricLeft = "ce-canadian";
metricRight = "heNunavik-canadian";
note = uni158C;
unicode = 5516;
},
{
glyphname = "raWestCree-canadian";
lastChange = "2023-01-13 15:30:11 +0000";
layers = (
{
layerId = "A0BEBE03-9AB7-4E04-894D-4F686A7231C4";
shapes = (
{
closed = 1;
nodes = (
(445,-13,o),
(505,56,o),
(538,210,cs),
(560,309,l),
(497,309,l),
(474,201,ls),
(450,91,o),
(411,44,o),
(344,44,cs),
(267,44,o),
(232,99,o),
(256,212,cs),
(363,714,l),
(306,714,l),
(82,516,l),
(118,473,l),
(305,640,l),
(286,653,l),
(195,223,ls),
(164,73,o),
(223,-13,o),
(337,-13,cs)
);
}
);
width = 600;
}
);
metricLeft = "=|heNunavik-canadian";
metricRight = "=|ce-canadian";
note = uni158D;
unicode = 5517;
},
{
glyphname = "ng-canadian";
kernLeft = mwestleft;
kernRight = mwestright;
lastChange = "2023-01-13 15:30:11 +0000";
layers = (
{
layerId = "A0BEBE03-9AB7-4E04-894D-4F686A7231C4";
shapes = (
{
closed = 1;
nodes = (
(426,225,o),
(465,266,o),
(481,345,cs),
(487,376,l),
(445,376,l),
(437,341,ls),
(425,288,o),
(405,264,o),
(370,264,cs),
(333,264,o),
(319,290,o),
(330,341,cs),
(363,493,l),
(245,493,l),
(253,476,l),
(289,501,o),
(307,569,o),
(309,612,cs),
(313,678,o),
(283,720,o),
(228,720,cs),
(148,720,o),
(115,620,o),
(111,557,cs),
(106,488,o),
(138,449,o),
(195,449,cs),
(329,449,l),
(314,478,l),
(287,350,ls),
(271,274,o),
(302,225,o),
(366,225,cs)
);
},
{
closed = 1;
nodes = (
(164,485,o),
(149,508,o),
(151,552,cs),
(153,596,o),
(170,683,o),
(226,683,cs),
(255,683,o),
(270,660,o),
(268,617,cs),
(266,573,o),
(249,485,o),
(192,485,cs)
);
}
);
width = 493;
}
);
metricLeft = "n-canadian";
metricRight = "c-canadian";
note = uni1595;
unicode = 5525;
},
{
glyphname = "nng-canadian";
kernLeft = mwestleft;
kernRight = mwestright;
lastChange = "2023-01-13 15:30:11 +0000";
layers = (
{
layerId = "A0BEBE03-9AB7-4E04-894D-4F686A7231C4";
shapes = (
{
closed = 1;
nodes = (
(655,225,o),
(694,266,o),
(710,345,cs),
(717,376,l),
(675,376,l),
(667,341,ls),
(655,288,o),
(634,264,o),
(600,264,cs),
(562,264,o),
(548,290,o),
(560,341,cs),
(592,493,l),
(479,493,l),
(481,476,l),
(519,504,o),
(538,577,o),
(538,621,cs),
(538,682,o),
(508,720,o),
(456,720,cs),
(370,720,o),
(338,611,o),
(338,546,cs),
(338,517,o),
(346,494,o),
(360,478,c),
(368,493,l),
(252,493,l),
(253,476,l),
(293,504,o),
(311,582,o),
(311,620,cs),
(311,681,o),
(281,720,o),
(229,720,cs),
(142,720,o),
(111,611,o),
(111,546,cs),
(111,484,o),
(142,449,o),
(196,449,cs),
(537,449,l),
(516,350,ls),
(500,274,o),
(531,225,o),
(595,225,cs)
);
},
{
closed = 1;
nodes = (
(166,485,o),
(151,506,o),
(151,545,cs),
(151,587,o),
(169,683,o),
(227,683,cs),
(255,683,o),
(270,663,o),
(270,624,cs),
(270,582,o),
(253,485,o),
(193,485,cs)
);
},
{
closed = 1;
nodes = (
(393,485,o),
(379,506,o),
(379,545,cs),
(379,587,o),
(396,683,o),
(454,683,cs),
(483,683,o),
(497,663,o),
(497,624,cs),
(497,582,o),
(480,485,o),
(421,485,cs)
);
}
);
width = 722;
}
);
metricLeft = "n-canadian";
metricRight = "c-canadian";
note = uni1596;
unicode = 5526;
},
{
glyphname = "sheSayisi-canadian";
lastChange = "2023-01-13 15:28:16 +0000";
layers = (
{
anchors = (
{
name = middle_right_can;
pos = (526,357);
},
{
name = top_center_can;
pos = (334,714);
}
);
layerId = "A0BEBE03-9AB7-4E04-894D-4F686A7231C4";
shapes = (
{
closed = 1;
nodes = (
(358,0,l),
(456,462,ls),
(491,630,o),
(440,727,o),
(324,727,cs),
(145,727,o),
(91,488,o),
(91,362,cs),
(91,268,o),
(123,214,o),
(192,214,cs),
(263,214,o),
(304,276,o),
(331,425,c),
(300,425,l),
(279,314,o),
(252,268,o),
(207,268,cs),
(169,268,o),
(150,300,o),
(150,360,cs),
(150,450,o),
(192,671,o),
(318,671,cs),
(394,671,o),
(422,599,o),
(393,461,cs),
(294,0,l)
);
}
);
width = 471;
}
);
metricLeft = "ke-canadian";
metricRight = "te-canadian";
note = uni1597;
unicode = 5527;
},
{
glyphname = "shiSayisi-canadian";
lastChange = "2023-01-13 15:28:16 +0000";
layers = (
{
layerId = "A0BEBE03-9AB7-4E04-894D-4F686A7231C4";
shapes = (
{
closed = 1;
nodes = (
(73,0,l),
(175,479,ls),
(203,609,o),
(247,671,o),
(317,671,cs),
(380,671,o),
(411,631,o),
(411,551,cs),
(411,479,o),
(372,268,o),
(289,268,cs),
(238,268,o),
(223,317,o),
(248,425,c),
(216,425,l),
(185,286,o),
(215,214,o),
(296,214,cs),
(421,214,o),
(471,445,o),
(471,548,cs),
(471,662,o),
(419,727,o),
(321,727,cs),
(216,727,o),
(147,648,o),
(114,492,cs),
(9,0,l)
);
}
);
width = 471;
}
);
metricLeft = "te-canadian";
metricRight = "=|ke-canadian";
note = uni1598;
unicode = 5528;
},
{
glyphname = "shoSayisi-canadian";
lastChange = "2023-01-13 15:28:16 +0000";
layers = (
{
anchors = (
{
name = top_center_can;
pos = (332,714);
},
{
name = top_left_can;
pos = (185,714);
},
{
name = top_right_can;
pos = (479,714);
}
);
layerId = "A0BEBE03-9AB7-4E04-894D-4F686A7231C4";
shapes = (
{
closed = 1;
nodes = (
(304,-13,o),
(372,66,o),
(405,222,cs),
(510,714,l),
(447,714,l),
(345,235,ls),
(317,105,o),
(272,43,o),
(202,43,cs),
(140,43,o),
(108,83,o),
(108,163,cs),
(108,235,o),
(148,446,o),
(230,446,cs),
(282,446,o),
(297,397,o),
(272,289,c),
(303,289,l),
(335,428,o),
(305,500,o),
(224,500,cs),
(99,500,o),
(48,269,o),
(48,166,cs),
(48,52,o),
(101,-13,o),
(199,-13,cs)
);
}
);
width = 471;
}
);
metricLeft = "ke-canadian";
metricRight = "te-canadian";
note = uni1599;
unicode = 5529;
},
{
glyphname = "shaSayisi-canadian";
lastChange = "2023-01-13 15:30:11 +0000";
layers = (
{
layerId = "A0BEBE03-9AB7-4E04-894D-4F686A7231C4";
shapes = (
{
closed = 1;
nodes = (
(373,-13,o),
(428,226,o),
(428,352,cs),
(428,446,o),
(396,500,o),
(327,500,cs),
(256,500,o),
(215,438,o),
(187,289,c),
(218,289,l),
(239,400,o),
(267,446,o),
(312,446,cs),
(350,446,o),
(369,414,o),
(369,354,cs),
(369,264,o),
(326,43,o),
(201,43,cs),
(125,43,o),
(97,115,o),
(126,253,cs),
(224,714,l),
(161,714,l),
(63,252,ls),
(27,84,o),
(78,-13,o),
(195,-13,cs)
);
}
);
width = 471;
}
);
metricLeft = "te-canadian";
metricRight = "=|ke-canadian";
note = uni159A;
unicode = 5530;
},
{
glyphname = "theWoodScree-canadian";
lastChange = "2023-01-13 15:28:16 +0000";
layers = (
{
layerId = "A0BEBE03-9AB7-4E04-894D-4F686A7231C4";
shapes = (
{
closed = 1;
nodes = (
(542,-13,o),
(594,196,o),
(594,311,cs),
(594,425,o),
(537,489,o),
(433,489,cs),
(111,489,l),
(99,434,l),
(361,434,l),
(361,456,l),
(255,417,o),
(223,252,o),
(223,166,cs),
(223,54,o),
(279,-13,o),
(378,-13,cs)
);
},
{
closed = 1;
nodes = (
(316,43,o),
(284,84,o),
(284,162,cs),
(284,240,o),
(314,434,o),
(439,434,cs),
(502,434,o),
(533,393,o),
(533,315,cs),
(533,236,o),
(504,43,o),
(379,43,cs)
);
},
{
closed = 1;
nodes = (
(670,659,l),
(682,714,l),
(159,714,l),
(147,659,l)
);
}
);
width = 648;
}
);
note = uni159B;
unicode = 5531;
},
{
glyphname = "thiWoodScree-canadian";
kernRight = niright;
lastChange = "2023-01-13 15:30:11 +0000";
layers = (
{
layerId = "A0BEBE03-9AB7-4E04-894D-4F686A7231C4";
shapes = (
{
closed = 1;
nodes = (
(372,-13,o),
(424,199,o),
(424,311,cs),
(424,371,o),
(407,414,o),
(373,440,c),
(369,434,l),
(631,434,l),
(642,489,l),
(288,489,ls),
(96,489,o),
(53,278,o),
(53,166,cs),
(53,54,o),
(107,-13,o),
(207,-13,cs)
);
},
{
closed = 1;
nodes = (
(145,43,o),
(114,84,o),
(114,162,cs),
(114,240,o),
(143,434,o),
(269,434,cs),
(331,434,o),
(363,393,o),
(363,315,cs),
(363,236,o),
(333,43,o),
(209,43,cs)
);
},
{
closed = 1;
nodes = (
(679,659,l),
(691,714,l),
(169,714,l),
(157,659,l)
);
}
);
width = 649;
}
);
metricLeft = "theWoodScree-canadian";
metricRight = "theWoodScree-canadian";
note = uni159C;
unicode = 5532;
},
{
glyphname = "thoWoodScree-canadian";
lastChange = "2023-01-13 15:30:11 +0000";
layers = (
{
layerId = "A0BEBE03-9AB7-4E04-894D-4F686A7231C4";
shapes = (
{
closed = 1;
nodes = (
(361,0,ls),
(554,0,o),
(597,211,o),
(597,323,cs),
(597,435,o),
(542,502,o),
(442,502,cs),
(277,502,o),
(226,290,o),
(226,178,cs),
(226,118,o),
(242,75,o),
(277,49,c),
(280,55,l),
(19,55,l),
(7,0,l)
);
},
{
closed = 1;
nodes = (
(318,55,o),
(287,96,o),
(287,174,cs),
(287,254,o),
(316,446,o),
(441,446,cs),
(504,446,o),
(536,405,o),
(536,327,cs),
(536,249,o),
(507,55,o),
(381,55,cs)
);
},
{
closed = 1;
nodes = (
(670,659,l),
(682,714,l),
(159,714,l),
(147,659,l)
);
}
);
width = 649;
}
);
metricLeft = "theWoodScree-canadian";
metricRight = "theWoodScree-canadian";
note = uni159D;
unicode = 5533;
},
{
glyphname = "thaWoodScree-canadian";
lastChange = "2023-01-13 15:30:11 +0000";
layers = (
{
layerId = "A0BEBE03-9AB7-4E04-894D-4F686A7231C4";
shapes = (
{
closed = 1;
nodes = (
(539,0,l),
(550,55,l),
(289,55,l),
(289,33,l),
(394,73,o),
(426,237,o),
(426,323,cs),
(426,435,o),
(371,502,o),
(272,502,cs),
(108,502,o),
(55,293,o),
(55,178,cs),
(55,64,o),
(113,0,o),
(216,0,cs)
);
},
{
closed = 1;
nodes = (
(147,55,o),
(116,96,o),
(116,174,cs),
(116,254,o),
(146,446,o),
(270,446,cs),
(334,446,o),
(365,405,o),
(365,327,cs),
(365,249,o),
(336,55,o),
(210,55,cs)
);
},
{
closed = 1;
nodes = (
(678,659,l),
(690,714,l),
(166.99,714,l),
(155,659,l)
);
}
);
width = 649;
}
);
metricLeft = "theWoodScree-canadian";
metricRight = "theWoodScree-canadian";
note = uni159E;
unicode = 5534;
},
{
glyphname = "thWoodScree-canadian";
lastChange = "2023-01-13 15:28:16 +0000";
layers = (
{
layerId = "A0BEBE03-9AB7-4E04-894D-4F686A7231C4";
shapes = (
{
closed = 1;
nodes = (
(367,357,l),
(376,398,l),
(230,398,l),
(227,375,l),
(281,396,o),
(302,481,o),
(302,528,cs),
(302,590,o),
(272,628,o),
(220,628,cs),
(134,628,o),
(103,518,o),
(103,454,cs),
(103,392,o),
(134,357,o),
(188,357,cs)
);
},
{
closed = 1;
nodes = (
(158,393,o),
(143,414,o),
(143,453,cs),
(143,495,o),
(160,591,o),
(218,591,cs),
(247,591,o),
(262,570,o),
(262,531,cs),
(262,490,o),
(245,393,o),
(185,393,cs)
);
},
{
closed = 1;
nodes = (
(436,700,l),
(445,742,l),
(162,742,l),
(153,700,l)
);
}
);
width = 396;
}
);
metricRight = "=|";
note = uni159F;
unicode = 5535;
},
{
glyphname = "lhi-canadian";
kernRight = niright;
lastChange = "2023-01-13 15:28:16 +0000";
layers = (
{
anchors = (
{
name = top_center_can;
pos = (466,714);
},
{
name = top_right_can;
pos = (538,714);
}
);
layerId = "A0BEBE03-9AB7-4E04-894D-4F686A7231C4";
shapes = (
{
closed = 1;
nodes = (
(233,0,l),
(245,57,l),
(237,57,ls),
(159,57,o),
(114,110,o),
(114,195,cs),
(114,293,o),
(167,431,o),
(321,431,cs),
(625,431,l),
(637,483,l),
(556,747,l),
(497,728,l),
(579,460,l),
(601,489,l),
(325,489,ls),
(135,489,o),
(51,337,o),
(51,194,cs),
(51,78,o),
(118,0,o),
(223,0,cs)
);
}
);
width = 637;
}
);
metricLeft = "ke-canadian";
metricRight = "=|ne-canadian";
note = uni15A0;
unicode = 5536;
},
{
glyphname = "lho-canadian";
kernLeft = noleft;
lastChange = "2023-01-13 15:30:11 +0000";
layers = (
{
anchors = (
{
name = top_center_can;
pos = (367,507);
},
{
name = top_right_can;
pos = (454,507);
}
);
layerId = "A0BEBE03-9AB7-4E04-894D-4F686A7231C4";
shapes = (
{
closed = 1;
nodes = (
(140,-239,l),
(58,28,l),
(36,-1,l),
(311,-1,ls),
(502,-1,o),
(586,152,o),
(586,294,cs),
(586,410,o),
(519,488,o),
(414,488,cs),
(404,488,l),
(392,431,l),
(400,431,ls),
(477,431,o),
(523,379,o),
(523,294,cs),
(523,195,o),
(470,58,o),
(316,58,cs),
(12,58,l),
(0,5,l),
(81,-258,l)
);
}
);
width = 638;
}
);
metricLeft = "ne-canadian";
metricRight = "=|ke-canadian";
note = uni15A2;
unicode = 5538;
},
{
glyphname = "lha-canadian";
kernRight = naright;
lastChange = "2023-01-13 15:28:16 +0000";
layers = (
{
anchors = (
{
name = top_center_can;
pos = (384,507);
},
{
name = top_left_can;
pos = (295,507);
}
);
layerId = "A0BEBE03-9AB7-4E04-894D-4F686A7231C4";
shapes = (
{
closed = 1;
nodes = (
(535,6,l),
(546,58,l),
(256,58,ls),
(164,58,o),
(114,107,o),
(114,195,cs),
(114,287,o),
(155,432,o),
(316,432,cs),
(325,432,l),
(337,489,l),
(322,489,ls),
(124,489,o),
(52,328,o),
(52,193,cs),
(52,73,o),
(122,0,o),
(244,0,cs),
(493,0,l),
(477,26,l),
(294,-223,l),
(341,-258,l)
);
}
);
width = 637;
}
);
metricLeft = "ke-canadian";
metricRight = "=|ne-canadian";
note = uni15A4;
unicode = 5540;
},
{
glyphname = "lh-canadian";
kernLeft = mwestleft;
kernRight = mwestright;
lastChange = "2023-01-13 15:30:11 +0000";
layers = (
{
layerId = "A0BEBE03-9AB7-4E04-894D-4F686A7231C4";
shapes = (
{
closed = 1;
nodes = (
(371,361,l),
(380,401,l),
(240,401,ls),
(183,401,o),
(154,432,o),
(154,491,cs),
(154,566,o),
(185,670,o),
(295,670,cs),
(298,670,l),
(308,714,l),
(303,714,ls),
(156,714,o),
(109,590,o),
(109,489,cs),
(109,404,o),
(155,357,o),
(240,357,cs),
(347,357,l),
(333,383,l),
(230,241,l),
(265,215,l)
);
}
);
width = 397;
}
);
metricLeft = "t-canadian";
metricRight = "=|";
note = uni15A6;
unicode = 5542;
},
{
glyphname = "theThCree-canadian";
lastChange = "2023-01-13 15:28:16 +0000";
layers = (
{
anchors = (
{
name = top_left_can;
pos = (173,714);
},
{
name = top_right_can;
pos = (456,714);
}
);
layerId = "A0BEBE03-9AB7-4E04-894D-4F686A7231C4";
shapes = (
{
closed = 1;
nodes = (
(298,121,l),
(271,0,l),
(335,0,l),
(361,121,l),
(423,121,l),
(432,163,l),
(370,163,l),
(403,321,l),
(126,321,l),
(136,299,l),
(491,688,l),
(446,726,l),
(51,290,l),
(46,264,l),
(328,264,l),
(306,163,l),
(118,163,l),
(109,121,l)
);
}
);
width = 485;
}
);
metricLeft = "ye-canadian";
note = uni15A7;
unicode = 5543;
},
{
glyphname = "thiThCree-canadian";
kernRight = yiright;
lastChange = "2023-01-13 15:30:11 +0000";
layers = (
{
anchors = (
{
name = top_left_can;
pos = (231,714);
},
{
name = top_right_can;
pos = (513,714);
}
);
layerId = "A0BEBE03-9AB7-4E04-894D-4F686A7231C4";
shapes = (
{
closed = 1;
nodes = (
(110,0,l),
(136,121,l),
(325,121,l),
(334,163,l),
(145,163,l),
(166,264,l),
(448,264,l),
(453,290,l),
(233,726,l),
(181,698,l),
(385,295,l),
(401,321,l),
(115,321,l),
(81,163,l),
(19,163,l),
(11,121,l),
(73,121,l),
(46,0,l)
);
}
);
width = 485;
}
);
metricLeft = "=|theThCree-canadian";
metricRight = "=|ye-canadian";
note = uni15A8;
unicode = 5544;
},
{
glyphname = "thoThCree-canadian";
kernLeft = yoleft;
lastChange = "2023-01-13 15:30:11 +0000";
layers = (
{
anchors = (
{
name = top_left_can;
pos = (173,714);
},
{
name = top_right_can;
pos = (456,714);
}
);
layerId = "A0BEBE03-9AB7-4E04-894D-4F686A7231C4";
shapes = (
{
closed = 1;
nodes = (
(353,16,l),
(148,419,l),
(132,393,l),
(418,393,l),
(452,551,l),
(515,551,l),
(523,593,l),
(460,593,l),
(487,714,l),
(423,714,l),
(397,593,l),
(208,593,l),
(199,551,l),
(388,551,l),
(367,450,l),
(85,450,l),
(80,424,l),
(300,-12,l)
);
}
);
width = 486;
}
);
metricLeft = "ye-canadian";
metricRight = "theThCree-canadian";
note = uni15AA;
unicode = 5546;
},
{
glyphname = "thaThCree-canadian";
kernRight = yaright;
lastChange = "2023-01-13 15:30:11 +0000";
layers = (
{
anchors = (
{
name = top_left_can;
pos = (230,714);
},
{
name = top_right_can;
pos = (513,714);
}
);
layerId = "A0BEBE03-9AB7-4E04-894D-4F686A7231C4";
shapes = (
{
closed = 1;
nodes = (
(483,424,l),
(488,450,l),
(205,450,l),
(227,551,l),
(415,551,l),
(424,593,l),
(235,593,l),
(262,714,l),
(198,714,l),
(172,593,l),
(110,593,l),
(101,551,l),
(163,551,l),
(130,393,l),
(407,393,l),
(398,415,l),
(42,26,l),
(87,-12,l)
);
}
);
width = 486;
}
);
metricLeft = "=|theThCree-canadian";
metricRight = "=|ye-canadian";
note = uni15AC;
unicode = 5548;
},
{
glyphname = "thThCree-canadian";
kernLeft = mwestleft;
kernRight = mwestright;
lastChange = "2023-01-13 15:28:16 +0000";
layers = (
{
layerId = "A0BEBE03-9AB7-4E04-894D-4F686A7231C4";
shapes = (
{
closed = 1;
nodes = (
(153,634,l),
(134,542,l),
(274,542,l),
(265,564,l),
(94,375,l),
(126,348,l),
(321,565,l),
(325,582,l),
(186,582,l),
(198,634,l),
(290,634,l),
(295,661,l),
(203,661,l),
(215,714,l),
(170,714,l),
(159,661,l),
(127,661,l),
(122,634,l)
);
}
);
width = 282;
}
);
metricRight = "y-canadian";
note = uni15AE;
unicode = 5550;
},
{
glyphname = "bAivilik-canadian";
lastChange = "2023-01-13 15:28:16 +0000";
layers = (
{
layerId = "A0BEBE03-9AB7-4E04-894D-4F686A7231C4";
shapes = (
{
closed = 1;
nodes = (
(373,-13,o),
(423,213,o),
(423,333,cs),
(423,441,o),
(375,502,o),
(288,502,cs),
(227,502,o),
(180,465,o),
(145,382,c),
(157,381,l),
(228,714,l),
(165,714,l),
(13,0,l),
(71,0,l),
(99,131,l),
(89,114,l),
(92,28,o),
(136,-13,o),
(208,-13,cs)
);
},
{
closed = 1;
nodes = (
(148,43,o),
(119,82,o),
(119,157,cs),
(119,238,o),
(153,446,o),
(273,446,cs),
(332,446,o),
(361,407,o),
(361,331,cs),
(361,249,o),
(326,43,o),
(206,43,cs)
);
}
);
width = 470;
}
);
metricLeft = "nunavuth-canadian";
metricRight = "=|ke-canadian";
note = uni15AF;
unicode = 5551;
},
{
glyphname = "eBlackfoot-canadian";
lastChange = "2023-01-13 15:28:16 +0000";
layers = (
{
layerId = "A0BEBE03-9AB7-4E04-894D-4F686A7231C4";
shapes = (
{
closed = 1;
nodes = (
(76,0,l),
(169,435,l),
(184,391,o),
(224,365,o),
(276,365,cs),
(397,365,o),
(451,500,o),
(451,585,cs),
(451,670,o),
(403,727,o),
(325,727,cs),
(284,727,o),
(246,710,o),
(218,678,c),
(225,714,l),
(165,714,l),
(13,0,l)
);
}
);
width = 425;
}
);
metricLeft = "nunavuth-canadian";
note = uni15B0;
unicode = 5552;
},
{
glyphname = "iBlackfoot-canadian";
lastChange = "2023-01-13 15:28:16 +0000";
layers = (
{
layerId = "A0BEBE03-9AB7-4E04-894D-4F686A7231C4";
shapes = (
{
closed = 1;
nodes = (
(190,-13,o),
(227,4,o),
(256,36,c),
(248,0,l),
(309,0,l),
(461,714,l),
(397,714,l),
(304,279,l),
(289,323,o),
(249,349,o),
(197,349,cs),
(76,349,o),
(22,214,o),
(22,129,cs),
(22,44,o),
(71,-13,o),
(149,-13,cs)
);
}
);
width = 426;
}
);
metricLeft = "=|eBlackfoot-canadian";
metricRight = "nunavuth-canadian";
note = uni15B1;
unicode = 5553;
},
{
glyphname = "oBlackfoot-canadian";
lastChange = "2023-01-13 15:30:11 +0000";
layers = (
{
layerId = "A0BEBE03-9AB7-4E04-894D-4F686A7231C4";
shapes = (
{
closed = 1;
nodes = (
(319,-13,o),
(370,122,o),
(370,207,cs),
(370,291,o),
(323,349,o),
(248,349,cs),
(207,349,o),
(171,333,o),
(140,303,c),
(228,714,l),
(165,714,l),
(13,0,l),
(73,0,l),
(87,62,l),
(101,16,o),
(141,-13,o),
(195,-13,cs)
);
}
);
width = 424;
}
);
metricLeft = "nunavuth-canadian";
metricRight = "eBlackfoot-canadian";
note = uni15B2;
unicode = 5554;
},
{
glyphname = "aBlackfoot-canadian";
lastChange = "2023-01-13 15:30:11 +0000";
layers = (
{
layerId = "A0BEBE03-9AB7-4E04-894D-4F686A7231C4";
shapes = (
{
closed = 1;
nodes = (
(308,0,l),
(460,714,l),
(399,714,l),
(385,652,l),
(371,698,o),
(331,727,o),
(277,727,cs),
(153,727,o),
(102,592,o),
(102,507,cs),
(102,423,o),
(149,365,o),
(225,365,cs),
(265,365,o),
(302,381,o),
(332,411,c),
(244,0,l)
);
}
);
width = 425;
}
);
metricLeft = "=|eBlackfoot-canadian";
metricRight = "nunavuth-canadian";
note = uni15B3;
unicode = 5555;
},
{
glyphname = "weBlackfoot-canadian";
lastChange = "2023-01-13 15:28:16 +0000";
layers = (
{
layerId = "A0BEBE03-9AB7-4E04-894D-4F686A7231C4";
shapes = (
{
closed = 1;
nodes = (
(76,0,l),
(146,330,l),
(420,330,l),
(432,386,l),
(158,386,l),
(216,658,l),
(490,658,l),
(501,714,l),
(165,714,l),
(13,0,l)
);
}
);
width = 448;
}
);
metricLeft = "nunavuth-canadian";
note = uni15B4;
unicode = 5556;
},
{
glyphname = "wiBlackfoot-canadian";
lastChange = "2023-01-13 15:30:11 +0000";
layers = (
{
layerId = "A0BEBE03-9AB7-4E04-894D-4F686A7231C4";
shapes = (
{
closed = 1;
nodes = (
(331,0,l),
(483,714,l),
(419,714,l),
(350,384,l),
(76,384,l),
(64,328,l),
(337,328,l),
(280,56,l),
(6,56,l),
(-6,0,l)
);
}
);
width = 448;
}
);
metricLeft = "=|weBlackfoot-canadian";
metricRight = "nunavuth-canadian";
note = uni15B5;
unicode = 5557;
},
{
glyphname = "woBlackfoot-canadian";
lastChange = "2023-01-13 15:30:11 +0000";
layers = (
{
layerId = "A0BEBE03-9AB7-4E04-894D-4F686A7231C4";
shapes = (
{
closed = 1;
nodes = (
(349,0,l),
(361,56,l),
(88,56,l),
(146,328,l),
(419,328,l),
(431,384,l),
(158,384,l),
(228,714,l),
(165,714,l),
(13,0,l)
);
}
);
width = 447;
}
);
metricLeft = "nunavuth-canadian";
metricRight = "weBlackfoot-canadian";
note = uni15B6;
unicode = 5558;
},
{
glyphname = "waBlackfoot-canadian";
lastChange = "2023-01-13 15:30:11 +0000";
layers = (
{
layerId = "A0BEBE03-9AB7-4E04-894D-4F686A7231C4";
shapes = (
{
closed = 1;
nodes = (
(331,0,l),
(483,714,l),
(146,714,l),
(134,658,l),
(407,658,l),
(349,386,l),
(76,386,l),
(64,330,l),
(338,330,l),
(267,0,l)
);
}
);
width = 448;
}
);
metricLeft = "=|weBlackfoot-canadian";
metricRight = "nunavuth-canadian";
note = uni15B7;
unicode = 5559;
},
{
glyphname = "neBlackfoot-canadian";
lastChange = "2023-01-13 15:28:16 +0000";
layers = (
{
layerId = "A0BEBE03-9AB7-4E04-894D-4F686A7231C4";
shapes = (
{
closed = 1;
nodes = (
(76,0,l),
(218,664,l),
(259,664,l),
(242,697,l),
(228,632,ls),
(201,505,o),
(253,421,o),
(373,421,cs),
(475,421,o),
(546,485,o),
(574,618,cs),
(594,714,l),
(532,714,l),
(511,614,ls),
(492,520,o),
(445,479,o),
(376,479,cs),
(298,479,o),
(270,534,o),
(288,620,cs),
(308,714,l),
(165,714,l),
(13,0,l)
);
}
);
width = 532;
}
);
metricLeft = "nunavuth-canadian";
note = uni15B8;
unicode = 5560;
},
{
glyphname = "niBlackfoot-canadian";
lastChange = "2023-01-13 15:30:11 +0000";
layers = (
{
layerId = "A0BEBE03-9AB7-4E04-894D-4F686A7231C4";
shapes = (
{
closed = 1;
nodes = (
(48,0,l),
(68,100,ls),
(88,194,o),
(135,235,o),
(204,235,cs),
(283,235,o),
(311,180,o),
(293,94,cs),
(272,0,l),
(416,0,l),
(568,714,l),
(504,714,l),
(363,50,l),
(321,50,l),
(338,17,l),
(352,82,ls),
(379,209,o),
(327,293,o),
(207,293,cs),
(105,293,o),
(34,229,o),
(6,96,cs),
(-15,0,l)
);
}
);
width = 533;
}
);
metricLeft = "=|neBlackfoot-canadian";
metricRight = "nunavuth-canadian";
note = uni15B9;
unicode = 5561;
},
{
glyphname = "noBlackfoot-canadian";
lastChange = "2023-01-13 15:28:16 +0000";
layers = (
{
layerId = "A0BEBE03-9AB7-4E04-894D-4F686A7231C4";
shapes = (
{
closed = 1;
nodes = (
(156,0,l),
(174,81,ls),
(198,187,o),
(235,236,o),
(306,236,cs),
(383,236,o),
(417,177,o),
(395,73,cs),
(381,0,l),
(443,0,l),
(456,60,ls),
(486,203,o),
(430,293,o),
(312,293,cs),
(207,293,o),
(140,218,o),
(112,81,cs),
(99,17,l),
(129,50,l),
(87,50,l),
(228,714,l),
(165,714,l),
(13,0,l)
);
}
);
width = 532;
}
);
metricLeft = "nunavuth-canadian";
metricRight = "neBlackfoot-canadian";
note = uni15BA;
unicode = 5562;
},
{
glyphname = "naBlackfoot-canadian";
lastChange = "2023-01-13 15:30:11 +0000";
layers = (
{
layerId = "A0BEBE03-9AB7-4E04-894D-4F686A7231C4";
shapes = (
{
closed = 1;
nodes = (
(416,0,l),
(568,714,l),
(424,714,l),
(406,633,ls),
(383,527,o),
(345,478,o),
(274,478,cs),
(197,478,o),
(164,537,o),
(185,641,cs),
(200,714,l),
(137,714,l),
(124,654,ls),
(94,511,o),
(150,421,o),
(268,421,cs),
(374,421,o),
(440,496,o),
(469,633,cs),
(482,697,l),
(452,664,l),
(493,664,l),
(352,0,l)
);
}
);
width = 533;
}
);
metricLeft = "=|neBlackfoot-canadian";
metricRight = "nunavuth-canadian";
note = uni15BB;
unicode = 5563;
},
{
glyphname = "keBlackfoot-canadian";
lastChange = "2023-01-13 15:28:16 +0000";
layers = (
{
layerId = "A0BEBE03-9AB7-4E04-894D-4F686A7231C4";
shapes = (
{
closed = 1;
nodes = (
(76,0,l),
(213,640,l),
(187,640,l),
(257,267,l),
(289,267,l),
(564,714,l),
(495,714,l),
(265,340,l),
(294,337,l),
(223,714,l),
(165,714,l),
(13,0,l)
);
}
);
width = 491;
}
);
metricLeft = "nunavuth-canadian";
note = uni15BC;
unicode = 5564;
},
{
glyphname = "kiBlackfoot-canadian";
lastChange = "2023-01-13 15:30:11 +0000";
layers = (
{
layerId = "A0BEBE03-9AB7-4E04-894D-4F686A7231C4";
shapes = (
{
closed = 1;
nodes = (
(45,1,l),
(274,375,l),
(246,378,l),
(317,1,l),
(375,1,l),
(527,715,l),
(463,715,l),
(327,75,l),
(352,75,l),
(282,447,l),
(251,447,l),
(-25,1,l)
);
}
);
width = 492;
}
);
metricLeft = "=|keBlackfoot-canadian";
metricRight = "nunavuth-canadian";
note = uni15BD;
unicode = 5565;
},
{
glyphname = "koBlackfoot-canadian";
lastChange = "2023-01-13 15:28:16 +0000";
layers = (
{
layerId = "A0BEBE03-9AB7-4E04-894D-4F686A7231C4";
shapes = (
{
closed = 1;
nodes = (
(71,0,l),
(307,373,l),
(279,377,l),
(349,0,l),
(412,0,l),
(326,447,l),
(295,447,l),
(65,74,l),
(92,74,l),
(228,714,l),
(165,714,l),
(13,0,l)
);
}
);
width = 491;
}
);
metricLeft = "nunavuth-canadian";
metricRight = "keBlackfoot-canadian";
note = uni15BE;
unicode = 5566;
},
{
glyphname = "kaBlackfoot-canadian";
lastChange = "2023-01-13 15:30:11 +0000";
layers = (
{
layerId = "A0BEBE03-9AB7-4E04-894D-4F686A7231C4";
shapes = (
{
closed = 1;
nodes = (
(375,1,l),
(527,715,l),
(469,715,l),
(232,342,l),
(261,338,l),
(191,715,l),
(127,715,l),
(213,268,l),
(245,268,l),
(474,641,l),
(448,641,l),
(311,1,l)
);
}
);
width = 492;
}
);
metricLeft = "=|keBlackfoot-canadian";
metricRight = "nunavuth-canadian";
note = uni15BF;
unicode = 5567;
},
{
color = 9;
glyphname = "heSayisi-canadian";
lastChange = "2023-01-13 15:28:16 +0000";
layers = (
{
anchors = (
{
name = top_right_can;
pos = (524,714);
}
);
layerId = "A0BEBE03-9AB7-4E04-894D-4F686A7231C4";
shapes = (
{
closed = 1;
nodes = (
(403,0,l),
(555,714,l),
(492,714,l),
(399,276,l),
(414,275,l),
(468,565,o),
(425,727,o),
(291,727,cs),
(198,727,o),
(134,649,o),
(100,499,cs),
(88,441,o),
(82,392,o),
(81,352,c),
(141,352,l),
(142,390,o),
(148,438,o),
(160,490,cs),
(184,605,o),
(233,670,o),
(298,670,cs),
(423,670,o),
(439,445,o),
(339,0,c)
);
}
);
width = 520;
}
);
metricRight = "nunavuth-canadian";
note = uni15C0;
unicode = 5568;
},
{
color = 9;
glyphname = "hiSayisi-canadian";
lastChange = "2023-01-13 15:28:16 +0000";
layers = (
{
layerId = "A0BEBE03-9AB7-4E04-894D-4F686A7231C4";
shapes = (
{
closed = 1;
nodes = (
(76,0,l),
(173,451,o),
(274,670,o),
(389,670,cs),
(460,670,o),
(485,588,o),
(456,448,cs),
(447,409,o),
(437,380,o),
(424,352,c),
(485,352,l),
(499,385,o),
(510,420,o),
(518,452,cs),
(552,622,o),
(511,727,o),
(409,727,cs),
(290,727,o),
(194,580,o),
(127,298,c),
(139,297,l),
(228,714,l),
(165,714,l),
(13,0,l)
);
}
);
width = 520;
}
);
metricLeft = "nunavuth-canadian";
metricRight = "=|heSayisi-canadian";
note = uni15C1;
unicode = 5569;
},
{
color = 9;
glyphname = "hoSayisi-canadian";
lastChange = "2023-01-13 15:28:16 +0000";
layers = (
{
anchors = (
{
name = top_center_can;
pos = (355,714);
},
{
name = top_left_can;
pos = (186,714);
},
{
name = top_right_can;
pos = (524,714);
}
);
layerId = "A0BEBE03-9AB7-4E04-894D-4F686A7231C4";
shapes = (
{
closed = 1;
nodes = (
(277,-13,o),
(374,134,o),
(440,416,c),
(428,417,l),
(340,0,l),
(403,0,l),
(555,714,l),
(491,714,l),
(395,263,o),
(293,44,o),
(179,44,cs),
(108,44,o),
(83,126,o),
(112,266,cs),
(121,305,o),
(130,334,o),
(143,362,c),
(82,362,l),
(68,329,o),
(57,294,o),
(50,262,cs),
(16,92,o),
(57,-13,o),
(159,-13,cs)
);
}
);
width = 520;
}
);
metricLeft = "heSayisi-canadian";
metricRight = "nunavuth-canadian";
note = uni15C2;
unicode = 5570;
},
{
color = 9;
glyphname = "haSayisi-canadian";
lastChange = "2023-01-13 15:30:11 +0000";
layers = (
{
layerId = "A0BEBE03-9AB7-4E04-894D-4F686A7231C4";
shapes = (
{
closed = 1;
nodes = (
(369,-13,o),
(434,65,o),
(467,215,cs),
(479,273,o),
(486,322,o),
(487,362,c),
(426,362,l),
(425,324,o),
(420,276,o),
(408,224,cs),
(384,109,o),
(335,44,o),
(269,44,cs),
(145,44,o),
(129,269,o),
(228,714,c),
(165,714,l),
(13,0,l),
(76,0,l),
(169,438,l),
(154,439,l),
(100,149,o),
(142,-13,o),
(276,-13,cs)
);
}
);
width = 519;
}
);
metricLeft = "nunavuth-canadian";
metricRight = "=|heSayisi-canadian";
note = uni15C3;
unicode = 5571;
},
{
color = 9;
glyphname = "ghuCarrier-canadian";
lastChange = "2023-01-13 15:28:16 +0000";
layers = (
{
layerId = "A0BEBE03-9AB7-4E04-894D-4F686A7231C4";
shapes = (
{
closed = 1;
nodes = (
(239,0,l),
(624,694,l),
(629,714,l),
(573,714,l),
(438,463,l),
(466,477,l),
(186,477,l),
(208,462,l),
(179,714,l),
(128,714,l),
(124,694,l),
(214,0,l)
);
},
{
closed = 1;
nodes = (
(440,428,l),
(427,442,l),
(235,87,l),
(253,84,l),
(211,440,l),
(191,428,l)
);
}
);
width = 557;
}
);
metricLeft = "e-canadian";
metricRight = "e-canadian";
note = uni15C4;
unicode = 5572;
},
{
color = 9;
glyphname = "ghoCarrier-canadian";
lastChange = "2023-01-13 15:30:11 +0000";
layers = (
{
layerId = "A0BEBE03-9AB7-4E04-894D-4F686A7231C4";
shapes = (
{
closed = 1;
nodes = (
(31,0,l),
(167,251,l),
(138,237,l),
(419,237,l),
(396,252,l),
(425,0,l),
(476,0,l),
(481,20,l),
(390,714,l),
(365,714,l),
(-20,20,l),
(-24,0,l)
);
},
{
closed = 1;
nodes = (
(405,335,l),
(192,338,l),
(206,274,l),
(377,578,l),
(324,579,l),
(365,271,l)
);
}
);
width = 557;
}
);
metricLeft = "e-canadian";
metricRight = "e-canadian";
note = uni15C5;
unicode = 5573;
},
{
color = 9;
glyphname = "gheCarrier-canadian";
lastChange = "2023-01-13 15:30:11 +0000";
layers = (
{
anchors = (
{
name = middle_center_can;
pos = (85,363);
}
);
layerId = "A0BEBE03-9AB7-4E04-894D-4F686A7231C4";
shapes = (
{
closed = 1;
nodes = (
(10,0,l),
(502,344,l),
(508,370,l),
(162,714,l),
(144,714,l),
(134,669,l),
(248,556,l),
(241,598,l),
(141,133,l),
(163,170,l),
(4,59,l),
(-8,0,l)
);
},
{
closed = 1;
nodes = (
(280,567,l),
(260,550,l),
(466,344,l),
(468,379,l),
(185,181,l),
(194,164,l)
);
}
);
width = 513;
}
);
metricLeft = "po-canadian";
metricRight = "o-canadian";
note = uni15C6;
unicode = 5574;
},
{
color = 9;
glyphname = "ghaCarrier-canadian";
lastChange = "2023-01-13 15:28:16 +0000";
layers = (
{
layerId = "A0BEBE03-9AB7-4E04-894D-4F686A7231C4";
shapes = (
{
closed = 1;
nodes = (
(417,0,l),
(427,45,l),
(313,158,l),
(320,116,l),
(420,581,l),
(398,544,l),
(557,655,l),
(569,714,l),
(551,714,l),
(59,370,l),
(53,344,l),
(399,0,l)
);
},
{
closed = 1;
nodes = (
(301,164,l),
(104,362,l),
(103,341,l),
(376,533,l),
(364,538,l),
(285,164,l)
);
}
);
width = 513;
}
);
metricLeft = "=|o-canadian";
metricRight = "=|po-canadian";
note = uni15C9;
unicode = 5577;
},
{
color = 9;
glyphname = "ruCarrier-canadian";
lastChange = "2023-01-13 15:28:16 +0000";
layers = (
{
layerId = "A0BEBE03-9AB7-4E04-894D-4F686A7231C4";
shapes = (
{
closed = 1;
nodes = (
(239,0,l),
(624,694,l),
(629,714,l),
(571,714,l),
(517,613,l),
(541,629,l),
(171,629,l),
(191,613,l),
(179,714,l),
(128,714,l),
(124,694,l),
(214,0,l)
);
},
{
closed = 1;
nodes = (
(517,579,l),
(510,595,l),
(235,88,l),
(253,85,l),
(192,593,l),
(176,579,l)
);
}
);
width = 557;
}
);
metricLeft = "e-canadian";
metricRight = "e-canadian";
note = uni15CA;
unicode = 5578;
},
{
color = 9;
glyphname = "roCarrier-canadian";
lastChange = "2023-01-13 15:30:11 +0000";
layers = (
{
layerId = "A0BEBE03-9AB7-4E04-894D-4F686A7231C4";
shapes = (
{
closed = 1;
nodes = (
(365,714,l),
(-20,20,l),
(-24,0,l),
(34,0,l),
(87,101,l),
(64,85,l),
(434,85,l),
(414,101,l),
(425,0,l),
(476,0,l),
(480,20,l),
(390,714,l)
);
},
{
closed = 1;
nodes = (
(88,135,l),
(95,119,l),
(370,626,l),
(351,629,l),
(412,121,l),
(429,135,l)
);
}
);
width = 556;
}
);
metricLeft = "e-canadian";
metricRight = "e-canadian";
note = uni15CB;
unicode = 5579;
},
{
color = 9;
glyphname = "reCarrier-canadian";
lastChange = "2023-01-13 15:28:16 +0000";
layers = (
{
layerId = "A0BEBE03-9AB7-4E04-894D-4F686A7231C4";
shapes = (
{
closed = 1;
nodes = (
(10,0,l),
(501,344,l),
(507,370,l),
(162,714,l),
(143,714,l),
(133,670,l),
(190,614,l),
(184,655,l),
(60,73,l),
(78,109,l),
(3,57,l),
(-9,0,l)
);
},
{
closed = 1;
nodes = (
(223,617,l),
(204,601,l),
(458,345,l),
(461,379,l),
(107,128,l),
(115,111,l)
);
}
);
width = 512;
}
);
metricLeft = "po-canadian";
metricRight = "o-canadian";
note = uni15CC;
unicode = 5580;
},
{
color = 9;
glyphname = "reeCarrier-canadian";
lastChange = "2023-01-13 15:30:11 +0000";
layers = (
{
layerId = "A0BEBE03-9AB7-4E04-894D-4F686A7231C4";
shapes = (
{
closed = 1;
nodes = (
(10,0,l),
(502,344,l),
(508,370,l),
(162,714,l),
(144,714,l),
(135,675,l),
(188,622,l),
(186,659,l),
(60,70,l),
(78,106,l),
(3,54,l),
(-8,0,l)
);
},
{
closed = 1;
nodes = (
(221,629,l),
(204,611,l),
(470,345,l),
(473,380,l),
(99,116,l),
(109,99,l)
);
},
{
closed = 1;
nodes = (
(229,268,l),
(269,456,l),
(241,456,l),
(201,268,l)
);
}
);
width = 513;
}
);
metricLeft = "po-canadian";
metricRight = "o-canadian";
note = uni15CD;
unicode = 5581;
},
{
color = 9;
glyphname = "riCarrier-canadian";
lastChange = "2023-01-13 15:30:11 +0000";
layers = (
{
layerId = "A0BEBE03-9AB7-4E04-894D-4F686A7231C4";
shapes = (
{
closed = 1;
nodes = (
(10,0,l),
(502,344,l),
(508,370,l),
(162,714,l),
(144,714,l),
(135,675,l),
(189,621,l),
(186,659,l),
(60,70,l),
(80,107,l),
(3,54,l),
(-8,0,l)
);
},
{
closed = 1;
nodes = (
(293,328,o),
(309,343,o),
(309,363,cs),
(309,382,o),
(293,397,o),
(274,397,cs),
(255,397,o),
(240,382,o),
(240,363,cs),
(240,343,o),
(255,328,o),
(274,328,cs)
);
},
{
closed = 1;
nodes = (
(221,629,l),
(203,613,l),
(470,345,l),
(473,380,l),
(100,117,l),
(109,99,l)
);
}
);
width = 513;
}
);
metricLeft = "po-canadian";
metricRight = "o-canadian";
note = uni15CE;
unicode = 5582;
},
{
color = 9;
glyphname = "raCarrier-canadian";
lastChange = "2023-01-13 15:28:16 +0000";
layers = (
{
layerId = "A0BEBE03-9AB7-4E04-894D-4F686A7231C4";
shapes = (
{
closed = 1;
nodes = (
(417,0,l),
(427,44,l),
(370,100,l),
(376,59,l),
(500,641,l),
(482,605,l),
(557,657,l),
(569,714,l),
(550,714,l),
(59,370,l),
(53,344,l),
(398,0,l)
);
},
{
closed = 1;
nodes = (
(356,113,l),
(102,369,l),
(99,335,l),
(453,586,l),
(445,603,l),
(337,97,l)
);
}
);
width = 513;
}
);
metricLeft = "=|o-canadian";
metricRight = "=|po-canadian";
note = uni15CF;
unicode = 5583;
},
{
color = 9;
glyphname = "wuCarrier-canadian";
lastChange = "2023-01-13 15:28:16 +0000";
layers = (
{
layerId = "A0BEBE03-9AB7-4E04-894D-4F686A7231C4";
shapes = (
{
closed = 1;
nodes = (
(241,0,l),
(629,694,l),
(634,714,l),
(578,714,l),
(273,147,l),
(284,146,l),
(405,714,l),
(354,714,l),
(232,143,l),
(243,143,l),
(177,714,l),
(128,714,l),
(124,694,l),
(217,0,l)
);
}
);
width = 562;
}
);
metricLeft = "e-canadian";
metricRight = "e-canadian";
note = uni15D0;
unicode = 5584;
},
{
color = 9;
glyphname = "woCarrier-canadian";
lastChange = "2023-01-13 15:30:11 +0000";
layers = (
{
layerId = "A0BEBE03-9AB7-4E04-894D-4F686A7231C4";
shapes = (
{
closed = 1;
nodes = (
(32,0,l),
(336,567,l),
(326,568,l),
(205,0,l),
(256,0,l),
(377,571,l),
(366,571,l),
(433,0,l),
(481,0,l),
(485,20,l),
(393,714,l),
(368,714,l),
(-20,20,l),
(-24,0,l)
);
}
);
width = 561;
}
);
metricLeft = "e-canadian";
metricRight = "e-canadian";
note = uni15D1;
unicode = 5585;
},
{
color = 9;
glyphname = "weCarrier-canadian";
lastChange = "2023-01-13 15:28:16 +0000";
layers = (
{
layerId = "A0BEBE03-9AB7-4E04-894D-4F686A7231C4";
shapes = (
{
closed = 1;
nodes = (
(29,0,l),
(521,344,l),
(527,370,l),
(181,714,l),
(163,714,l),
(153,669,l),
(444,378,l),
(448,390,l),
(94,390,l),
(83,339,l),
(437,339,l),
(439,349,l),
(23,58,l),
(11,0,l)
);
}
);
width = 532;
}
);
metricRight = "o-canadian";
note = uni15D2;
unicode = 5586;
},
{
color = 9;
glyphname = "weeCarrier-canadian";
lastChange = "2023-01-13 15:28:16 +0000";
layers = (
{
layerId = "A0BEBE03-9AB7-4E04-894D-4F686A7231C4";
shapes = (
{
closed = 1;
nodes = (
(29,0,l),
(521,344,l),
(527,370,l),
(181,714,l),
(163,714,l),
(154,671,l),
(463,366,l),
(470,386,l),
(202,386,l),
(219,464,l),
(182,464,l),
(165,386,l),
(93,386,l),
(84,343,l),
(155,343,l),
(139,265,l),
(177,265,l),
(193,343,l),
(461,343,l),
(453,356,l),
(23,55,l),
(11,0,l)
);
}
);
width = 532;
}
);
metricLeft = "weCarrier-canadian";
metricRight = "o-canadian";
note = uni15D3;
unicode = 5587;
},
{
color = 9;
glyphname = "wiCarrier-canadian";
lastChange = "2023-01-13 15:30:11 +0000";
layers = (
{
layerId = "A0BEBE03-9AB7-4E04-894D-4F686A7231C4";
shapes = (
{
closed = 1;
nodes = (
(30,0,l),
(522,344,l),
(528,370,l),
(182,714,l),
(164,714,l),
(155,671,l),
(453,375,l),
(458,388,l),
(252,388,l),
(245,408,o),
(225,422,o),
(202,422,cs),
(179,422,o),
(159,408,o),
(151,388,c),
(94,388,l),
(85,344,l),
(150,344,l),
(159,324,o),
(179,309,o),
(202,309,cs),
(224,309,o),
(245,324,o),
(253,344,c),
(450,344,l),
(446,351,l),
(24,56,l),
(12,0,l)
);
}
);
width = 533;
}
);
metricLeft = "weCarrier-canadian";
metricRight = "o-canadian";
note = uni15D4;
unicode = 5588;
},
{
color = 9;
glyphname = "waCarrier-canadian";
lastChange = "2023-01-13 15:28:16 +0000";
layers = (
{
layerId = "A0BEBE03-9AB7-4E04-894D-4F686A7231C4";
shapes = (
{
closed = 1;
nodes = (
(416,0,l),
(426,45,l),
(136,336,l),
(132,324,l),
(485,324,l),
(496,375,l),
(143,375,l),
(141,365,l),
(556,656,l),
(568,714,l),
(550,714,l),
(59,370,l),
(53,344,l),
(398,0,l)
);
}
);
width = 532;
}
);
metricLeft = "=|o-canadian";
metricRight = "=|weCarrier-canadian";
note = uni15D5;
unicode = 5589;
},
{
color = 9;
glyphname = "hwuCarrier-canadian";
lastChange = "2023-01-13 15:28:16 +0000";
layers = (
{
layerId = "A0BEBE03-9AB7-4E04-894D-4F686A7231C4";
shapes = (
{
closed = 1;
nodes = (
(241,0,l),
(629,694,l),
(634,714,l),
(581,714,l),
(449,471,l),
(470,483,l),
(349,483,l),
(399,714,l),
(357,714,l),
(307,483,l),
(186,483,l),
(204,470,l),
(174,714,l),
(128,714,l),
(124,694,l),
(217,0,l)
);
},
{
closed = 1;
nodes = (
(243,123,l),
(204,459,l),
(188,444,l),
(301,444,l),
(233,123,l)
);
},
{
closed = 1;
nodes = (
(339,444,l),
(450,444,l),
(442,458,l),
(262,124,l),
(270,120,l)
);
}
);
width = 562;
}
);
metricLeft = "e-canadian";
metricRight = "e-canadian";
note = uni15D6;
unicode = 5590;
},
{
color = 9;
glyphname = "hwoCarrier-canadian";
lastChange = "2023-01-13 15:30:11 +0000";
layers = (
{
layerId = "A0BEBE03-9AB7-4E04-894D-4F686A7231C4";
shapes = (
{
closed = 1;
nodes = (
(29,0,l),
(161,243,l),
(140,231,l),
(260,231,l),
(211,0,l),
(253,0,l),
(302,231,l),
(424,231,l),
(406,244,l),
(435,0,l),
(481,0,l),
(485,20,l),
(393,714,l),
(368,714,l),
(-20,20,l),
(-24,0,l)
);
},
{
closed = 1;
nodes = (
(347,590,l),
(339,594,l),
(271,270,l),
(159,270,l),
(167,256,l)
);
},
{
closed = 1;
nodes = (
(421,270,l),
(308,270,l),
(376,591,l),
(367,591,l),
(406,255,l)
);
}
);
width = 561;
}
);
metricLeft = "e-canadian";
metricRight = "e-canadian";
note = uni15D7;
unicode = 5591;
},
{
color = 9;
glyphname = "hweCarrier-canadian";
lastChange = "2023-01-13 15:30:11 +0000";
layers = (
{
layerId = "A0BEBE03-9AB7-4E04-894D-4F686A7231C4";
shapes = (
{
closed = 1;
nodes = (
(30,0,l),
(522,344,l),
(528,370,l),
(182,714,l),
(164,714,l),
(155,671,l),
(252,575,l),
(212,385,l),
(94,385,l),
(84,341,l),
(202,341,l),
(162,152,l),
(23,55,l),
(12,0,l)
);
},
{
closed = 1;
nodes = (
(240,344,l),
(445,344,l),
(205,177,l)
);
},
{
closed = 1;
nodes = (
(284,550,l),
(452,382,l),
(248,382,l)
);
}
);
width = 533;
}
);
metricLeft = "weCarrier-canadian";
metricRight = "o-canadian";
note = uni15D8;
unicode = 5592;
},
{
color = 9;
glyphname = "hweeCarrier-canadian";
lastChange = "2023-01-13 15:28:16 +0000";
layers = (
{
layerId = "A0BEBE03-9AB7-4E04-894D-4F686A7231C4";
shapes = (
{
closed = 1;
nodes = (
(29,0,l),
(521,344,l),
(527,370,l),
(181,714,l),
(163,714,l),
(154,674,l),
(263,567,l),
(224,383,l),
(180,383,l),
(197,463,l),
(164,463,l),
(147,383,l),
(92,383,l),
(84,344,l),
(138,344,l),
(122,265,l),
(155,265,l),
(171,344,l),
(216,344,l),
(176,160,l),
(22,53,l),
(11,0,l)
);
},
{
closed = 1;
nodes = (
(251,346,l),
(446,346,l),
(217,183,l)
);
},
{
closed = 1;
nodes = (
(293,543,l),
(452,381,l),
(258,381,l)
);
}
);
width = 532;
}
);
metricLeft = "weCarrier-canadian";
metricRight = "o-canadian";
note = uni15D9;
unicode = 5593;
},
{
color = 9;
glyphname = "hwiCarrier-canadian";
lastChange = "2023-01-13 15:30:11 +0000";
layers = (
{
layerId = "A0BEBE03-9AB7-4E04-894D-4F686A7231C4";
shapes = (
{
closed = 1;
nodes = (
(30,0,l),
(522,344,l),
(528,370,l),
(182,714,l),
(164,714,l),
(155,674,l),
(264,567,l),
(225,381,l),
(203,381,l),
(197,400,o),
(180,413,o),
(160,413,cs),
(139,413,o),
(122,400,o),
(116,381,c),
(93,381,l),
(85,346,l),
(115,346,l),
(121,327,o),
(139,312,o),
(159,312,cs),
(179,312,o),
(197,327,o),
(204,346,c),
(217,346,l),
(177,160,l),
(23,53,l),
(12,0,l)
);
},
{
closed = 1;
nodes = (
(252,346,l),
(447,346,l),
(217,183,l)
);
},
{
closed = 1;
nodes = (
(294,543,l),
(453,381,l),
(259,381,l)
);
}
);
width = 533;
}
);
metricLeft = "weCarrier-canadian";
metricRight = "o-canadian";
note = uni15DA;
unicode = 5594;
},
{
color = 9;
glyphname = "hwaCarrier-canadian";
lastChange = "2023-01-13 15:28:16 +0000";
layers = (
{
layerId = "A0BEBE03-9AB7-4E04-894D-4F686A7231C4";
shapes = (
{
closed = 1;
nodes = (
(551,714,l),
(59,370,l),
(53,344,l),
(399,0,l),
(417,0,l),
(426,43,l),
(329,139,l),
(369,329,l),
(486,329,l),
(496,373,l),
(379,373,l),
(419,562,l),
(557,659,l),
(569,714,l)
);
},
{
closed = 1;
nodes = (
(340,370,l),
(136,370,l),
(376,537,l)
);
},
{
closed = 1;
nodes = (
(297,164,l),
(129,332,l),
(332,332,l)
);
}
);
width = 532;
}
);
metricLeft = "=|o-canadian";
metricRight = "=|weCarrier-canadian";
note = uni15DB;
unicode = 5595;
},
{
color = 9;
glyphname = "thuCarrier-canadian";
lastChange = "2023-01-13 15:30:11 +0000";
layers = (
{
layerId = "A0BEBE03-9AB7-4E04-894D-4F686A7231C4";
shapes = (
{
closed = 1;
nodes = (
(385,-13,o),
(464,62,o),
(497,220,cs),
(602,714,l),
(161,714,l),
(63,253,ls),
(28,85,o),
(99,-13,o),
(256,-13,cs)
);
},
{
closed = 1;
nodes = (
(213,656,l),
(527,656,l),
(436,227,ls),
(409,102,o),
(354,47,o),
(259,47,cs),
(139,47,o),
(97,114,o),
(126,250,cs)
);
}
);
width = 563;
}
);
metricLeft = "te-canadian";
metricRight = "te-canadian";
note = uni15DC;
unicode = 5596;
},
{
color = 9;
glyphname = "thoCarrier-canadian";
lastChange = "2023-01-13 15:30:11 +0000";
layers = (
{
layerId = "A0BEBE03-9AB7-4E04-894D-4F686A7231C4";
shapes = (
{
closed = 1;
nodes = (
(450,0,l),
(548,461,ls),
(584,629,o),
(513,727,o),
(356,727,cs),
(227,727,o),
(148,652,o),
(114,494,cs),
(9,0,l)
);
},
{
closed = 1;
nodes = (
(176,487,ls),
(203,612,o),
(258,667,o),
(353,667,cs),
(473,667,o),
(515,600,o),
(486,464,cs),
(399,58,l),
(85,58,l)
);
}
);
width = 563;
}
);
metricLeft = "te-canadian";
metricRight = "te-canadian";
note = uni15DD;
unicode = 5597;
},
{
color = 9;
glyphname = "theCarrier-canadian";
lastChange = "2023-01-13 15:30:11 +0000";
layers = (
{
anchors = (
{
name = middle_center_can;
pos = (297,357);
}
);
layerId = "A0BEBE03-9AB7-4E04-894D-4F686A7231C4";
shapes = (
{
closed = 1;
nodes = (
(153,0,ls),
(445,0,o),
(530,301,o),
(530,476,cs),
(530,632,o),
(448,714,o),
(291,714,cs),
(165,714,l),
(13,0,l)
);
},
{
closed = 1;
nodes = (
(222,686,l),
(197,657,l),
(280,657,ls),
(405,657,o),
(468,597,o),
(468,475,cs),
(468,338,o),
(401,57,o),
(159,57,cs),
(74,57,l),
(83,31,l)
);
}
);
width = 544;
}
);
metricLeft = "nunavuth-canadian";
metricRight = "to-canadian";
note = uni15DE;
unicode = 5598;
},
{
color = 9;
glyphname = "thaCarrier-canadian";
lastChange = "2023-01-13 15:28:16 +0000";
layers = (
{
layerId = "A0BEBE03-9AB7-4E04-894D-4F686A7231C4";
shapes = (
{
closed = 1;
nodes = (
(427,0,l),
(579,714,l),
(439,714,ls),
(147.006,714,o),
(61,413,o),
(61,238,cs),
(61,82,o),
(144,0,o),
(301,0,cs)
);
},
{
closed = 1;
nodes = (
(123,376,o),
(190,657,o),
(432,657,cs),
(518,657,l),
(509,683,l),
(370,28,l),
(395,57,l),
(311,57,ls),
(187,57,o),
(123,117,o),
(123,239,cs)
);
}
);
width = 544;
}
);
metricLeft = "=|theCarrier-canadian";
metricRight = "nunavuth-canadian";
note = uni15E1;
unicode = 5601;
},
{
color = 9;
glyphname = "ttuCarrier-canadian";
lastChange = "2023-01-13 15:28:16 +0000";
layers = (
{
layerId = "A0BEBE03-9AB7-4E04-894D-4F686A7231C4";
shapes = (
{
closed = 1;
nodes = (
(383,-13,o),
(463,62,o),
(496,211,cs),
(602,714,l),
(579,714,l),
(316,514,l),
(356,509,l),
(186,714,l),
(161,714,l),
(62,245,ls),
(27,81,o),
(96,-13,o),
(250,-13,cs)
);
},
{
closed = 1;
nodes = (
(140,47,o),
(97,113,o),
(124,242,cs),
(210,645,l),
(186,637,l),
(322,468,l),
(338,468,l),
(545,631,l),
(524,645,l),
(434,219,ls),
(409,101,o),
(352,47,o),
(253,47,cs)
);
}
);
width = 564;
}
);
metricLeft = "te-canadian";
metricRight = "te-canadian";
note = uni15E2;
unicode = 5602;
},
{
color = 9;
glyphname = "ttoCarrier-canadian";
lastChange = "2023-01-13 15:30:11 +0000";
layers = (
{
layerId = "A0BEBE03-9AB7-4E04-894D-4F686A7231C4";
shapes = (
{
closed = 1;
nodes = (
(33,0,l),
(296,200,l),
(256,205,l),
(425,0,l),
(450,0,l),
(550,469,ls),
(585,633,o),
(515,727,o),
(361,727,cs),
(229,727,o),
(148,652,o),
(116,503,cs),
(9,0,l)
);
},
{
closed = 1;
nodes = (
(472,667,o),
(515,601,o),
(487,472,cs),
(402,69,l),
(425,77,l),
(290,246,l),
(274,246,l),
(67,83,l),
(88,69,l),
(178,495,ls),
(203,613,o),
(260,667,o),
(359,667,cs)
);
}
);
width = 563;
}
);
metricLeft = "te-canadian";
metricRight = "te-canadian";
note = uni15E3;
unicode = 5603;
},
{
color = 9;
glyphname = "tteCarrier-canadian";
lastChange = "2023-01-13 15:30:11 +0000";
layers = (
{
anchors = (
{
name = middle_center_can;
pos = (339,357);
}
);
layerId = "A0BEBE03-9AB7-4E04-894D-4F686A7231C4";
shapes = (
{
closed = 1;
nodes = (
(162,0,ls),
(456,0,o),
(540,303,o),
(540,476,cs),
(540,632,o),
(457,714,o),
(303,714,cs),
(161,714,l),
(156,694,l),
(181,336,l),
(190,390,l),
(14,20,l),
(9,0,l)
);
},
{
closed = 1;
nodes = (
(237,348,l),
(240,363,l),
(216,685,l),
(194,657,l),
(290,657,ls),
(415,657,o),
(479,597,o),
(479,475,cs),
(479,338,o),
(411,57,o),
(169,57,cs),
(71,57,l),
(85,31,l)
);
}
);
width = 554;
}
);
metricRight = "theCarrier-canadian";
note = uni15E4;
unicode = 5604;
},
{
color = 9;
glyphname = "ttaCarrier-canadian";
lastChange = "2023-01-13 15:28:16 +0000";
layers = (
{
layerId = "A0BEBE03-9AB7-4E04-894D-4F686A7231C4";
shapes = (
{
closed = 1;
nodes = (
(440,0,l),
(445,20,l),
(420,378,l),
(411,324,l),
(587,694,l),
(592,714,l),
(439,714,ls),
(145,714,o),
(61,411,o),
(61,238,cs),
(61,82,o),
(144,0,o),
(297.998,0,cs)
);
},
{
closed = 1;
nodes = (
(407,57,l),
(311,57,ls),
(186,57,o),
(123,117,o),
(123,239,cs),
(123,376,o),
(190,657,o),
(432,657,cs),
(530,657,l),
(516,683,l),
(364,366,l),
(361,351,l),
(385,29,l)
);
}
);
width = 553;
}
);
metricLeft = "=|theCarrier-canadian";
metricRight = "=|tteCarrier-canadian";
note = uni15E7;
unicode = 5607;
},
{
color = 9;
glyphname = "puCarrier-canadian";
lastChange = "2023-01-13 15:30:11 +0000";
layers = (
{
layerId = "A0BEBE03-9AB7-4E04-894D-4F686A7231C4";
shapes = (
{
closed = 1;
nodes = (
(385,-13,o),
(464,62,o),
(497,220,cs),
(602,714,l),
(539,714,l),
(501,535,l),
(187,535,l),
(225,714,l),
(161,714,l),
(63,253,ls),
(28,85,o),
(99,-13,o),
(256,-13,cs)
);
},
{
closed = 1;
nodes = (
(139,47,o),
(97,114,o),
(126,250,cs),
(175,478,l),
(489,478,l),
(436,227,ls),
(409,102,o),
(354,47,o),
(259,47,cs)
);
}
);
width = 563;
}
);
metricLeft = "te-canadian";
metricRight = "te-canadian";
note = uni15E8;
unicode = 5608;
},
{
color = 9;
glyphname = "poCarrier-canadian";
lastChange = "2023-01-13 15:30:11 +0000";
layers = (
{
layerId = "A0BEBE03-9AB7-4E04-894D-4F686A7231C4";
shapes = (
{
closed = 1;
nodes = (
(73,0,l),
(111,179,l),
(425,179,l),
(387,0,l),
(450,0,l),
(548,461,ls),
(584,629,o),
(513,727,o),
(356,727,cs),
(227,727,o),
(148,652,o),
(114,494,cs),
(9,0,l)
);
},
{
closed = 1;
nodes = (
(176,487,ls),
(203,612,o),
(258,667,o),
(353,667,cs),
(473,667,o),
(515,600,o),
(486,464,cs),
(437,236,l),
(123,236,l)
);
}
);
width = 563;
}
);
metricLeft = "te-canadian";
metricRight = "te-canadian";
note = uni15E9;
unicode = 5609;
},
{
color = 9;
glyphname = "peCarrier-canadian";
lastChange = "2023-01-13 15:28:16 +0000";
layers = (
{
anchors = (
{
name = middle_center_can;
pos = (329,357);
}
);
layerId = "A0BEBE03-9AB7-4E04-894D-4F686A7231C4";
shapes = (
{
closed = 1;
nodes = (
(159,0,ls),
(451,0,o),
(537,302,o),
(537,476,cs),
(537,632,o),
(454,714,o),
(300,714,cs),
(158,714,l),
(146,657,l),
(215,657,l),
(88,57,l),
(18,57,l),
(6,0,l)
);
},
{
closed = 1;
nodes = (
(284,685,l),
(224,657,l),
(287,657,ls),
(412,657,o),
(475,597,o),
(475,475,cs),
(475,339,o),
(409,57,o),
(166,57,cs),
(97,57,l),
(145,29,l)
);
}
);
width = 550;
}
);
metricRight = "theCarrier-canadian";
note = uni15EA;
unicode = 5610;
},
{
color = 9;
glyphname = "paCarrier-canadian";
lastChange = "2023-01-13 15:28:16 +0000";
layers = (
{
layerId = "A0BEBE03-9AB7-4E04-894D-4F686A7231C4";
shapes = (
{
closed = 1;
nodes = (
(440,0,l),
(452,57,l),
(383,57,l),
(510,657,l),
(580,657,l),
(592,714,l),
(439,714,ls),
(147,714,o),
(61,412,o),
(61,238,cs),
(61,82,o),
(144,0,o),
(298,0,cs)
);
},
{
closed = 1;
nodes = (
(374,57,l),
(311,57,ls),
(186,57,o),
(123,117,o),
(123,239,cs),
(123,375,o),
(190,657,o),
(432,657,cs),
(502,657,l),
(453,685,l),
(314,29,l)
);
}
);
width = 550;
}
);
metricLeft = "=|theCarrier-canadian";
metricRight = "=|peCarrier-canadian";
note = uni15ED;
unicode = 5613;
},
{
color = 6;
glyphname = "pCarrier-canadian";
lastChange = "2023-01-13 15:30:11 +0000";
layers = (
{
layerId = "A0BEBE03-9AB7-4E04-894D-4F686A7231C4";
shapes = (
{
closed = 1;
nodes = (
(292,189,l),
(302,233,l),
(199,233,l),
(265,546,l),
(220,546,l),
(154,233,l),
(51,233,l),
(42,189,l)
);
}
);
width = 357;
}
);
metricLeft = "shorthorizontalstrokeFinal-canadian";
metricRight = "shorthorizontalstrokeFinal-canadian";
note = uni15EE;
unicode = 5614;
},
{
color = 9;
glyphname = "guCarrier-canadian";
lastChange = "2023-01-13 15:30:11 +0000";
layers = (
{
anchors = (
{
name = top_center_can;
pos = (434,714);
}
);
layerId = "A0BEBE03-9AB7-4E04-894D-4F686A7231C4";
shapes = (
{
closed = 1;
nodes = (
(233,-13,o),
(288,32,o),
(321,117,c),
(298,117,l),
(300,34,o),
(345,-13,o),
(421,-13,cs),
(512,-13,o),
(568,50,o),
(595,176,cs),
(709,714,l),
(648,714,l),
(534,177,ls),
(516,89,o),
(479,46,o),
(419,46,cs),
(358,46,o),
(332,92,o),
(350,177,cs),
(464,714,l),
(405,714,l),
(291,176,ls),
(272,91,o),
(233,46,o),
(172,46,cs),
(112,46,o),
(87,90,o),
(105,176,cs),
(219,714,l),
(158,714,l),
(45,179,ls),
(20,60,o),
(63,-13,o),
(159,-13,cs)
);
}
);
width = 668;
}
);
metricRight = "=|";
note = uni15EF;
unicode = 5615;
},
{
color = 9;
glyphname = "goCarrier-canadian";
lastChange = "2023-01-13 15:30:11 +0000";
layers = (
{
layerId = "A0BEBE03-9AB7-4E04-894D-4F686A7231C4";
shapes = (
{
closed = 1;
nodes = (
(67,0,l),
(181,537,ls),
(199,625,o),
(236,668,o),
(295,668,cs),
(357,668,o),
(383,622,o),
(365,537,cs),
(251,0,l),
(310,0,l),
(424,538,ls),
(442,623,o),
(481,668,o),
(542,668,cs),
(603,668,o),
(627,624,o),
(609,538,cs),
(495,0,l),
(556,0,l),
(669,535,ls),
(694,654,o),
(651,727,o),
(555,727,cs),
(481,727,o),
(427,682,o),
(394,597,c),
(416,597,l),
(415,680,o),
(370,727,o),
(294,727,cs),
(202,727,o),
(146,664,o),
(120,538,cs),
(6,0,l)
);
}
);
width = 666;
}
);
metricLeft = "guCarrier-canadian";
metricRight = "guCarrier-canadian";
note = uni15F0;
unicode = 5616;
},
{
color = 9;
glyphname = "geCarrier-canadian";
lastChange = "2023-01-13 15:28:16 +0000";
layers = (
{
anchors = (
{
name = top_center_can;
pos = (379,714);
}
);
layerId = "A0BEBE03-9AB7-4E04-894D-4F686A7231C4";
shapes = (
{
closed = 1;
nodes = (
(251,0,ls),
(432,0,o),
(481,125,o),
(481,225,cs),
(481,299,o),
(446,351,o),
(383,365,c),
(382,343,l),
(510,367,o),
(552,469,o),
(552,555,cs),
(552,649,o),
(489,714,o),
(389,714,cs),
(165,714,l),
(153,660,l),
(380,660,ls),
(448,660,o),
(488,617,o),
(488,550,cs),
(488,465,o),
(444,384,o),
(322,384,cs),
(95,384,l),
(83,330,l),
(311,330,ls),
(382,330,o),
(420,296,o),
(420,230,cs),
(420,178,o),
(407,54,o),
(255,54,cs),
(25,54,l),
(14,0,l)
);
}
);
width = 553;
}
);
metricLeft = "nunavuth-canadian";
note = uni15F1;
unicode = 5617;
},
{
color = 9;
glyphname = "geeCarrier-canadian";
lastChange = "2023-01-13 15:28:16 +0000";
layers = (
{
layerId = "A0BEBE03-9AB7-4E04-894D-4F686A7231C4";
shapes = (
{
closed = 1;
nodes = (
(251,0,ls),
(432,0,o),
(481,125,o),
(481,225,cs),
(481,299,o),
(446,351,o),
(383,365,c),
(382,343,l),
(510,367,o),
(552,469,o),
(552,555,cs),
(552,649,o),
(489,714,o),
(389,714,cs),
(165,714,l),
(153,660,l),
(380,660,ls),
(448,660,o),
(488,617,o),
(488,550,cs),
(488,465,o),
(444,384,o),
(322,384,cs),
(299,384,l),
(317,468,l),
(276,468,l),
(258,384,l),
(95,384,l),
(83,330,l),
(247,330,l),
(229,248,l),
(270,248,l),
(288,330,l),
(311,330,ls),
(382,330,o),
(420,296,o),
(420,230,cs),
(420,178,o),
(407,54,o),
(255,54,cs),
(25,54,l),
(14,0,l)
);
}
);
width = 553;
}
);
metricLeft = "geCarrier-canadian";
metricRight = "geCarrier-canadian";
note = uni15F2;
unicode = 5618;
},
{
color = 9;
glyphname = "giCarrier-canadian";
lastChange = "2023-01-13 15:28:16 +0000";
layers = (
{
layerId = "A0BEBE03-9AB7-4E04-894D-4F686A7231C4";
shapes = (
{
closed = 1;
nodes = (
(251,0,ls),
(432,0,o),
(481,125,o),
(481,225,cs),
(481,298,o),
(446,351,o),
(383,365,c),
(382,343,l),
(510,367,o),
(552,470,o),
(552,555,cs),
(552,649,o),
(489,714,o),
(389,714,cs),
(165,714,l),
(153,660,l),
(380,660,ls),
(448,660,o),
(488,617,o),
(488,550,cs),
(488,465,o),
(444,384,o),
(322,384,cs),
(313,384,l),
(332,366,l),
(329,395,o),
(304,418,o),
(273,418,cs),
(250,418,o),
(230,404,o),
(221,384,c),
(95,384,l),
(83,330,l),
(221,330,l),
(230,310,o),
(250,296,o),
(273,296,cs),
(304,296,o),
(329,319,o),
(331,348,c),
(304,330,l),
(311,330,ls),
(382,330,o),
(420,296,o),
(420,230,cs),
(420,178,o),
(407,54,o),
(255,54,cs),
(25,54,l),
(14,0,l)
);
}
);
width = 553;
}
);
metricLeft = "geCarrier-canadian";
metricRight = "geCarrier-canadian";
note = uni15F3;
unicode = 5619;
},
{
color = 9;
glyphname = "gaCarrier-canadian";
lastChange = "2023-01-13 15:30:11 +0000";
layers = (
{
anchors = (
{
name = top_center_can;
pos = (389,714);
}
);
layerId = "A0BEBE03-9AB7-4E04-894D-4F686A7231C4";
shapes = (
{
closed = 1;
nodes = (
(436,0,l),
(447,54,l),
(220,54,ls),
(152,54,o),
(112,97,o),
(112,164,cs),
(112,249,o),
(156,330,o),
(278,330,cs),
(507,330,l),
(518,384,l),
(289,384,ls),
(219,384,o),
(181,418,o),
(181,484,cs),
(181,536,o),
(193,660,o),
(346,660,cs),
(575,660,l),
(587,714,l),
(350,714,ls),
(169,714,o),
(119,589,o),
(119,489,cs),
(119,415,o),
(155,363,o),
(218,349,c),
(219,371,l),
(90,347,o),
(49,245,o),
(49,159,cs),
(49,65,o),
(111,0,o),
(211,0,cs)
);
}
);
width = 554;
}
);
metricLeft = "=|geCarrier-canadian";
metricRight = "=|geCarrier-canadian";
note = uni15F4;
unicode = 5620;
},
{
color = 9;
glyphname = "khuCarrier-canadian";
lastChange = "2023-01-13 15:30:11 +0000";
layers = (
{
layerId = "A0BEBE03-9AB7-4E04-894D-4F686A7231C4";
shapes = (
{
closed = 1;
nodes = (
(230,-13,o),
(283,28,o),
(315,106,c),
(299,107,l),
(303,31,o),
(347,-13,o),
(421,-13,cs),
(512,-13,o),
(568,50,o),
(595,176,cs),
(709,714,l),
(158,714,l),
(45,179,ls),
(20,60,o),
(63,-13,o),
(159,-13,cs)
);
},
{
closed = 1;
nodes = (
(112,46,o),
(87,90,o),
(105,176,cs),
(207,657,l),
(393,657,l),
(291,176,ls),
(272,91,o),
(233,46,o),
(172,46,cs)
);
},
{
closed = 1;
nodes = (
(358,46,o),
(332,92,o),
(350,177,cs),
(452,657,l),
(636,657,l),
(534,177,ls),
(516,89,o),
(479,46,o),
(419,46,cs)
);
}
);
width = 668;
}
);
metricLeft = "guCarrier-canadian";
metricRight = "guCarrier-canadian";
note = uni15F5;
unicode = 5621;
},
{
color = 9;
glyphname = "khoCarrier-canadian";
lastChange = "2023-01-13 15:30:12 +0000";
layers = (
{
layerId = "A0BEBE03-9AB7-4E04-894D-4F686A7231C4";
shapes = (
{
closed = 1;
nodes = (
(556,0,l),
(669,535,ls),
(694,654,o),
(651,727,o),
(555,727,cs),
(484,727,o),
(431,686,o),
(399,608,c),
(416,607,l),
(411,683,o),
(367,727,o),
(294,727,cs),
(202,727,o),
(146,664,o),
(120,538,cs),
(6,0,l)
);
},
{
closed = 1;
nodes = (
(180,537,ls),
(199,625,o),
(235,668,o),
(295,668,cs),
(357,668,o),
(383,622,o),
(365,537,cs),
(262,57,l),
(79,57,l)
);
},
{
closed = 1;
nodes = (
(424,538,ls),
(442,623,o),
(481,668,o),
(542,668,cs),
(603,668,o),
(627,624,o),
(609,538,cs),
(507,57,l),
(322,57,l)
);
}
);
width = 666;
}
);
metricLeft = "guCarrier-canadian";
metricRight = "guCarrier-canadian";
note = uni15F6;
unicode = 5622;
},
{
color = 9;
glyphname = "kheCarrier-canadian";
lastChange = "2023-01-13 15:28:16 +0000";
layers = (
{
layerId = "A0BEBE03-9AB7-4E04-894D-4F686A7231C4";
shapes = (
{
closed = 1;
nodes = (
(253,0,ls),
(434,0,o),
(483,124,o),
(483,225,cs),
(483,298,o),
(448,350,o),
(386,364,c),
(386,343,l),
(519,370,o),
(554,476,o),
(554,555,cs),
(554,649,o),
(491,714,o),
(389,714,cs),
(165,714,l),
(13,0,l)
);
},
{
closed = 1;
nodes = (
(146,330,l),
(313,330,ls),
(383,330,o),
(421,296,o),
(421,230,cs),
(421,177,o),
(409,54,o),
(257,54,cs),
(87,54,l)
);
},
{
closed = 1;
nodes = (
(216,660,l),
(382,660,ls),
(450,660,o),
(490,617,o),
(490,550,cs),
(490,469,o),
(449,384,o),
(324,384,cs),
(158,384,l)
);
}
);
width = 555;
}
);
metricLeft = "nunavuth-canadian";
metricRight = "geCarrier-canadian";
note = uni15F7;
unicode = 5623;
},
{
color = 9;
glyphname = "kheeCarrier-canadian";
lastChange = "2023-01-13 15:28:16 +0000";
layers = (
{
layerId = "A0BEBE03-9AB7-4E04-894D-4F686A7231C4";
shapes = (
{
closed = 1;
nodes = (
(253,0,ls),
(434,0,o),
(483,124,o),
(483,225,cs),
(483,298,o),
(448,350,o),
(386,364,c),
(386,343,l),
(519,370,o),
(554,476,o),
(554,555,cs),
(554,649,o),
(491,714,o),
(389,714,cs),
(165,714,l),
(13,0,l)
);
},
{
closed = 1;
nodes = (
(146,330,l),
(262,330,l),
(243,239,l),
(281,239,l),
(303,346,l),
(281,330,l),
(313,330,ls),
(383,330,o),
(421,296,o),
(421,230,cs),
(421,177,o),
(409,54,o),
(257,54,cs),
(87,54,l)
);
},
{
closed = 1;
nodes = (
(331,477,l),
(293,477,l),
(273,384,l),
(158,384,l),
(216,660,l),
(382,660,ls),
(450,660,o),
(490,617,o),
(490,550,cs),
(490,469,o),
(449,384,o),
(324,384,cs),
(293,384,l),
(308,369,l)
);
}
);
width = 555;
}
);
metricLeft = "nunavuth-canadian";
metricRight = "geCarrier-canadian";
note = uni15F8;
unicode = 5624;
},
{
color = 9;
glyphname = "khiCarrier-canadian";
lastChange = "2023-01-13 15:28:16 +0000";
layers = (
{
layerId = "A0BEBE03-9AB7-4E04-894D-4F686A7231C4";
shapes = (
{
closed = 1;
nodes = (
(253,0,ls),
(434,0,o),
(483,124,o),
(483,225,cs),
(483,294,o),
(452,344,o),
(396,362,c),
(388,343,l),
(519,371,o),
(554,476,o),
(554,555,cs),
(554,649,o),
(491,714,o),
(389,714,cs),
(165,714,l),
(13,0,l)
);
},
{
closed = 1;
nodes = (
(146,333,l),
(233,333,l),
(241,311,o),
(262,296,o),
(286,296,cs),
(317,296,o),
(342,321,o),
(344,352,c),
(298,333,l),
(316,333,ls),
(386,333,o),
(421,298,o),
(421,232,cs),
(421,178,o),
(409,54,o),
(257,54,cs),
(87,54,l)
);
},
{
closed = 1;
nodes = (
(382,660,ls),
(450,660,o),
(490,616,o),
(490,549,cs),
(490,467,o),
(452,381,o),
(327,381,cs),
(309,381,l),
(344,362,l),
(342,393,o),
(317,418,o),
(286,418,cs),
(255,418,o),
(229,393,o),
(229,362,c),
(246,381,l),
(157,381,l),
(216,660,l)
);
}
);
width = 555;
}
);
metricLeft = "nunavuth-canadian";
metricRight = "geCarrier-canadian";
note = uni15F9;
unicode = 5625;
},
{
color = 9;
glyphname = "khaCarrier-canadian";
lastChange = "2023-01-13 15:30:12 +0000";
layers = (
{
layerId = "A0BEBE03-9AB7-4E04-894D-4F686A7231C4";
shapes = (
{
closed = 1;
nodes = (
(440,0,l),
(592,714,l),
(352,714,ls),
(170,714,o),
(121,590,o),
(121,489,cs),
(121,416,o),
(156,364,o),
(218,350,c),
(216,371,l),
(84,344,o),
(49,238,o),
(49,159,cs),
(49,65,o),
(111,0,o),
(214,0,cs)
);
},
{
closed = 1;
nodes = (
(153,54,o),
(112,97,o),
(112,164,cs),
(112,245,o),
(155,330,o),
(280,330,cs),
(447,330,l),
(388,54,l),
(220,54,ls)
);
},
{
closed = 1;
nodes = (
(221,384,o),
(183,418,o),
(183,484,cs),
(183,537,o),
(195,660,o),
(347,660,cs),
(517,660,l),
(458,384,l),
(291,384,ls)
);
}
);
width = 557;
}
);
metricLeft = "=|geCarrier-canadian";
metricRight = "nunavuth-canadian";
note = uni15FA;
unicode = 5626;
},
{
color = 9;
glyphname = "kkuCarrier-canadian";
lastChange = "2023-01-13 15:30:12 +0000";
layers = (
{
layerId = "A0BEBE03-9AB7-4E04-894D-4F686A7231C4";
shapes = (
{
closed = 1;
nodes = (
(230,-13,o),
(283,28,o),
(315,106,c),
(299,106,l),
(303,31,o),
(348,-13,o),
(421,-13,cs),
(512,-13,o),
(568,50,o),
(595,176,cs),
(709,714,l),
(684,714,l),
(413,541,l),
(401,474,l),
(654,637,l),
(636,657,l),
(534,177,ls),
(516,89,o),
(479,46,o),
(419,46,cs),
(358,46,o),
(331,92,o),
(349,177,cs),
(463,714,l),
(405,714,l),
(291,176,ls),
(273,91,o),
(233,46,o),
(172,46,cs),
(112,46,o),
(87,91,o),
(105,176,cs),
(207,657,l),
(179,650,l),
(364,484,l),
(376,543,l),
(183.997,714,l),
(158,714,l),
(45,179,ls),
(20,60,o),
(63,-13,o),
(159,-13,cs)
);
}
);
width = 668;
}
);
metricLeft = "guCarrier-canadian";
metricRight = "guCarrier-canadian";
note = uni15FB;
unicode = 5627;
},
{
color = 9;
glyphname = "kkoCarrier-canadian";
lastChange = "2023-01-13 15:30:12 +0000";
layers = (
{
layerId = "A0BEBE03-9AB7-4E04-894D-4F686A7231C4";
shapes = (
{
closed = 1;
nodes = (
(30,0,l),
(301,173,l),
(314,240,l),
(60,77,l),
(79,57,l),
(181,537,ls),
(199,625,o),
(235,668,o),
(295,668,cs),
(356,668,o),
(383,622,o),
(365,537,cs),
(251,0,l),
(309,0,l),
(423,538,ls),
(441,623,o),
(481,668,o),
(542,668,cs),
(603,668,o),
(627,623,o),
(609,538,cs),
(508,57,l),
(535,64,l),
(350,230,l),
(338,171,l),
(530,0,l),
(556,0,l),
(669,535,ls),
(694,654,o),
(651,727,o),
(555,727,cs),
(484,727,o),
(431,686,o),
(399,608,c),
(416,608,l),
(411,683,o),
(367,727,o),
(294,727,cs),
(202,727,o),
(146,664,o),
(120,538,cs),
(6,0,l)
);
}
);
width = 666;
}
);
metricLeft = "guCarrier-canadian";
metricRight = "guCarrier-canadian";
note = uni15FC;
unicode = 5628;
},
{
color = 9;
glyphname = "kkeCarrier-canadian";
lastChange = "2023-01-13 15:28:16 +0000";
layers = (
{
layerId = "A0BEBE03-9AB7-4E04-894D-4F686A7231C4";
shapes = (
{
closed = 1;
nodes = (
(266,0,ls),
(447,0,o),
(497,125,o),
(497,225,cs),
(497,299,o),
(462,350,o),
(400,363,c),
(400,343,l),
(533,370,o),
(567,476,o),
(567,555,cs),
(567,649,o),
(505,714,o),
(405,714,cs),
(164,714,l),
(160,694,l),
(181,384,l),
(97,384,l),
(85,330,l),
(167,330,l),
(17,20,l),
(12,0,l)
);
},
{
closed = 1;
nodes = (
(231,330,l),
(327,330,ls),
(397,330,o),
(435,296,o),
(435,230,cs),
(435,180,o),
(423,54,o),
(270,54,cs),
(70,54,l),
(84,29,l)
);
},
{
closed = 1;
nodes = (
(219,688,l),
(194,660,l),
(396,660,ls),
(464,660,o),
(504,617,o),
(504,550,cs),
(504,465,o),
(460,384,o),
(338,384,cs),
(240,384,l)
);
}
);
width = 569;
}
);
metricRight = "geCarrier-canadian";
note = uni15FD;
unicode = 5629;
},
{
color = 9;
glyphname = "kkeeCarrier-canadian";
lastChange = "2023-01-13 15:28:16 +0000";
layers = (
{
layerId = "A0BEBE03-9AB7-4E04-894D-4F686A7231C4";
shapes = (
{
closed = 1;
nodes = (
(266,0,ls),
(447,0,o),
(497,125,o),
(497,225,cs),
(497,299,o),
(462,350,o),
(400,363,c),
(400,343,l),
(533,370,o),
(567,476,o),
(567,555,cs),
(567,649,o),
(505,714,o),
(405,714,cs),
(164,714,l),
(160,694,l),
(181,384,l),
(97,384,l),
(85,330,l),
(167,330,l),
(17,20,l),
(12,0,l)
);
},
{
closed = 1;
nodes = (
(232,332,l),
(295,332,l),
(276,239,l),
(314,239,l),
(336,348,l),
(313,332,l),
(332,332,ls),
(400,332,o),
(435,296,o),
(435,230,cs),
(435,180,o),
(423,54,o),
(270,54,cs),
(70,54,l),
(84,29,l)
);
},
{
closed = 1;
nodes = (
(364,477,l),
(326,477,l),
(306,383,l),
(240,383,l),
(219,688,l),
(194,660,l),
(396,660,ls),
(464,660,o),
(504,617,o),
(504,550,cs),
(504,465,o),
(460,383,o),
(340,383,cs),
(323,383,l),
(341,370,l)
);
}
);
width = 569;
}
);
metricLeft = "kkeCarrier-canadian";
metricRight = "geCarrier-canadian";
note = uni15FE;
unicode = 5630;
},
{
color = 9;
glyphname = "kkiCarrier-canadian";
lastChange = "2023-01-13 15:28:16 +0000";
layers = (
{
layerId = "A0BEBE03-9AB7-4E04-894D-4F686A7231C4";
shapes = (
{
closed = 1;
nodes = (
(266,0,ls),
(447,0,o),
(497,125,o),
(497,225,cs),
(497,299,o),
(462,350,o),
(400,363,c),
(400,343,l),
(533,370,o),
(567,476,o),
(567,555,cs),
(567,649,o),
(505,714,o),
(405,714,cs),
(164,714,l),
(160,694,l),
(181,384,l),
(97,384,l),
(85,330,l),
(167,330,l),
(17,20,l),
(12,0,l)
);
},
{
closed = 1;
nodes = (
(233,334,l),
(256,334,l),
(264,312,o),
(285,296,o),
(309,296,cs),
(335,296,o),
(358,315,o),
(362,340,c),
(311,334,l),
(332,334,ls),
(403,334,o),
(435,296,o),
(435,230,cs),
(435,180,o),
(423,54,o),
(270,54,cs),
(70,54,l),
(84,29,l)
);
},
{
closed = 1;
nodes = (
(360,398,o),
(337,418,o),
(309,418,cs),
(285,418,o),
(264,402,o),
(256,380,c),
(241,380,l),
(219,688,l),
(194,660,l),
(396,660,ls),
(464,660,o),
(504,617,o),
(504,550,cs),
(504,465,o),
(463,380,o),
(340,380,cs),
(311,380,l),
(364,371,l)
);
}
);
width = 569;
}
);
metricLeft = "kkeCarrier-canadian";
metricRight = "geCarrier-canadian";
note = uni15FF;
unicode = 5631;
},
{
color = 9;
glyphname = "kkaCarrier-canadian";
lastChange = "2023-01-13 15:30:12 +0000";
layers = (
{
layerId = "A0BEBE03-9AB7-4E04-894D-4F686A7231C4";
shapes = (
{
closed = 1;
nodes = (
(452,0,l),
(456,20,l),
(435,330,l),
(520,330,l),
(532,384,l),
(449,384,l),
(599,694,l),
(604,714,l),
(350,714,ls),
(169,714,o),
(119,589,o),
(119,489,cs),
(119,415,o),
(154,364,o),
(216,351,c),
(216,371,l),
(84,344,o),
(49,238,o),
(49,159,cs),
(49,65,o),
(111,0,o),
(211,0,cs)
);
},
{
closed = 1;
nodes = (
(422,54,l),
(220,54,ls),
(152,54,o),
(112,97,o),
(112,164,cs),
(112,249,o),
(156,330,o),
(278,330,cs),
(376,330,l),
(398,26,l)
);
},
{
closed = 1;
nodes = (
(219,384,o),
(181,418,o),
(181,484,cs),
(181,534,o),
(193,660,o),
(346,660,cs),
(546,660,l),
(532,685,l),
(385,384,l),
(289,384,ls)
);
}
);
width = 568;
}
);
metricLeft = "=|geCarrier-canadian";
metricRight = "=|kkeCarrier-canadian";
note = uni1600;
unicode = 5632;
},
{
color = 6;
glyphname = "kkCarrier-canadian";
lastChange = "2023-01-13 15:28:16 +0000";
layers = (
{
layerId = "A0BEBE03-9AB7-4E04-894D-4F686A7231C4";
shapes = (
{
closed = 1;
nodes = (
(302,546,l),
(139,240,l),
(167,240,l),
(136,546,l),
(96,546,l),
(93,534,l),
(138,189,l),
(151,189,l),
(343,534,l),
(346,546,l)
);
}
);
width = 314;
}
);
note = uni1601;
unicode = 5633;
},
{
color = 9;
glyphname = "nuCarrier-canadian";
lastChange = "2023-01-13 15:28:16 +0000";
layers = (
{
layerId = "A0BEBE03-9AB7-4E04-894D-4F686A7231C4";
shapes = (
{
closed = 1;
nodes = (
(379,-13,o),
(466,75,o),
(501,240,cs),
(516,309,l),
(453,309,l),
(439,242,ls),
(412,113,o),
(348,48,o),
(249,47,cs),
(143,47,o),
(98,119,o),
(125,247,cs),
(225,714,l),
(161,714,l),
(63,251,ls),
(29,90,o),
(99,-13,o),
(245,-13,cs)
);
}
);
width = 560;
}
);
metricLeft = "te-canadian";
note = uni1602;
unicode = 5634;
},
{
color = 9;
glyphname = "noCarrier-canadian";
lastChange = "2023-01-13 15:30:12 +0000";
layers = (
{
layerId = "A0BEBE03-9AB7-4E04-894D-4F686A7231C4";
shapes = (
{
closed = 1;
nodes = (
(447,0,l),
(546,463,ls),
(579,624,o),
(510,727,o),
(364,727,cs),
(229,727,o),
(142,639,o),
(107,474,cs),
(93,405,l),
(156,405,l),
(170,472,ls),
(196,601,o),
(260,666,o),
(359,667,cs),
(465,667,o),
(510,595,o),
(483,467,cs),
(383,0,l)
);
}
);
width = 561;
}
);
metricLeft = "=|nuCarrier-canadian";
metricRight = "te-canadian";
note = uni1603;
unicode = 5635;
},
{
color = 9;
glyphname = "neCarrier-canadian";
lastChange = "2023-01-13 15:28:16 +0000";
layers = (
{
anchors = (
{
name = middle_center_can;
pos = (253,357);
}
);
layerId = "A0BEBE03-9AB7-4E04-894D-4F686A7231C4";
shapes = (
{
closed = 1;
nodes = (
(170,0,ls),
(434,0,o),
(527,283,o),
(527,474,cs),
(527,633,o),
(444,714,o),
(288,714,cs),
(143,714,l),
(130,655,l),
(276,655,ls),
(402,655,o),
(464,597,o),
(464,473,cs),
(464,332,o),
(401,59,o),
(175,59,cs),
(168,59,l),
(155,0,l)
);
}
);
width = 542;
}
);
metricRight = "theCarrier-canadian";
note = uni1604;
unicode = 5636;
},
{
color = 9;
glyphname = "naCarrier-canadian";
lastChange = "2023-01-13 15:30:12 +0000";
layers = (
{
layerId = "A0BEBE03-9AB7-4E04-894D-4F686A7231C4";
shapes = (
{
closed = 1;
nodes = (
(446,0,l),
(459,59,l),
(312,59,ls),
(187,59,o),
(125,117,o),
(125,241,cs),
(125,382,o),
(188,655,o),
(413,655,cs),
(421,655,l),
(433,714,l),
(419,714,ls),
(155,714,o),
(62,431,o),
(62,240,cs),
(62,81,o),
(145,0,o),
(301,0,cs)
);
}
);
width = 541;
}
);
metricLeft = "=|theCarrier-canadian";
metricRight = "=|neCarrier-canadian";
note = uni1607;
unicode = 5639;
},
{
color = 9;
glyphname = "muCarrier-canadian";
lastChange = "2023-01-13 15:30:12 +0000";
layers = (
{
layerId = "A0BEBE03-9AB7-4E04-894D-4F686A7231C4";
shapes = (
{
closed = 1;
nodes = (
(234,-13,o),
(288,32,o),
(321,117,c),
(298,117,l),
(300,34,o),
(345,-13,o),
(421,-13,cs),
(512,-13,o),
(568,50,o),
(595,176,cs),
(643,402,l),
(582,402,l),
(534,177,ls),
(516,89,o),
(479,46,o),
(419,46,cs),
(358,46,o),
(331,91,o),
(350,177,cs),
(397,402,l),
(339,402,l),
(291,176,ls),
(273,91,o),
(233,46,o),
(172,46,cs),
(112,46,o),
(87,91,o),
(105,176,cs),
(219,714,l),
(158,714,l),
(45,179,ls),
(20,60,o),
(63,-13,o),
(159,-13,cs)
);
}
);
width = 668;
}
);
metricLeft = "guCarrier-canadian";
metricRight = "=|";
note = uni1608;
unicode = 5640;
},
{
color = 9;
glyphname = "moCarrier-canadian";
lastChange = "2023-01-13 15:30:12 +0000";
layers = (
{
layerId = "A0BEBE03-9AB7-4E04-894D-4F686A7231C4";
shapes = (
{
closed = 1;
nodes = (
(556,0,l),
(669,535,ls),
(694,654,o),
(651,727,o),
(555,727,cs),
(481,727,o),
(427,682,o),
(394,597,c),
(416,597,l),
(414,680,o),
(369,727,o),
(294,727,cs),
(202,727,o),
(146,664,o),
(120,538,cs),
(72,312,l),
(133,312,l),
(180,537,ls),
(199,625,o),
(235,668,o),
(295,668,cs),
(356,668,o),
(383,623,o),
(365,537,cs),
(317,312,l),
(376,312,l),
(424,538,ls),
(442,623,o),
(481,668,o),
(542,668,cs),
(603,668,o),
(627,623,o),
(609,538,cs),
(495,0,l)
);
}
);
width = 666;
}
);
metricLeft = "=|muCarrier-canadian";
metricRight = "guCarrier-canadian";
note = uni1609;
unicode = 5641;
},
{
color = 9;
glyphname = "meCarrier-canadian";
lastChange = "2023-01-13 15:28:16 +0000";
layers = (
{
layerId = "A0BEBE03-9AB7-4E04-894D-4F686A7231C4";
shapes = (
{
closed = 1;
nodes = (
(249,0,ls),
(430,0,o),
(480,125,o),
(480,225,cs),
(480,299,o),
(444,351,o),
(381,365,c),
(380,343,l),
(508,367,o),
(550,469,o),
(550,555,cs),
(550,649,o),
(488,714,o),
(388,714,cs),
(143,714,l),
(131,660,l),
(379,660,ls),
(446,660,o),
(487,617,o),
(487,550,cs),
(487,465,o),
(442,384,o),
(320,384,cs),
(253,384,l),
(242,330,l),
(309,330,ls),
(380,330,o),
(418,296,o),
(418,230,cs),
(418,178,o),
(406,54,o),
(253,54,cs),
(183,54,l),
(172,0,l)
);
}
);
width = 552;
}
);
metricLeft = "neCarrier-canadian";
metricRight = "geCarrier-canadian";
note = uni160A;
unicode = 5642;
},
{
color = 9;
glyphname = "meeCarrier-canadian";
lastChange = "2023-01-13 15:28:16 +0000";
layers = (
{
layerId = "A0BEBE03-9AB7-4E04-894D-4F686A7231C4";
shapes = (
{
closed = 1;
nodes = (
(249,0,ls),
(430,0,o),
(480,125,o),
(480,225,cs),
(480,299,o),
(444,351,o),
(381,365,c),
(380,343,l),
(508,367,o),
(550,469,o),
(550,555,cs),
(550,649,o),
(488,714,o),
(388,714,cs),
(143,714,l),
(131,660,l),
(379,660,ls),
(446,660,o),
(487,617,o),
(487,550,cs),
(487,465,o),
(442,383,o),
(321,383,cs),
(293,383,l),
(313,474,l),
(272,474,l),
(223,241,l),
(264,241,l),
(282,331,l),
(311,331,ls),
(380,331,o),
(418,296,o),
(418,230,cs),
(418,178,o),
(406,54,o),
(253,54,cs),
(183,54,l),
(172,0,l)
);
}
);
width = 552;
}
);
metricLeft = "neCarrier-canadian";
metricRight = "geCarrier-canadian";
note = uni160B;
unicode = 5643;
},
{
color = 9;
glyphname = "miCarrier-canadian";
lastChange = "2023-01-13 15:30:12 +0000";
layers = (
{
layerId = "A0BEBE03-9AB7-4E04-894D-4F686A7231C4";
shapes = (
{
closed = 1;
nodes = (
(248.996,0,ls),
(427,0,o),
(472,120,o),
(478,213,cs),
(483,292,o),
(448,349,o),
(381,365,c),
(380,343,l),
(504,366,o),
(544,462,o),
(549,543,cs),
(556,643,o),
(493,714,o),
(388,714,cs),
(143,714,l),
(131,660,l),
(379,660,ls),
(448,660,o),
(488,615,o),
(486,545,cs),
(484,462,o),
(440,383,o),
(320,383,cs),
(299,383,l),
(332,364,l),
(330,395,o),
(304,418,o),
(274,418,cs),
(240,418,o),
(214,389,o),
(214,357,cs),
(214,324,o),
(240,296,o),
(274,296,cs),
(304,296,o),
(329,319,o),
(332,349,c),
(298,331,l),
(310,331,ls),
(382,331,o),
(420,295,o),
(418,226,cs),
(415,171,o),
(400,54,o),
(253,54,cs),
(183,54,l),
(172,0,l)
);
}
);
width = 550;
}
);
metricLeft = "neCarrier-canadian";
metricRight = "geCarrier-canadian";
note = uni160C;
unicode = 5644;
},
{
color = 9;
glyphname = "maCarrier-canadian";
lastChange = "2023-01-13 15:28:16 +0000";
layers = (
{
layerId = "A0BEBE03-9AB7-4E04-894D-4F686A7231C4";
shapes = (
{
closed = 1;
nodes = (
(457,0,l),
(469,54,l),
(220,54,ls),
(152,54,o),
(112,97,o),
(112,164,cs),
(112,249,o),
(156,330,o),
(278,330,cs),
(346,330,l),
(357,384,l),
(289,384,ls),
(219,384,o),
(181,418,o),
(181,484,cs),
(181,536,o),
(193,660,o),
(346,660,cs),
(416,660,l),
(427.003,714,l),
(350,714,ls),
(169,714,o),
(119,589,o),
(119,489,cs),
(119,415,o),
(155,363,o),
(218,349,c),
(219,371,l),
(90,347,o),
(49,245,o),
(49,159,cs),
(49,65,o),
(111,0,o),
(211,0,cs)
);
}
);
width = 552;
}
);
metricLeft = "=|geCarrier-canadian";
metricRight = "=|neCarrier-canadian";
note = uni160D;
unicode = 5645;
},
{
color = 9;
glyphname = "yuCarrier-canadian";
lastChange = "2023-01-13 15:28:16 +0000";
layers = (
{
layerId = "A0BEBE03-9AB7-4E04-894D-4F686A7231C4";
shapes = (
{
closed = 1;
nodes = (
(408,-13,o),
(508,107,o),
(565,376,cs),
(615,612,o),
(583,727,o),
(477,727,cs),
(349,727,o),
(304,547,o),
(304,458,cs),
(304,378,o),
(343,326,o),
(406,326,cs),
(421,326,o),
(433,329,o),
(441,334,c),
(452,384,l),
(441,380,o),
(432,378,o),
(422,378,cs),
(381,378,o),
(359,409,o),
(359,463,cs),
(359,518,o),
(388,674,o),
(469,674,cs),
(535,674,o),
(550,591,o),
(508,391,cs),
(457,148,o),
(382,47,o),
(247,47,cs),
(140,47,o),
(97,112,o),
(124,241,cs),
(225,714,l),
(161,714,l),
(62,244,ls),
(28,83,o),
(98,-13,o),
(244,-13,cs)
);
}
);
width = 598;
}
);
metricLeft = "te-canadian";
metricRight = "te-canadian";
note = uni160E;
unicode = 5646;
},
{
color = 9;
glyphname = "yoCarrier-canadian";
lastChange = "2023-01-13 15:30:12 +0000";
layers = (
{
layerId = "A0BEBE03-9AB7-4E04-894D-4F686A7231C4";
shapes = (
{
closed = 1;
nodes = (
(297,-13,o),
(341,167,o),
(341,256,cs),
(341,336,o),
(303,388,o),
(239,388,cs),
(225,388,o),
(212,385,o),
(205,380,c),
(194,330,l),
(204,334,o),
(213,336,o),
(223,336,cs),
(264,336,o),
(286,305,o),
(286,251,cs),
(286,196,o),
(257,40,o),
(176,40,cs),
(110,40,o),
(95,123,o),
(137,323,cs),
(189,566,o),
(264,667,o),
(398,667,cs),
(506,667,o),
(549,602,o),
(521,473,cs),
(421,0,l),
(484,0,l),
(584,470,ls),
(617,631,o),
(548,727,o),
(401,727,cs),
(237,727,o),
(138,607,o),
(81,338,cs),
(31,102,o),
(63,-13,o),
(168,-13,cs)
);
}
);
width = 597;
}
);
metricLeft = "te-canadian";
metricRight = "te-canadian";
note = uni160F;
unicode = 5647;
},
{
color = 9;
glyphname = "yeCarrier-canadian";
lastChange = "2023-01-13 15:28:16 +0000";
layers = (
{
layerId = "A0BEBE03-9AB7-4E04-894D-4F686A7231C4";
shapes = (
{
closed = 1;
nodes = (
(439,-13,o),
(519,297,o),
(519,457,cs),
(519,628,o),
(439,714,o),
(287,714,cs),
(159,714,l),
(146,655,l),
(279,655,ls),
(396,655,o),
(455,591,o),
(455,452,cs),
(455,326,o),
(399,43,o),
(213,43,cs),
(134,43,o),
(91,89,o),
(91,172,cs),
(91,231,o),
(116,362,o),
(200,362,cs),
(238,362,o),
(258,333,o),
(258,279,cs),
(258,236,o),
(247,192,o),
(232,150,c),
(281,150,l),
(296,195,o),
(308,242,o),
(308,287,cs),
(308,367,o),
(270,415,o),
(202,415,cs),
(81,415,o),
(36,259,o),
(36,168,cs),
(36,57,o),
(101,-13,o),
(210,-13,cs)
);
}
);
width = 537;
}
);
metricRight = "theCarrier-canadian";
note = uni1610;
unicode = 5648;
},
{
color = 9;
glyphname = "yeeCarrier-canadian";
lastChange = "2023-01-13 15:28:16 +0000";
layers = (
{
layerId = "A0BEBE03-9AB7-4E04-894D-4F686A7231C4";
shapes = (
{
closed = 1;
nodes = (
(441,-13,o),
(520,304,o),
(520,465,cs),
(520,628,o),
(438,714,o),
(290,714,cs),
(159,714,l),
(146,655,l),
(279,655,ls),
(396,655,o),
(456,591,o),
(456,460,cs),
(456,329,o),
(398,43,o),
(213,43,cs),
(134,43,o),
(91,88,o),
(91,174,cs),
(91,229,o),
(116,362,o),
(197,362,cs),
(241,362,o),
(260,319,o),
(244,242,cs),
(231,180,l),
(272,180,l),
(345,521,l),
(303,521,l),
(257,304,l),
(268,304,l),
(276,371,o),
(245,415,o),
(189,415,cs),
(80,415,o),
(37,260,o),
(37,171,cs),
(37,58,o),
(100,-13,o),
(213,-13,cs)
);
}
);
width = 537;
}
);
metricRight = "theCarrier-canadian";
metricWidth = "yeCarrier-canadian";
note = uni1611;
unicode = 5649;
},
{
color = 9;
glyphname = "yiCarrier-canadian";
lastChange = "2023-01-13 15:28:16 +0000";
layers = (
{
layerId = "A0BEBE03-9AB7-4E04-894D-4F686A7231C4";
shapes = (
{
closed = 1;
nodes = (
(444,-13,o),
(520,307,o),
(520,465,cs),
(520,628,o),
(439,714,o),
(290,714,cs),
(159,714,l),
(146,655,l),
(279,655,ls),
(396,655,o),
(456,591,o),
(456,460,cs),
(456,333,o),
(402,43,o),
(213,43,cs),
(133,43,o),
(90,90,o),
(90,171,cs),
(90,238,o),
(112,342,o),
(202,338,c),
(186,356,l),
(187,323,o),
(215,299,o),
(246,299,cs),
(279,299,o),
(306,325,o),
(306,357,cs),
(306,389,o),
(279,415,o),
(246,415,cs),
(222,415,o),
(201,401,o),
(192,381,c),
(81,379,o),
(35,257,o),
(35,165,cs),
(35,56,o),
(102,-13,o),
(210,-13,cs)
);
}
);
width = 537;
}
);
metricRight = "theCarrier-canadian";
metricWidth = "yeCarrier-canadian";
note = uni1612;
unicode = 5650;
},
{
color = 9;
glyphname = "yaCarrier-canadian";
lastChange = "2023-01-13 15:30:12 +0000";
layers = (
{
layerId = "A0BEBE03-9AB7-4E04-894D-4F686A7231C4";
shapes = (
{
closed = 1;
nodes = (
(427,0,l),
(440,59,l),
(307,59,ls),
(190,59,o),
(131,123,o),
(131,262,cs),
(131,388,o),
(187,671,o),
(373,671,cs),
(452,671,o),
(495,625,o),
(495,542,cs),
(495,483,o),
(470,352,o),
(386,352,cs),
(348,352,o),
(328,381,o),
(328,435,cs),
(328,479,o),
(339,522,o),
(354,564,c),
(305,564,l),
(290,519,o),
(278,472,o),
(278,427,cs),
(278,347,o),
(316,299,o),
(384,299,cs),
(505,299,o),
(550,455,o),
(550,546,cs),
(550,657,o),
(485,727,o),
(376,727,cs),
(146,727,o),
(66,417,o),
(66,257,cs),
(66,86,o),
(147,0,o),
(299,0,cs)
);
}
);
width = 538;
}
);
metricLeft = "=|theCarrier-canadian";
metricRight = "=|yeCarrier-canadian";
note = uni1613;
unicode = 5651;
},
{
color = 9;
glyphname = "juCarrier-canadian";
lastChange = "2023-01-13 15:30:12 +0000";
layers = (
{
layerId = "A0BEBE03-9AB7-4E04-894D-4F686A7231C4";
shapes = (
{
closed = 1;
nodes = (
(438,-13,o),
(502,150,o),
(502,268,cs),
(502,357,o),
(459,415,o),
(388,415,cs),
(309,415,o),
(262,348,o),
(243,240,cs),
(236,206,o),
(234,171,o),
(235,150,c),
(283,150,l),
(284,169,o),
(284,199,o),
(292,240,cs),
(311,322,o),
(344,362,o),
(386,362,cs),
(425,362,o),
(448,327,o),
(448,267,cs),
(448,177,o),
(406,43,o),
(270,43,cs),
(175,43,o),
(126,105,o),
(126,217,cs),
(126,336,o),
(180,655,o),
(504,655,cs),
(579,655,l),
(591,714,l),
(151,714,l),
(139,657,l),
(397,657,l),
(419,677,l),
(171,671,o),
(64,410,o),
(64,220,cs),
(64,74,o),
(137,-13,o),
(267,-13,cs)
);
}
);
width = 550;
}
);
metricRight = "=|yeCarrier-canadian";
note = uni1614;
unicode = 5652;
},
{
color = 9;
glyphname = "juSayisi-canadian";
lastChange = "2023-01-13 15:30:12 +0000";
layers = (
{
anchors = (
{
name = top_center_can;
pos = (399,714);
}
);
layerId = "A0BEBE03-9AB7-4E04-894D-4F686A7231C4";
shapes = (
{
closed = 1;
nodes = (
(418,-13,o),
(503,226,o),
(513,391,cs),
(523,565,o),
(440,675,o),
(283,683,c),
(324,657,l),
(585,657,l),
(597,714,l),
(156,714,l),
(144,655,l),
(207,655,ls),
(380,655,o),
(460,568,o),
(451,400,cs),
(445,272,o),
(392,43,o),
(221,43,cs),
(134,43,o),
(86,94,o),
(90,184,cs),
(92,242,o),
(119,362,o),
(195,362,cs),
(235,362,o),
(253,331,o),
(251,273,cs),
(251,239,o),
(240,182,o),
(227,150,c),
(275,150,l),
(290,191,o),
(301,235,o),
(302,278,cs),
(307,363,o),
(270,415,o),
(198,415,cs),
(87,415,o),
(43,275,o),
(36,189,cs),
(27,68,o),
(98,-13,o),
(220,-13,cs)
);
}
);
width = 548;
}
);
metricLeft = "yeCarrier-canadian";
metricRight = "=|juCarrier-canadian";
note = uni1615;
unicode = 5653;
},
{
color = 9;
glyphname = "joCarrier-canadian";
lastChange = "2023-01-13 15:30:12 +0000";
layers = (
{
layerId = "A0BEBE03-9AB7-4E04-894D-4F686A7231C4";
shapes = (
{
closed = 1;
nodes = (
(447,0,l),
(459,57,l),
(200,57,l),
(178,37,l),
(427,43,o),
(534,304,o),
(534,494,cs),
(534,640,o),
(460,727,o),
(331,727,cs),
(160,727,o),
(96,564,o),
(96,446,cs),
(96,357,o),
(138,299,o),
(209,299,cs),
(288,299,o),
(336,366,o),
(355,474,cs),
(361,508,o),
(363,543,o),
(363,564,c),
(314,564,l),
(314,545,o),
(314,515,o),
(305,474,cs),
(286,392,o),
(254,352,o),
(212,352,cs),
(172,352,o),
(150,387,o),
(150,447,cs),
(150,537,o),
(191,671,o),
(328,671,cs),
(422,671,o),
(471,609,o),
(471,497,cs),
(471,378,o),
(417,59,o),
(94,59,cs),
(19,59,l),
(6,0,l)
);
}
);
width = 550;
}
);
metricLeft = "yeCarrier-canadian";
metricRight = "=|juCarrier-canadian";
note = uni1616;
unicode = 5654;
},
{
color = 9;
glyphname = "jeCarrier-canadian";
lastChange = "2023-01-13 15:30:12 +0000";
layers = (
{
layerId = "A0BEBE03-9AB7-4E04-894D-4F686A7231C4";
shapes = (
{
closed = 1;
nodes = (
(520,-13,o),
(570,345,o),
(570,487,cs),
(570,640,o),
(514,727,o),
(401,727,cs),
(290,727,o),
(212,644,o),
(161,469,c),
(176,471,l),
(228,714,l),
(165,714,l),
(13,0,l),
(76,0,l),
(141,304,ls),
(193,554,o),
(270,667,o),
(387,667,cs),
(472,667,o),
(510,608,o),
(510,486,cs),
(510,388,o),
(471,40,o),
(349,40,cs),
(309,40,o),
(289,68,o),
(289,123,cs),
(289,193,o),
(319,336,o),
(413,336,cs),
(426,336,o),
(438,333,o),
(444,330,c),
(453,380,l),
(441,385,o),
(426,388,o),
(410,388,cs),
(281,388,o),
(235,216,o),
(235,122,cs),
(235,37,o),
(274,-13,o),
(345,-13,cs)
);
}
);
width = 601;
}
);
metricLeft = "nunavuth-canadian";
metricRight = "te-canadian";
note = uni1617;
unicode = 5655;
},
{
color = 9;
glyphname = "jeeCarrier-canadian";
lastChange = "2023-01-13 15:30:12 +0000";
layers = (
{
layerId = "A0BEBE03-9AB7-4E04-894D-4F686A7231C4";
shapes = (
{
closed = 1;
nodes = (
(520,-13,o),
(570,347,o),
(570,486,cs),
(570,640,o),
(514,727,o),
(401,727,cs),
(289,727,o),
(212,643,o),
(161,469,c),
(176,471,l),
(228,714,l),
(165,714,l),
(13,0,l),
(76,0,l),
(140,299,ls),
(194,555,o),
(268,667,o),
(386,667,cs),
(472,667,o),
(510,608,o),
(510,485,cs),
(510,369,o),
(470,40,o),
(341,40,cs),
(295,40,o),
(271,71,o),
(271,132,cs),
(271,196,o),
(298,320,o),
(375,340,c),
(356,246,l),
(391,246,l),
(437,465,l),
(402,465,l),
(384,379,l),
(273,359,o),
(235,204,o),
(235,121,cs),
(235,37,o),
(274,-13,o),
(345,-13,cs)
);
}
);
width = 601;
}
);
metricLeft = "nunavuth-canadian";
metricRight = "jeCarrier-canadian";
note = uni1618;
unicode = 5656;
},
{
color = 9;
glyphname = "jiCarrier-canadian";
lastChange = "2023-01-13 15:30:12 +0000";
layers = (
{
layerId = "A0BEBE03-9AB7-4E04-894D-4F686A7231C4";
shapes = (
{
closed = 1;
nodes = (
(520,-13,o),
(570,347,o),
(570,486,cs),
(570,640,o),
(514,727,o),
(401,727,cs),
(289,727,o),
(212,643,o),
(161,469,c),
(176,471,l),
(228,714,l),
(165,714,l),
(13,0,l),
(76,0,l),
(140,299,ls),
(194,555,o),
(268,667,o),
(386,667,cs),
(472,667,o),
(510,608,o),
(510,485,cs),
(510,369,o),
(470,40,o),
(341,40,cs),
(295,40,o),
(271,71,o),
(271,132,cs),
(271,188,o),
(292,290,o),
(351,324,c),
(359,308,o),
(375,297,o),
(394,297,cs),
(424,297,o),
(450,323,o),
(450,355,cs),
(450,387,o),
(425,412,o),
(394,412,cs),
(363,412,o),
(340,385,o),
(341,357,c),
(263,314,o),
(235,192,o),
(235,121,cs),
(235,37,o),
(274,-13,o),
(345,-13,cs)
);
}
);
width = 601;
}
);
metricLeft = "nunavuth-canadian";
metricRight = "jeCarrier-canadian";
note = uni1619;
unicode = 5657;
},
{
color = 9;
glyphname = "jiSayisi-canadian";
lastChange = "2023-01-13 15:30:12 +0000";
layers = (
{
layerId = "A0BEBE03-9AB7-4E04-894D-4F686A7231C4";
shapes = (
{
closed = 1;
nodes = (
(501,-13,o),
(588,378,o),
(588,549,cs),
(588,671,o),
(551,727,o),
(476,727,cs),
(345,727,o),
(308,543,o),
(308,459,cs),
(308,368,o),
(353,326,o),
(407,326,cs),
(423,326,o),
(434,328,o),
(443,334,c),
(455,384,l),
(447,380,o),
(438,378,o),
(424,378,cs),
(388,378,o),
(361,402,o),
(361,465,cs),
(361,508,o),
(385,674,o),
(472,674,cs),
(513,674,o),
(532,642,o),
(532,559,cs),
(532,424,o),
(462,47,o),
(269,47,cs),
(110,47,o),
(131,262,o),
(162,405,cs),
(228,714,l),
(165,714,l),
(13,0,l),
(76,0,l),
(143,319,l),
(127,327,l),
(93,169,o),
(110,-13,o),
(274,-13,cs)
);
}
);
width = 601;
}
);
metricLeft = "nunavuth-canadian";
metricRight = "jeCarrier-canadian";
note = uni161A;
unicode = 5658;
},
{
color = 9;
glyphname = "jaCarrier-canadian";
lastChange = "2023-01-13 15:30:12 +0000";
layers = (
{
anchors = (
{
name = top_center_can;
pos = (393,714);
}
);
layerId = "A0BEBE03-9AB7-4E04-894D-4F686A7231C4";
shapes = (
{
closed = 1;
nodes = (
(359,-12,o),
(436,71,o),
(488,245,c),
(472,243,l),
(421,0,l),
(484,0,l),
(636,714,l),
(573,714,l),
(508,410,ls),
(455,161,o),
(379,47,o),
(262,47,cs),
(177,47,o),
(139,106,o),
(139,229,cs),
(139,326,o),
(178,675,o),
(300,675,cs),
(339,675,o),
(360,646,o),
(360,592,cs),
(360,521,o),
(330,378,o),
(236,378,cs),
(223,378,o),
(211,381,o),
(205,384,c),
(196,334,l),
(208,329,o),
(223,326,o),
(239,326,cs),
(367,326,o),
(413,498,o),
(413,592,cs),
(413,677,o),
(375,727,o),
(304,727,cs),
(129,727,o),
(79,369,o),
(79,227,cs),
(79,75,o),
(135,-12,o),
(248,-12,cs)
);
}
);
width = 601;
}
);
metricLeft = "=|jeCarrier-canadian";
metricRight = "nunavuth-canadian";
note = uni161B;
unicode = 5659;
},
{
color = 9;
glyphname = "jjuCarrier-canadian";
lastChange = "2023-01-13 15:30:12 +0000";
layers = (
{
layerId = "A0BEBE03-9AB7-4E04-894D-4F686A7231C4";
shapes = (
{
closed = 1;
nodes = (
(427,-13,o),
(497,149,o),
(497,271,cs),
(497,359,o),
(455,415,o),
(385,415,cs),
(312,415,o),
(266,359,o),
(239,245,cs),
(231,214,o),
(227,176,o),
(227,150,c),
(276,150,l),
(277,165,o),
(278,195,o),
(286,233,cs),
(305,318,o),
(337,362,o),
(381,362,cs),
(420,362,o),
(442,327,o),
(442,269,cs),
(442,180,o),
(401,42,o),
(264,42,cs),
(176,42,o),
(130,104,o),
(130,219,cs),
(130,391,o),
(212,655,o),
(477,655,cs),
(573,655,l),
(585,714,l),
(488,714,ls),
(390,714,o),
(311,685,o),
(249,638,c),
(179,727,l),
(128,687,l),
(200,595,l),
(101,493,o),
(68,336,o),
(68,223,cs),
(68,78,o),
(138,-13,o),
(261,-13,cs)
);
}
);
width = 544;
}
);
metricRight = "=|yeCarrier-canadian";
note = uni161C;
unicode = 5660;
},
{
color = 9;
glyphname = "jjoCarrier-canadian";
lastChange = "2023-01-13 15:28:16 +0000";
layers = (
{
layerId = "A0BEBE03-9AB7-4E04-894D-4F686A7231C4";
shapes = (
{
closed = 1;
nodes = (
(464,27,l),
(392,119,l),
(491,221,o),
(524,378,o),
(524,491,cs),
(524,636,o),
(454,727,o),
(331,727,cs),
(164,727,o),
(95,565,o),
(95,443,cs),
(95,355,o),
(137,299,o),
(207,299,cs),
(279,299,o),
(326,355,o),
(353,469,cs),
(360,500,o),
(365,538,o),
(365,564,c),
(316,564,l),
(315,549,o),
(313,519,o),
(306,481,cs),
(287,396,o),
(255,352,o),
(211,352,cs),
(171,352,o),
(149,387,o),
(149,445,cs),
(149,534,o),
(191,672,o),
(328,672,cs),
(416,672,o),
(462,610,o),
(462,495,cs),
(462,323,o),
(380,59,o),
(114,59,cs),
(19,59,l),
(6,0,l),
(104,0,ls),
(202,0,o),
(281,29,o),
(343,76,c),
(412,-13,l)
);
}
);
width = 544;
}
);
metricLeft = "yeCarrier-canadian";
metricRight = "=|jjuCarrier-canadian";
note = uni161D;
unicode = 5661;
},
{
color = 9;
glyphname = "jjeCarrier-canadian";
lastChange = "2023-01-13 15:28:16 +0000";
layers = (
{
layerId = "A0BEBE03-9AB7-4E04-894D-4F686A7231C4";
shapes = (
{
closed = 1;
nodes = (
(523,-13,o),
(572,345,o),
(572,486,cs),
(572,649,o),
(503,727,o),
(379,727,cs),
(325,727,o),
(267,709,o),
(218,662,c),
(165,726,l),
(118,682,l),
(177,612,l),
(149,572,o),
(126,520,o),
(111,451,cs),
(15,0,l),
(78,0,l),
(173,449,ls),
(204,593,o),
(273,667,o),
(376,667,cs),
(469,667,o),
(512,611,o),
(512,486,cs),
(512,389,o),
(473,40,o),
(351,40,cs),
(311,40,o),
(291,68,o),
(291,123,cs),
(291,193,o),
(321,336,o),
(415,336,cs),
(428,336,o),
(439,333,o),
(446,330,c),
(455,380,l),
(443,385,o),
(428,388,o),
(411,388,cs),
(284,388,o),
(238,216,o),
(238,122,cs),
(238,37,o),
(276,-13,o),
(347,-13,cs)
);
}
);
width = 604;
}
);
metricRight = "jeCarrier-canadian";
note = uni161E;
unicode = 5662;
},
{
color = 9;
glyphname = "jjeeCarrier-canadian";
lastChange = "2023-01-13 15:28:16 +0000";
layers = (
{
layerId = "A0BEBE03-9AB7-4E04-894D-4F686A7231C4";
shapes = (
{
closed = 1;
nodes = (
(523,-13,o),
(572,345,o),
(572,486,cs),
(572,649,o),
(503,727,o),
(379,727,cs),
(325,727,o),
(267,709,o),
(218,662,c),
(165,726,l),
(118,682,l),
(177,612,l),
(149,572,o),
(126,520,o),
(111,451,cs),
(15,0,l),
(78,0,l),
(173,449,ls),
(204,593,o),
(273,667,o),
(376,667,cs),
(469,667,o),
(512,611,o),
(512,486,cs),
(512,382,o),
(475,40,o),
(345,40,cs),
(299,40,o),
(274,70,o),
(274,132,cs),
(274,205,o),
(301,325,o),
(379,341,c),
(359,246,l),
(394,246,l),
(441,465,l),
(405,465,l),
(387,379,l),
(278,361,o),
(238,210,o),
(238,122,cs),
(238,37,o),
(276,-13,o),
(347,-13,cs)
);
}
);
width = 604;
}
);
metricLeft = "jjeCarrier-canadian";
metricRight = "jeCarrier-canadian";
note = uni161F;
unicode = 5663;
},
{
color = 9;
glyphname = "jjiCarrier-canadian";
lastChange = "2023-01-13 15:28:16 +0000";
layers = (
{
layerId = "A0BEBE03-9AB7-4E04-894D-4F686A7231C4";
shapes = (
{
closed = 1;
nodes = (
(440,-13,o),
(505,69,o),
(552,285,cs),
(614,566,o),
(550,727,o),
(379,727,cs),
(315,727,o),
(261,705,o),
(217,663,c),
(165,726,l),
(118,682,l),
(176,614,l),
(147,572,o),
(125,517,o),
(111,451,cs),
(15,0,l),
(78,0,l),
(173,449,ls),
(204,593,o),
(273,667,o),
(376,667,cs),
(508,667,o),
(548,539,o),
(492,289,cs),
(451,99,o),
(407,40,o),
(344,40,cs),
(280,40,o),
(260,100,o),
(284,208,cs),
(298,271,o),
(321,308,o),
(352,324,c),
(359,308,o),
(376,297,o),
(395,297,cs),
(425,297,o),
(450,323,o),
(450,355,cs),
(450,386,o),
(426,412,o),
(395,412,cs),
(361,412,o),
(342,381,o),
(342,355,c),
(299,333,o),
(266,282,o),
(248,204,cs),
(219,69,o),
(257,-13,o),
(347,-13,cs)
);
}
);
width = 604;
}
);
metricLeft = "jjeCarrier-canadian";
metricRight = "jeCarrier-canadian";
note = uni1620;
unicode = 5664;
},
{
color = 9;
glyphname = "jjaCarrier-canadian";
lastChange = "2023-01-13 15:30:12 +0000";
layers = (
{
layerId = "A0BEBE03-9AB7-4E04-894D-4F686A7231C4";
shapes = (
{
closed = 1;
nodes = (
(326,-13,o),
(385,5,o),
(434,52,c),
(487,-12,l),
(534,32,l),
(475,102,l),
(503,142,o),
(525,194,o),
(540,263,cs),
(637,714,l),
(574,714,l),
(478,265,ls),
(447,121,o),
(378,47,o),
(276,47,cs),
(183,47,o),
(139,103,o),
(139,228,cs),
(139,325,o),
(178,674,o),
(300,674,cs),
(340,674,o),
(360,646,o),
(360,591,cs),
(360,521,o),
(330,378,o),
(237,378,cs),
(224,378,o),
(212,381,o),
(206,384,c),
(197,334,l),
(208,329,o),
(224,326,o),
(240,326,cs),
(368,326,o),
(414,498,o),
(414,592,cs),
(414,677,o),
(376,727,o),
(305,727,cs),
(129,727,o),
(79,369,o),
(79,228,cs),
(79,65,o),
(148,-13,o),
(273,-13,cs)
);
}
);
width = 604;
}
);
metricLeft = "=|jeCarrier-canadian";
metricRight = "=|jjeCarrier-canadian";
note = uni1621;
unicode = 5665;
},
{
color = 9;
glyphname = "luCarrier-canadian";
lastChange = "2023-01-13 15:28:16 +0000";
layers = (
{
layerId = "A0BEBE03-9AB7-4E04-894D-4F686A7231C4";
shapes = (
{
closed = 1;
nodes = (
(383,-13,o),
(458,62,o),
(492,224,cs),
(596,714,l),
(533,714,l),
(429,229,ls),
(403,104,o),
(349,46,o),
(259,46,cs),
(170,46,o),
(126,105,o),
(126,215,cs),
(126,336,o),
(180,642,o),
(388,662,c),
(400,714,l),
(148.998,714,l),
(137,661,l),
(310,661,l),
(354,678,l),
(148,671,o),
(62,378,o),
(62,213,cs),
(62,69,o),
(129,-13,o),
(257,-13,cs)
);
}
);
width = 557;
}
);
metricRight = "te-canadian";
note = uni1622;
unicode = 5666;
},
{
color = 9;
glyphname = "loCarrier-canadian";
lastChange = "2023-01-13 15:28:16 +0000";
layers = (
{
layerId = "A0BEBE03-9AB7-4E04-894D-4F686A7231C4";
shapes = (
{
closed = 1;
nodes = (
(73,0,l),
(176,485,ls),
(203,610,o),
(257,668,o),
(347,668,cs),
(435,668,o),
(479,609,o),
(479,499,cs),
(479,378,o),
(426,72,o),
(217,52,c),
(206,0,l),
(456,0,l),
(468,53,l),
(295,53,l),
(251,36,l),
(457,43,o),
(544,336,o),
(544,501,cs),
(544,645,o),
(476,727,o),
(348,727,cs),
(223,727,o),
(148,652,o),
(114,490,cs),
(9,0,l)
);
}
);
width = 557;
}
);
metricLeft = "te-canadian";
metricRight = "=|luCarrier-canadian";
note = uni1623;
unicode = 5667;
},
{
color = 9;
glyphname = "leCarrier-canadian";
lastChange = "2023-01-13 15:28:16 +0000";
layers = (
{
anchors = (
{
name = middle_center_can;
pos = (293,357);
}
);
layerId = "A0BEBE03-9AB7-4E04-894D-4F686A7231C4";
shapes = (
{
closed = 1;
nodes = (
(164,0,ls),
(454,0,o),
(527,306,o),
(527,482,cs),
(527,638,o),
(471,727,o),
(372,727,cs),
(288,727,o),
(216,658,o),
(171,534,c),
(181,534,l),
(218,714,l),
(162,714,l),
(95,399,l),
(149,399,l),
(185,566,o),
(263,667,o),
(352,667,cs),
(426,667,o),
(463,602,o),
(463,477,cs),
(463,338,o),
(406,59,o),
(165,59,cs),
(22,59,l),
(10,0,l)
);
}
);
width = 541;
}
);
metricRight = "theCarrier-canadian";
note = uni1624;
unicode = 5668;
},
{
color = 9;
glyphname = "laCarrier-canadian";
lastChange = "2023-01-13 15:30:12 +0000";
layers = (
{
layerId = "A0BEBE03-9AB7-4E04-894D-4F686A7231C4";
shapes = (
{
closed = 1;
nodes = (
(427,0,l),
(440,59,l),
(313,59,ls),
(187,59,o),
(125,115,o),
(125,240,cs),
(125,370,o),
(194,667,o),
(354,667,cs),
(447,667,o),
(486,563,o),
(459,399,c),
(512,399,l),
(579,714,l),
(522,714,l),
(479,513,l),
(487,511,l),
(496,647,o),
(444,727,o),
(351,727,cs),
(149,727,o),
(61,399,o),
(61,239,cs),
(61,81,o),
(143,0,o),
(301,0,cs)
);
}
);
width = 540;
}
);
metricLeft = "=|theCarrier-canadian";
metricRight = "=|leCarrier-canadian";
note = uni1627;
unicode = 5671;
},
{
color = 1;
glyphname = "dluCarrier-canadian";
lastChange = "2023-01-13 15:28:16 +0000";
layers = (
{
layerId = "A0BEBE03-9AB7-4E04-894D-4F686A7231C4";
shapes = (
{
closed = 1;
nodes = (
(482,-13,o),
(531,350,o),
(531,457,cs),
(531,583,o),
(482,657,o),
(384,677,c),
(392,664,l),
(587,664,l),
(569,578,l),
(617,578,l),
(665,800,l),
(616,800,l),
(598,714,l),
(357,714,l),
(346,662,l),
(439,641,o),
(473,581,o),
(473,471,cs),
(473,390,o),
(434,46,o),
(231,46,cs),
(131,46,o),
(98,117,o),
(129,261,cs),
(225,714,l),
(161,714,l),
(67,269,ls),
(28,85,o),
(84,-13,o),
(225,-13,cs)
);
}
);
width = 581;
}
);
metricLeft = "te-canadian";
note = uni1628;
unicode = 5672;
},
{
color = 9;
glyphname = "dloCarrier-canadian";
lastChange = "2023-01-13 15:28:16 +0000";
layers = (
{
layerId = "A0BEBE03-9AB7-4E04-894D-4F686A7231C4";
shapes = (
{
closed = 1;
nodes = (
(477,-86,l),
(524,136,l),
(475,136,l),
(457,50,l),
(290,50,l),
(248,38,l),
(441,43,o),
(544,316,o),
(544,501,cs),
(544,645,o),
(476,727,o),
(348,727,cs),
(223,727,o),
(148,652,o),
(114,490,cs),
(9,0,l),
(73,0,l),
(176,485,ls),
(203,610,o),
(257,668,o),
(347,668,cs),
(435,668,o),
(479,609,o),
(479,499,cs),
(479,378,o),
(426,72,o),
(217,52,c),
(206,0,l),
(447,0,l),
(429,-86,l)
);
}
);
width = 581;
}
);
metricLeft = "te-canadian";
metricRight = "dluCarrier-canadian";
note = uni1629;
unicode = 5673;
},
{
color = 9;
glyphname = "dleCarrier-canadian";
lastChange = "2023-01-13 15:28:16 +0000";
layers = (
{
anchors = (
{
name = middle_center_can;
pos = (305,357);
}
);
layerId = "A0BEBE03-9AB7-4E04-894D-4F686A7231C4";
shapes = (
{
closed = 1;
nodes = (
(175,0,ls),
(465,0,o),
(538,306,o),
(538,482,cs),
(538,638,o),
(481,727,o),
(383,727,cs),
(298,727,o),
(220,656,o),
(176,527,c),
(182,527,l),
(224,729,l),
(287,729,l),
(297,776,l),
(124,776,l),
(114,729,l),
(176,729,l),
(106,399,l),
(159,399,l),
(196,566,o),
(273,667,o),
(363,667,cs),
(437,667,o),
(474,602,o),
(474,477,cs),
(474,338,o),
(417,59,o),
(176,59,cs),
(33,59,l),
(21,0,l)
);
}
);
width = 552;
}
);
metricRight = "theCarrier-canadian";
note = uni162A;
unicode = 5674;
},
{
color = 9;
glyphname = "dlaCarrier-canadian";
lastChange = "2023-01-13 15:28:16 +0000";
layers = (
{
layerId = "A0BEBE03-9AB7-4E04-894D-4F686A7231C4";
shapes = (
{
closed = 1;
nodes = (
(427,0,l),
(440,59,l),
(313,59,ls),
(187,59,o),
(125,115,o),
(125,240,cs),
(125,370,o),
(194,667,o),
(354,667,cs),
(447,667,o),
(486,563,o),
(459,399,c),
(512,399,l),
(582,729,l),
(643,729,l),
(654,776,l),
(482,776,l),
(471,729,l),
(534,729,l),
(487,508,l),
(495,506,l),
(504,647,o),
(444,727,o),
(351,727,cs),
(149,727,o),
(61,399,o),
(61,239,cs),
(61,81,o),
(143,0,o),
(301,0,cs)
);
}
);
width = 552;
}
);
metricLeft = "=|theCarrier-canadian";
metricRight = "=|dleCarrier-canadian";
note = uni162D;
unicode = 5677;
},
{
color = 9;
glyphname = "lhuCarrier-canadian";
lastChange = "2023-01-13 15:30:12 +0000";
layers = (
{
layerId = "A0BEBE03-9AB7-4E04-894D-4F686A7231C4";
shapes = (
{
closed = 1;
nodes = (
(487,-13,o),
(553,290,o),
(553,455,cs),
(553,568,o),
(518,650,o),
(451,681,c),
(467,661,l),
(619,661,l),
(631,714,l),
(435,714,l),
(424,662,l),
(471,642,o),
(495,579,o),
(495,489,cs),
(495,351,o),
(446,46,o),
(257,46,cs),
(169,46,o),
(127,103,o),
(127,214,cs),
(127,336,o),
(182,613,o),
(333,662,c),
(345,714,l),
(148.998,714,l),
(137,661,l),
(289,661,l),
(313,686,l),
(133,632,o),
(62,360,o),
(62,212,cs),
(62,68,o),
(127,-13,o),
(254,-13,cs)
);
}
);
width = 579;
}
);
metricLeft = "luCarrier-canadian";
metricRight = "=|";
note = uni162E;
unicode = 5678;
},
{
color = 9;
glyphname = "lhoCarrier-canadian";
lastChange = "2023-01-13 15:30:12 +0000";
layers = (
{
layerId = "A0BEBE03-9AB7-4E04-894D-4F686A7231C4";
shapes = (
{
closed = 1;
nodes = (
(192,0,l),
(203,52,l),
(155,72,o),
(131,135,o),
(131,225,cs),
(131,363,o),
(181,668,o),
(370,668,cs),
(457,668,o),
(500,611,o),
(500,500,cs),
(500,378,o),
(445,101,o),
(293,52,c),
(282,0,l),
(478,0,l),
(489,53,l),
(338,53,l),
(314,28,l),
(494,82,o),
(565,354,o),
(565,502,cs),
(565,646,o),
(499,727,o),
(373,727,cs),
(140,727,o),
(74,424,o),
(74,259,cs),
(74,146,o),
(109,64,o),
(176,33,c),
(160,53,l),
(8,53,l),
(-4,0,l)
);
}
);
width = 578;
}
);
metricLeft = "luCarrier-canadian";
metricRight = "=|";
note = uni162F;
unicode = 5679;
},
{
color = 9;
glyphname = "lheCarrier-canadian";
lastChange = "2023-01-13 15:30:12 +0000";
layers = (
{
anchors = (
{
name = middle_center_can;
pos = (309,357);
}
);
layerId = "A0BEBE03-9AB7-4E04-894D-4F686A7231C4";
shapes = (
{
closed = 1;
nodes = (
(470,-13,o),
(550,309,o),
(550,486,cs),
(550,637,o),
(488,727,o),
(377,727,cs),
(291,727,o),
(227,673,o),
(187,568,c),
(191,566,l),
(223,714,l),
(166,714,l),
(106,434,l),
(160,434,l),
(199,593,o),
(264,667,o),
(356,667,cs),
(442,667,o),
(488,603,o),
(488,487,cs),
(488,351,o),
(429,47,o),
(246,47,cs),
(146,47,o),
(99,137,o),
(127,280,c),
(73,280,l),
(14,0,l),
(71,0,l),
(109,185,l),
(100,185,l),
(92,64,o),
(152,-13,o),
(257,-13,cs)
);
}
);
width = 564;
}
);
metricLeft = "nunavuth-canadian";
metricRight = "theCarrier-canadian";
note = uni1630;
unicode = 5680;
},
{
color = 9;
glyphname = "lhaCarrier-canadian";
lastChange = "2023-01-13 15:30:12 +0000";
layers = (
{
layerId = "A0BEBE03-9AB7-4E04-894D-4F686A7231C4";
shapes = (
{
closed = 1;
nodes = (
(321,-13,o),
(385,41,o),
(424,146,c),
(421,148,l),
(389,0,l),
(446,0,l),
(506,280,l),
(452,280,l),
(413,121,o),
(348,47,o),
(255,47,cs),
(169,47,o),
(125,111,o),
(125,227,cs),
(125,363,o),
(183,667,o),
(366,667,cs),
(466,667,o),
(513,577,o),
(485,434,c),
(539,434,l),
(598,714,l),
(541,714,l),
(502,529,l),
(511,529,l),
(520,650,o),
(460,727,o),
(357,727,cs),
(142,727,o),
(62,405,o),
(62,228,cs),
(62,77,o),
(124,-13,o),
(235,-13,cs)
);
}
);
width = 564;
}
);
metricLeft = "=|theCarrier-canadian";
metricRight = "nunavuth-canadian";
note = uni1633;
unicode = 5683;
},
{
color = 9;
glyphname = "tlhuCarrier-canadian";
lastChange = "2023-01-13 15:28:16 +0000";
layers = (
{
layerId = "A0BEBE03-9AB7-4E04-894D-4F686A7231C4";
shapes = (
{
closed = 1;
nodes = (
(487,-13,o),
(553,290,o),
(553,455,cs),
(553,563,o),
(526,646,o),
(458,681,c),
(454,664,l),
(610,664,l),
(592,578,l),
(640,578,l),
(687,800,l),
(639,800,l),
(620,714,l),
(435,714,l),
(424,662,l),
(471,642,o),
(495,579,o),
(495,489,cs),
(495,351,o),
(446,46,o),
(257,46,cs),
(169,46,o),
(127,103,o),
(127,214,cs),
(127,336,o),
(182,613,o),
(333,662,c),
(345,714,l),
(148.998,714,l),
(137,661,l),
(299,661,l),
(291,678,l),
(126,614,o),
(62,354,o),
(62,212,cs),
(62,68,o),
(127,-13,o),
(254,-13,cs)
);
}
);
width = 602;
}
);
metricLeft = "lhuCarrier-canadian";
note = uni1634;
unicode = 5684;
},
{
color = 9;
glyphname = "tlhoCarrier-canadian";
lastChange = "2023-01-13 15:28:16 +0000";
layers = (
{
layerId = "A0BEBE03-9AB7-4E04-894D-4F686A7231C4";
shapes = (
{
closed = 1;
nodes = (
(11,-86,l),
(30,0,l),
(215,0,l),
(227,52,l),
(179,72,o),
(155,135,o),
(155,225,cs),
(155,363,o),
(204,668,o),
(393,668,cs),
(481,668,o),
(524,611,o),
(524,500,cs),
(524,378,o),
(468,101,o),
(316.994,52,c),
(306,0,l),
(501,0,l),
(513,53,l),
(352,53,l),
(360,36,l),
(524,100,o),
(588,360,o),
(588,502,cs),
(588,646,o),
(523,727,o),
(396,727,cs),
(163,727,o),
(97,424,o),
(97,259,cs),
(97,151,o),
(124,68,o),
(192,33,c),
(196,50,l),
(39,50,l),
(58,136,l),
(10,136,l),
(-37,-86,l)
);
}
);
width = 602;
}
);
metricLeft = "=|tlhuCarrier-canadian";
metricRight = "lhuCarrier-canadian";
note = uni1635;
unicode = 5685;
},
{
color = 9;
glyphname = "tlheCarrier-canadian";
lastChange = "2023-01-13 15:28:16 +0000";
layers = (
{
anchors = (
{
name = middle_center_can;
pos = (314,357);
}
);
layerId = "A0BEBE03-9AB7-4E04-894D-4F686A7231C4";
shapes = (
{
closed = 1;
nodes = (
(476,-13,o),
(558,309,o),
(558,486,cs),
(558,637,o),
(495,727,o),
(384,727,cs),
(287,727,o),
(219,663,o),
(178,547,c),
(190,567,l),
(224,729,l),
(286,729,l),
(296,776,l),
(124,776,l),
(114,729,l),
(176,729,l),
(113,434,l),
(166,434,l),
(205,593,o),
(271,667,o),
(363,667,cs),
(449,667,o),
(495,603,o),
(495,487,cs),
(495,351,o),
(436,47,o),
(253,47,cs),
(152,47,o),
(106,137,o),
(133,280,c),
(80,280,l),
(21,0,l),
(77,0,l),
(116,185,l),
(107,185,l),
(99,64,o),
(158,-13,o),
(264,-13,cs)
);
}
);
width = 572;
}
);
metricLeft = "dleCarrier-canadian";
metricRight = "theCarrier-canadian";
note = uni1636;
unicode = 5686;
},
{
color = 9;
glyphname = "tlhaCarrier-canadian";
lastChange = "2023-01-13 15:28:16 +0000";
layers = (
{
layerId = "A0BEBE03-9AB7-4E04-894D-4F686A7231C4";
shapes = (
{
closed = 1;
nodes = (
(321,-13,o),
(385,41,o),
(425,146,c),
(421,148,l),
(390,0,l),
(446,0,l),
(506,280,l),
(453,280,l),
(414,121,o),
(348,47,o),
(255,47,cs),
(169,47,o),
(125,111,o),
(125,227,cs),
(125,363,o),
(183,667,o),
(366,667,cs),
(467,667,o),
(513,577,o),
(486,434,c),
(539,434,l),
(602,729,l),
(663,729,l),
(674,776,l),
(502,776,l),
(492,729,l),
(554,729,l),
(510,524,l),
(519,523,l),
(527,653,o),
(461,727,o),
(357,727,cs),
(142,727,o),
(62,405,o),
(62,228,cs),
(62,77,o),
(124,-13,o),
(235,-13,cs)
);
}
);
width = 572;
}
);
metricLeft = "=|theCarrier-canadian";
metricRight = "=|dleCarrier-canadian";
note = uni1639;
unicode = 5689;
},
{
color = 9;
glyphname = "tluCarrier-canadian";
lastChange = "2023-01-13 15:28:16 +0000";
layers = (
{
layerId = "A0BEBE03-9AB7-4E04-894D-4F686A7231C4";
shapes = (
{
closed = 1;
nodes = (
(236,-13,o),
(281,25,o),
(318,112,c),
(300,113,l),
(304,32,o),
(342,-13,o),
(411,-13,cs),
(589,-13,o),
(647,341,o),
(647,481,cs),
(647,584,o),
(616,645,o),
(556,673,c),
(541,664,l),
(700,664,l),
(682,578,l),
(730,578,l),
(777,800,l),
(728,800,l),
(710,714,l),
(481,714,l),
(470,662,l),
(550,658,o),
(588,610,o),
(588,498,cs),
(588,381,o),
(535,46,o),
(411,46,cs),
(352,46,o),
(333,96,o),
(354,193,cs),
(379,309,l),
(319,309,l),
(294,192,ls),
(273,93,o),
(237,46,o),
(183,46,cs),
(136,46,o),
(115,76,o),
(115,161,cs),
(115,229,o),
(160,667,o),
(378,662,c),
(389,714,l),
(150,714,l),
(138,661,l),
(293,661,l),
(282,670,l),
(112,609,o),
(52,296,o),
(52,154,cs),
(52,43,o),
(93,-13,o),
(172,-13,cs)
);
}
);
width = 692;
}
);
metricRight = "tlhuCarrier-canadian";
note = uni163A;
unicode = 5690;
},
{
color = 1;
glyphname = "tloCarrier-canadian";
lastChange = "2023-01-13 15:30:12 +0000";
layers = (
{
layerId = "A0BEBE03-9AB7-4E04-894D-4F686A7231C4";
shapes = (
{
closed = 1;
nodes = (
(588,-86,l),
(635,136,l),
(587,136,l),
(568,50,l),
(421,50,l),
(430,41,l),
(606,101,o),
(665,417,o),
(665,560,cs),
(665,671,o),
(625,727,o),
(546,727,cs),
(482,727,o),
(437,689,o),
(400,602,c),
(418,602,l),
(414,682,o),
(376,727,o),
(307,727,cs),
(129,727,o),
(71,373,o),
(71,233,cs),
(71,134,o),
(101,73,o),
(158,44,c),
(173,53,l),
(8,53,l),
(-3,0,l),
(237,0,l),
(248,52,l),
(168,56,o),
(130,104,o),
(130,216,cs),
(130,333,o),
(183,668,o),
(306,668,cs),
(366,668,o),
(384,618,o),
(364,521,cs),
(339,405,l),
(399,405,l),
(424,522,ls),
(445,621,o),
(481,668,o),
(535,668,cs),
(582,668,o),
(603,638,o),
(603,553,cs),
(603,485,o),
(558,47,o),
(340,52,c),
(329,0,l),
(558,0,l),
(540,-86,l)
);
}
);
width = 691;
}
);
metricLeft = "tluCarrier-canadian";
metricRight = "tlhuCarrier-canadian";
note = uni163B;
unicode = 5691;
},
{
color = 9;
glyphname = "tleCarrier-canadian";
lastChange = "2023-01-13 15:30:12 +0000";
layers = (
{
anchors = (
{
name = middle_center_can;
pos = (253,357);
}
);
layerId = "A0BEBE03-9AB7-4E04-894D-4F686A7231C4";
shapes = (
{
closed = 1;
nodes = (
(418,-13,o),
(504,92,o),
(504,225,cs),
(504,302,o),
(464,357,o),
(398,364,c),
(395,348,l),
(507,354,o),
(577,460,o),
(577,560,cs),
(577,658,o),
(510,727,o),
(404,727,cs),
(301,727,o),
(217,661,o),
(179,547,c),
(186,547,l),
(224,729,l),
(287,729,l),
(297,776,l),
(124,776,l),
(114,729,l),
(176,729,l),
(113,434,l),
(165,434,l),
(202,591,o),
(275,669,o),
(383,669,cs),
(464,669,o),
(512,621,o),
(512,548,cs),
(512,461,o),
(458,384,o),
(367,384,cs),
(335,384,l),
(323,330,l),
(354,330,ls),
(410,330,o),
(444,293,o),
(444,230,cs),
(444,127,o),
(385,45,o),
(271,45,cs),
(152,45,o),
(103,129,o),
(132,280,c),
(80,280,l),
(21,0,l),
(78,0,l),
(113,167,l),
(102,168,l),
(96,59,o),
(168,-13,o),
(281,-13,cs)
);
}
);
width = 576;
}
);
metricLeft = "dleCarrier-canadian";
metricRight = "geCarrier-canadian";
note = uni163C;
unicode = 5692;
},
{
color = 9;
glyphname = "tlaCarrier-canadian";
lastChange = "2023-01-13 15:30:12 +0000";
layers = (
{
layerId = "A0BEBE03-9AB7-4E04-894D-4F686A7231C4";
shapes = (
{
closed = 1;
nodes = (
(313,-13,o),
(391,42,o),
(432,136,c),
(426,147,l),
(395,0,l),
(452,0,l),
(512,280,l),
(459,280,l),
(423,123,o),
(350,45,o),
(241,45,cs),
(160,45,o),
(112,93,o),
(112,166,cs),
(112,253,o),
(166,330,o),
(257,330,cs),
(290,330,l),
(301,384,l),
(270,384,ls),
(214,384,o),
(180,421,o),
(180,484,cs),
(180,587,o),
(239,669,o),
(354,669,cs),
(471,669,o),
(521,585,o),
(491,434,c),
(544,434,l),
(606,729,l),
(668,729,l),
(678,776,l),
(505,776,l),
(495,729,l),
(558,729,l),
(518,543,l),
(523,550,l),
(530,657,o),
(458,727,o),
(344,727,cs),
(206,727,o),
(120,622,o),
(120,489,cs),
(120,419,o),
(153,368,o),
(207,353,c),
(211,363,l),
(110,348,o),
(48,248,o),
(48,154,cs),
(48,56,o),
(114,-13,o),
(220,-13,cs)
);
}
);
width = 576;
}
);
metricLeft = "=|geCarrier-canadian";
metricRight = "=|dleCarrier-canadian";
note = uni163F;
unicode = 5695;
},
{
color = 9;
glyphname = "zuCarrier-canadian";
lastChange = "2023-01-13 15:28:16 +0000";
layers = (
{
layerId = "A0BEBE03-9AB7-4E04-894D-4F686A7231C4";
shapes = (
{
closed = 1;
nodes = (
(454,-13,o),
(527,147,o),
(527,327,cs),
(527,397,o),
(516,484,o),
(516,551,cs),
(516,620,o),
(539,659,o),
(599,659,cs),
(618,659,l),
(630,714,l),
(593,714,ls),
(497,714,o),
(456,658,o),
(456,547,cs),
(456,482,o),
(466,403,o),
(466,326,cs),
(466,183,o),
(416,47,o),
(258,47,cs),
(163,47,o),
(110,98,o),
(110,183,cs),
(110,331,o),
(272,524,o),
(272,631,cs),
(272,683,o),
(239,714,o),
(182,714,cs),
(147,714,l),
(135,659,l),
(163,659,ls),
(195,659,o),
(210,645,o),
(210,619,cs),
(210,533,o),
(45,342,o),
(45,177,cs),
(45,63,o),
(123,-13,o),
(250,-13,cs)
);
}
);
width = 577;
}
);
metricRight = "=|";
note = uni1640;
unicode = 5696;
},
{
color = 9;
glyphname = "zoCarrier-canadian";
lastChange = "2023-01-13 15:30:12 +0000";
layers = (
{
layerId = "A0BEBE03-9AB7-4E04-894D-4F686A7231C4";
shapes = (
{
closed = 1;
nodes = (
(32,0,ls),
(128,0,o),
(169,56,o),
(169,167,cs),
(169,232,o),
(159,311,o),
(159,388,cs),
(159,531,o),
(210,667,o),
(368,667,cs),
(462,667,o),
(516,616,o),
(516,531,cs),
(516,383,o),
(353,190,o),
(353,83,cs),
(353,31,o),
(386,0,o),
(444,0,cs),
(479,0,l),
(490,55,l),
(462,55,ls),
(430,55,o),
(415,69,o),
(415,95,cs),
(415,181,o),
(581,372,o),
(581,537,cs),
(581,651,o),
(502,727,o),
(375,727,cs),
(172,727,o),
(99,567,o),
(99,387,cs),
(99,317,o),
(110,230,o),
(110,163,cs),
(110,94,o),
(87,55,o),
(26,55,cs),
(7,55,l),
(-5,0,l)
);
}
);
width = 578;
}
);
metricLeft = "zuCarrier-canadian";
metricRight = "zuCarrier-canadian";
note = uni1641;
unicode = 5697;
},
